<svg xmlns:xlink="http://www.w3.org/1999/xlink" xmlns="http://www.w3.org/2000/svg" width="110" height="96" viewBox="0 0 110 96" fill="none">
<path d="M80.4367 92.5C79.4593 92.5 78.666 92.4332 78.666 91.6653C78.666 73.35 79.4617 40.6555 80.5548 14.9391C80.7507 10.3909 81.2631 4.97456 81.2631 4.92262C81.3339 4.15654 82.4176 3.95436 83.3879 4.00815C84.3583 4.06194 84.8588 4.36244 84.788 5.12109C84.788 5.17488 84.2804 10.5356 84.0797 15.0281C82.9842 40.713 82.1909 73.3722 82.1909 91.6597C82.2075 92.4332 81.4142 92.5 80.4367 92.5Z" fill="#00203F"/>
<path d="M104.956 44.4938L102.328 39.8321L101.07 37.5934C100.798 37.1101 100.586 36.5098 100.076 36.2085C99.8997 36.1569 99.7251 36.0998 99.5525 36.0373C88.6935 33.9507 77.7282 32.4372 66.7039 31.5035C66.4776 31.4713 66.2512 31.5616 66.1121 31.7397C65.8953 31.8183 65.728 31.9913 65.6594 32.2078C64.0208 36.9259 63.1596 41.8368 62.3226 46.7391C62.3147 46.7856 62.311 46.8328 62.3116 46.88C62.2127 47.1204 62.2337 47.3924 62.3684 47.6155C62.5031 47.8385 62.736 47.9873 62.9984 48.0177L84.4897 50.25C87.1396 50.768 89.7896 51.1667 92.4815 51.429C93.6144 51.5395 94.84 51.7584 95.9773 51.6457C97.0373 51.5482 97.808 50.7983 98.614 50.1893L104.629 45.6381C104.744 45.5522 104.833 45.4377 104.888 45.3066C105.082 45.0765 105.109 44.7521 104.956 44.4938Z" fill="#E3D6BD"/>
<path d="M101.423 26.0983C101.371 22.9311 101.11 19.7705 100.643 16.6362C100.433 15.2232 100.246 9.91779 97.5116 11.0274C97.4473 11.0543 97.3853 11.0862 97.3261 11.1228C87.4196 11.8278 77.5617 12.9786 67.7524 14.5752C67.6815 14.587 67.613 14.6096 67.5492 14.6423C67.312 14.5796 67.0598 14.6655 66.9133 14.8591C64.4458 17.6996 62.2883 20.786 60.476 24.0676L60.4561 24.1044C60.3811 24.2431 60.3016 24.3775 60.2353 24.514C60.0691 24.8025 60.1349 25.1662 60.3921 25.3809C60.449 25.5241 60.5512 25.6456 60.6836 25.7277C62.303 26.7636 63.9364 27.775 65.5838 28.7618C65.9129 28.9569 66.5135 29.3881 67.07 29.7999C67.8967 30.4113 68.9393 30.6706 69.9629 30.5194C75.1569 29.7566 91.6353 27.4225 100.709 27.1147C100.915 27.1099 101.11 27.0188 101.243 26.8643C101.376 26.7098 101.436 26.5068 101.407 26.3063C101.422 26.238 101.427 26.168 101.423 26.0983V26.0983Z" fill="#E3D6BD"/>
<path d="M68.7639 54.0597C68.5166 51.3117 67.1562 48.5983 66.1691 46.041C63.9932 40.4062 61.6612 34.8285 59.1732 29.3078C56.7043 23.8356 54.2487 18.216 51.2233 13.0103C50.0043 10.9081 48.3922 9.01178 46.0492 8.09505C43.8961 7.24983 41.5995 7.53807 39.8129 9.01178C37.5715 10.8604 36.2531 13.901 34.8729 16.3608C33.146 19.4383 31.4957 22.5562 29.9219 25.7146C29.3499 26.861 28.0824 29.789 26.5962 33.2999C23.6039 31.9063 19.3816 30.4651 19.3816 30.4651C20.8479 27.431 23.107 24.4121 24.845 22.3055C25.3838 21.6554 26.1302 21.4755 26.8921 21.1872C29.7114 20.1253 31.229 17.1183 30.3812 14.2738C30.1068 14.3297 30.6466 14.1854 30.3812 14.2738C29.4847 14.3778 31.2778 14.0961 30.3812 14.2738C31.8431 14.1069 31.1718 13.2942 29.9219 12.152C28.672 11.0099 27.9963 10.635 27.9963 10.635C26.7064 9.70939 25.0577 9.60905 23.4692 9.77898C20.477 10.0932 18.092 12.0437 16.1222 14.1308C13.8829 16.4995 11.7917 19.0244 9.78872 21.5795C7.93595 23.9635 6.09422 26.5121 5.2926 29.4335C4.49098 32.355 5.38756 35.6253 7.35737 37.8532C9.77106 40.5839 15.3294 43.9908 18.5911 45.6682C19.2668 46.015 20.0706 46.4614 20.8987 46.9317C19.8277 49.5042 19.0283 51.4222 18.7832 51.977C18.1936 53.3055 17.7386 54.686 17.8491 56.0297C18.0346 58.3378 20.0574 59.4973 22.1928 59.8072C24.8428 60.1886 27.6076 60.0369 30.2819 60.1518C30.061 70.4136 30.2819 86.5594 30.2819 86.5594C30.2819 86.5594 30.0434 86.5702 30.0345 86.5767C28.6521 87.7059 27.623 88.9607 26.5012 90.3542C26.3612 90.5354 26.3021 90.7646 26.3375 90.9893C26.3728 91.214 26.4997 91.415 26.6889 91.5462C26.8027 91.8042 27.0651 91.9682 27.3514 91.9601H54.2531C54.4759 91.962 54.688 91.8658 54.8308 91.6979C54.9737 91.53 55.0323 91.3081 54.9906 91.0932C55.0164 90.8787 54.9463 90.6638 54.7985 90.5037L51.3955 86.6027C51.634 83.2457 52.0271 79.7825 52.4798 76.2933C53.1539 76.7152 53.9661 76.8702 54.7522 76.7267C54.8025 76.7178 54.852 76.7048 54.9001 76.6877C55.0681 76.8504 55.2575 76.9903 55.4632 77.1038C56.4133 77.6033 57.5734 77.5109 58.429 76.8676C58.5283 76.9744 58.6377 77.0716 58.7558 77.158C59.6833 77.8493 60.9023 77.7236 61.8276 77.093C64.2148 75.4654 63.7864 71.8591 63.7864 69.1436C63.7864 66.9764 63.5125 63.1555 63.3027 59.9112C63.9115 59.7765 64.5123 59.6094 65.1025 59.4106C67.5493 58.5675 68.998 56.6495 68.7639 54.0597Z" fill="#E5E4FF"/>
<path d="M58.9192 76.3335C59.0745 76.7359 59.3682 77.0724 59.7495 77.2849" stroke="#00203F" stroke-width="1.64337" stroke-linecap="round" stroke-linejoin="round"/>
<path d="M55.0475 76.1972C55.2416 76.4855 55.5018 76.7252 55.8071 76.8972L55.0497 76.1929" stroke="#00203F" stroke-width="1.64337" stroke-linecap="round" stroke-linejoin="round"/>
<path d="M45.7461 31.6206C44.9997 32.7627 41.3295 33.9764 39.1477 33.7878" stroke="#00203F" stroke-width="1.64337" stroke-linecap="round" stroke-linejoin="round"/>
<path d="M43.4846 25.8125L43.3676 27.1605" stroke="#00203F" stroke-width="1.64337" stroke-linecap="round" stroke-linejoin="round"/>
<path d="M37.3767 25.1362L37.2597 26.4864" stroke="#00203F" stroke-width="1.64337" stroke-linecap="round" stroke-linejoin="round"/>
<path d="M42.3831 18.3091C43.4651 17.401 45.351 17.6849 46.1041 18.8704" stroke="#00203F" stroke-width="1.64337" stroke-linecap="round" stroke-linejoin="round"/>
<path d="M36.2859 21.3782L38.2955 21.2243" stroke="#00203F" stroke-width="1.64337" stroke-linecap="round" stroke-linejoin="round"/>
<path d="M39.433 61.0854L38.6733 91.4829" stroke="#00203F" stroke-width="1.64337" stroke-linecap="round" stroke-linejoin="round"/>
<path d="M29.7563 14.2515C28.873 14.4682 27.8285 15.1184 27.1748 15.736" stroke="#00203F" stroke-width="1.64337" stroke-linecap="round" stroke-linejoin="round"/>
<path d="M24.5115 12.4767C25.1963 11.7139 26.1171 11.1924 27.1327 10.9922" stroke="#00203F" stroke-width="1.64337" stroke-linecap="round" stroke-linejoin="round"/>
<path d="M21.9854 12.0931C22.3447 11.5337 22.9259 11.1471 23.5886 11.0269" stroke="#00203F" stroke-width="1.64337" stroke-linecap="round" stroke-linejoin="round"/>
<path d="M27.676 15.5869C27.7489 15.8947 27.7776 16.6337 27.8505 16.9414" stroke="#00203F" stroke-width="1.64337" stroke-linecap="round" stroke-linejoin="round"/>
<path d="M51.7796 67.4985C51.4174 63.5845 51.1767 59.4321 51.19 55.5029" stroke="#00203F" stroke-width="1.64337" stroke-linecap="round" stroke-linejoin="round"/>
</svg>