<svg xmlns:xlink="http://www.w3.org/1999/xlink" xmlns="http://www.w3.org/2000/svg" width="30" height="30" viewBox="0 0 30 30" fill="none">
<circle cx="15" cy="15" r="15" fill="#FFF7F2"/>
<g clip-path="url(#clip0_55_802)">
<path d="M14.5931 9.43549C14.5931 7.23444 12.7843 5.45111 10.5519 5.45111C8.31936 5.45111 6.51056 7.23444 6.51056 9.43549C6.51056 11.4241 7.9884 13.0725 9.9204 13.3717V10.5873H8.89378V9.43549H9.9204V8.55764C9.9204 7.55913 10.5233 7.00759 11.4468 7.00759C11.8891 7.00759 12.3515 7.08535 12.3515 7.08535V8.06537H11.8418C11.3399 8.06537 11.1833 8.37256 11.1833 8.68761V9.43549H12.3041L12.1249 10.5873H11.1833V13.3717C13.1153 13.0725 14.5931 11.4241 14.5931 9.43549Z" fill="#FFBC8B"/>
</g>
<g clip-path="url(#clip1_55_802)">
<path d="M19.6331 9.03953C18.5183 9.03953 17.6191 9.86372 17.6191 10.8855C17.6191 11.9073 18.5183 12.7315 19.6331 12.7315C20.7479 12.7315 21.6471 11.9073 21.6471 10.8855C21.6471 9.86372 20.7479 9.03953 19.6331 9.03953ZM19.6331 12.0857C18.9127 12.0857 18.3238 11.5474 18.3238 10.8855C18.3238 10.2236 18.9109 9.68539 19.6331 9.68539C20.3553 9.68539 20.9424 10.2236 20.9424 10.8855C20.9424 11.5474 20.3535 12.0857 19.6331 12.0857ZM22.1992 8.96402C22.1992 9.2034 21.9889 9.39459 21.7294 9.39459C21.4683 9.39459 21.2597 9.2018 21.2597 8.96402C21.2597 8.72624 21.47 8.53345 21.7294 8.53345C21.9889 8.53345 22.1992 8.72624 22.1992 8.96402ZM23.5331 9.40102C23.5033 8.82425 23.3595 8.31335 22.8986 7.89242C22.4393 7.47149 21.8819 7.33975 21.2527 7.31083C20.6041 7.27709 18.6603 7.27709 18.0118 7.31083C17.3843 7.33814 16.8269 7.46988 16.3659 7.89081C15.9049 8.31174 15.7629 8.82264 15.7314 9.39941C15.6946 9.99385 15.6946 11.7756 15.7314 12.37C15.7612 12.9468 15.9049 13.4577 16.3659 13.8786C16.8269 14.2995 17.3825 14.4313 18.0118 14.4602C18.6603 14.4939 20.6041 14.4939 21.2527 14.4602C21.8819 14.4329 22.4393 14.3012 22.8986 13.8786C23.3578 13.4577 23.5015 12.9468 23.5331 12.37C23.5699 11.7756 23.5699 9.99546 23.5331 9.40102ZM22.6952 13.0078C22.5585 13.3227 22.2938 13.5653 21.9485 13.6923C21.4315 13.8802 20.2045 13.8368 19.6331 13.8368C19.0617 13.8368 17.833 13.8786 17.3177 13.6923C16.9741 13.5669 16.7094 13.3243 16.571 13.0078C16.3659 12.5339 16.4132 11.4093 16.4132 10.8855C16.4132 10.3618 16.3676 9.23554 16.571 8.7632C16.7077 8.4483 16.9724 8.2057 17.3177 8.07878C17.8347 7.89081 19.0617 7.93419 19.6331 7.93419C20.2045 7.93419 21.4332 7.89242 21.9485 8.07878C22.2921 8.2041 22.5568 8.44669 22.6952 8.7632C22.9003 9.23714 22.853 10.3618 22.853 10.8855C22.853 11.4093 22.9003 12.5355 22.6952 13.0078Z" fill="#FFBC8B"/>
</g>
<g clip-path="url(#clip2_55_802)">
<path d="M14.2327 18.7222C14.2327 20.9956 12.6735 22.6134 10.3708 22.6134C8.1631 22.6134 6.38019 20.8333 6.38019 18.6291C6.38019 16.4248 8.1631 14.6447 10.3708 14.6447C11.4457 14.6447 12.35 15.0383 13.0468 15.6874L11.9606 16.7301C10.5398 15.3612 7.89759 16.3895 7.89759 18.6291C7.89759 20.0188 9.0095 21.145 10.3708 21.145C11.951 21.145 12.5431 20.014 12.6365 19.4275H10.3708V18.0571H14.17C14.207 18.2611 14.2327 18.4572 14.2327 18.7222Z" fill="#FFBC8B"/>
</g>
<g clip-path="url(#clip3_55_802)">
<path d="M21.7698 21.5322C21.3487 21.5322 20.9617 21.68 20.6563 21.9272L18.7476 20.7165C18.8041 20.457 18.8041 20.1881 18.7476 19.9286L20.6563 18.7179C20.9617 18.9651 21.3487 19.1129 21.7698 19.1129C22.7572 19.1129 23.5576 18.3005 23.5576 17.2984C23.5576 16.2962 22.7572 15.4839 21.7698 15.4839C20.7824 15.4839 19.9819 16.2962 19.9819 17.2984C19.9819 17.4337 19.9966 17.5654 20.0243 17.6923L18.1156 18.903C17.8102 18.6558 17.4232 18.508 17.0021 18.508C16.0148 18.508 15.2143 19.3204 15.2143 20.3226C15.2143 21.3247 16.0148 22.1371 17.0021 22.1371C17.4232 22.1371 17.8102 21.9893 18.1156 21.7421L20.0243 22.9528C19.9961 23.0822 19.9819 23.2143 19.9819 23.3468C19.9819 24.3489 20.7824 25.1613 21.7698 25.1613C22.7572 25.1613 23.5576 24.3489 23.5576 23.3468C23.5576 22.3446 22.7572 21.5322 21.7698 21.5322Z" fill="#FFBC8B"/>
</g>
<defs>
<clipPath id="clip0_55_802">
<rect width="8.34332" height="8.22581" fill="white" transform="translate(6.38019 5.32257)"/>
</clipPath>
<clipPath id="clip1_55_802">
<rect width="7.85253" height="8.22581" fill="white" transform="translate(15.7051 6.7742)"/>
</clipPath>
<clipPath id="clip2_55_802">
<rect width="7.85253" height="8.22581" fill="white" transform="translate(6.38019 14.5161)"/>
</clipPath>
<clipPath id="clip3_55_802">
<rect width="8.34332" height="9.67742" fill="white" transform="translate(15.2143 15.4839)"/>
</clipPath>
</defs>
</svg>