<svg xmlns:xlink="http://www.w3.org/1999/xlink" xmlns="http://www.w3.org/2000/svg" width="40" height="40" viewBox="0 0 40 40" fill="none">
<rect width="40" height="40" rx="20" fill="#FEEE95"/>
<g clip-path="url(#clip0_12344_269667)">
<path d="M18.3334 24.7155V26.6667C18.3334 27.5872 19.0796 28.3334 20.0001 28.3334C20.9206 28.3334 21.6667 27.5872 21.6667 26.6667V24.7155M20.0001 11.6667V12.5M12.5001 20H11.6667M14.5834 14.5834L14.0833 14.0833M25.4167 14.5834L25.917 14.0833M28.3334 20H27.5001M25.0001 20C25.0001 22.7614 22.7615 25 20.0001 25C17.2387 25 15.0001 22.7614 15.0001 20C15.0001 17.2386 17.2387 15 20.0001 15C22.7615 15 25.0001 17.2386 25.0001 20Z" stroke="#CA8504" stroke-width="2" stroke-linecap="round" stroke-linejoin="round"/>
</g>
<defs>
<clipPath id="clip0_12344_269667">
<rect width="20" height="20" fill="white" transform="translate(10 10)"/>
</clipPath>
</defs>
</svg>