<svg xmlns:xlink="http://www.w3.org/1999/xlink" viewBox="0 0 12 18" xmlns="http://www.w3.org/2000/svg" width="20" height="20" fill="currentColor" class="group-hover:scale-110 transition-all duration-300 ease-out"><path fill-rule="evenodd" clip-rule="evenodd" d="M0 6C0 2.68629 2.68629 0 6 0C9.31371 0 12 2.68629 12 6V6.49281C12 8.46612 11.0138 10.3089 9.37191 11.4034C9.13956 11.5583 9 11.8191 9 12.0984V13.682C9 14.4099 8.4099 15 7.68198 15H4.31802C3.5901 15 3 14.4099 3 13.682V12.0984C3 11.8191 2.86044 11.5583 2.62809 11.4034C0.986206 10.3089 0 8.46612 0 6.49281V6ZM6 1.5C3.51472 1.5 1.5 3.51472 1.5 6V6.49281C1.5 7.96459 2.23555 9.33898 3.46014 10.1554C4.10979 10.5885 4.5 11.3176 4.5 12.0984V13.5H7.5V12.0984C7.5 11.3176 7.89021 10.5885 8.53986 10.1554C9.76445 9.33898 10.5 7.96459 10.5 6.49281V6C10.5 3.51472 8.48528 1.5 6 1.5ZM4 17.25C4 16.8358 4.33579 16.5 4.75 16.5H7.25C7.66421 16.5 8 16.8358 8 17.25C8 17.6642 7.66421 18 7.25 18H4.75C4.33579 18 4 17.6642 4 17.25Z" fill="#347434"></path></svg>