<svg xmlns:xlink="http://www.w3.org/1999/xlink" xmlns="http://www.w3.org/2000/svg" width="30" height="30" viewBox="0 0 30 30" fill="none">
<circle cx="15" cy="15" r="15" fill="#F0FBF7"/>
<g clip-path="url(#clip0_55_723)">
<path d="M21.2291 10.118L19.6734 8.58423C19.1881 8.10579 18.4011 8.10579 17.9158 8.58423L16.4522 10.0272L19.7655 13.2938L21.2291 11.8509C21.7144 11.3724 21.7144 10.5967 21.2291 10.118ZM14.8417 9.59418C14.4374 9.19561 13.7821 9.19561 13.3778 9.59418L10.3037 12.6253C10.1419 12.7848 10.1419 13.0433 10.3037 13.2025L10.8893 13.7799C11.0511 13.9394 11.3133 13.9394 11.475 13.7799L14.1103 11.1818L14.6959 11.759L10.7734 15.6261C9.41473 16.9656 8.55877 18.7211 8.34626 20.6038L8.34549 20.6097C8.30149 20.9996 8.63562 21.3293 9.03108 21.2862C10.9432 21.078 12.7264 20.2338 14.0867 18.8927L19.1799 13.8713L17.0377 11.7593L14.8417 9.59418Z" fill="#46D39A"/>
</g>
<defs>
<clipPath id="clip0_55_723">
<rect width="13.2512" height="13.0645" fill="white" transform="translate(8.34332 8.2258)"/>
</clipPath>
</defs>
</svg>