<svg xmlns:xlink="http://www.w3.org/1999/xlink" viewBox="0 0 18 14" xmlns="http://www.w3.org/2000/svg" width="20" height="20" fill="currentColor" class="group-hover:scale-110 transition-all duration-300 ease-out"><path fill-rule="evenodd" clip-rule="evenodd" d="M5.58455 1.5456C5.44521 1.50689 5.25179 1.5 4.56006 1.5H3.95C3.37757 1.5 2.99336 1.50058 2.69748 1.52476C2.41036 1.54821 2.27307 1.5901 2.18251 1.63624C1.94731 1.75608 1.75608 1.94731 1.63624 2.18251C1.5901 2.27307 1.54822 2.41035 1.52476 2.69748C1.50058 2.99335 1.5 3.37757 1.5 3.95V4.05C1.5 4.62243 1.50058 5.00664 1.52476 5.30252C1.54822 5.58964 1.5901 5.72693 1.63624 5.81749C1.75608 6.05269 1.94731 6.24391 2.18251 6.36376C2.27307 6.4099 2.41036 6.45178 2.69748 6.47524C2.99336 6.49941 3.37757 6.5 3.95 6.5H4.5C4.75993 6.5 5.00133 6.63459 5.13799 6.8557C5.27464 7.07681 5.28707 7.35292 5.17082 7.58541L3.71353 10.5H4.44906C4.54184 10.5 4.59474 10.4999 4.63483 10.4987C4.66 10.4979 4.67064 10.4969 4.67328 10.4966C4.73797 10.4857 4.79582 10.4499 4.83434 10.3968C4.83174 10.4004 4.83601 10.3955 4.85312 10.3638C4.87215 10.3285 4.89588 10.2812 4.93737 10.1982C5.31451 9.44394 5.48723 9.09759 5.63354 8.74668C6.10568 7.61433 6.38943 6.41238 6.47353 5.18843C6.4996 4.80913 6.5 4.4221 6.5 3.5788V3.43994C6.5 2.74821 6.4931 2.55479 6.4544 2.41545C6.33706 1.99302 6.00698 1.66294 5.58455 1.5456ZM4.66119 -4.76753e-05C5.20332 -0.000417939 5.62231 -0.000704162 5.986 0.100319C6.91536 0.358466 7.64153 1.08464 7.89968 2.014C8.0007 2.37769 8.00042 2.79668 8.00005 3.33881C8.00002 3.37205 8 3.40576 8 3.43994V3.61074C8.00001 4.41404 8.00001 4.85461 7.97 5.29126C7.87468 6.6784 7.55311 8.04062 7.01802 9.32394C6.84958 9.7279 6.65255 10.122 6.29331 10.8404L6.27901 10.869C6.27377 10.8795 6.26851 10.8901 6.26323 10.9007C6.20066 11.0262 6.13435 11.1592 6.04861 11.2774C5.77822 11.6502 5.37177 11.9015 4.91739 11.9766C4.77331 12.0004 4.62466 12.0002 4.48441 12C4.47256 12 4.46078 12 4.44906 12H2.5C2.24007 12 1.99867 11.8654 1.86201 11.6443C1.72536 11.4232 1.71293 11.1471 1.82918 10.9146L3.2876 7.99775C3.02222 7.99467 2.78522 7.98741 2.57533 7.97026C2.19545 7.93922 1.83879 7.87211 1.50153 7.70027C0.984081 7.43661 0.563385 7.01592 0.299733 6.49847C0.127889 6.16121 0.0607778 5.80455 0.02974 5.42467C-1.90884e-05 5.06043 -1.02672e-05 4.61459 4.02008e-07 4.08043V3.91956C-1.02672e-05 3.38541 -1.90884e-05 2.93956 0.02974 2.57533C0.0607778 2.19544 0.127889 1.83879 0.299733 1.50152C0.563385 0.984078 0.984081 0.563382 1.50153 0.29973C1.83879 0.127886 2.19545 0.0607751 2.57533 0.0297372C2.93956 -2.1806e-05 3.38541 -1.29854e-05 3.91957 -2.31618e-06L4.56006 -1.95855e-06C4.59424 -1.95855e-06 4.62795 -2.49659e-05 4.66119 -4.76753e-05ZM15.5845 3.5456C15.4452 3.50689 15.2518 3.5 14.5601 3.5H13.95C13.3776 3.5 12.9934 3.50058 12.6975 3.52476C12.4104 3.54821 12.2731 3.5901 12.1825 3.63624C11.9473 3.75608 11.7561 3.94731 11.6362 4.18251C11.5901 4.27307 11.5482 4.41035 11.5248 4.69748C11.5006 4.99336 11.5 5.37757 11.5 5.95V6.05C11.5 6.62243 11.5006 7.00664 11.5248 7.30252C11.5482 7.58964 11.5901 7.72693 11.6362 7.81749C11.7561 8.05269 11.9473 8.24391 12.1825 8.36376C12.2731 8.4099 12.4104 8.45178 12.6975 8.47524C12.9934 8.49941 13.3776 8.5 13.95 8.5H14.5C14.7599 8.5 15.0013 8.63459 15.138 8.8557C15.2746 9.07681 15.2871 9.35292 15.1708 9.58541L13.7135 12.5H14.4491C14.5418 12.5 14.5947 12.4999 14.6348 12.4987C14.6709 12.4976 14.6771 12.4959 14.6727 12.4967C14.7377 12.4859 14.7957 12.45 14.8343 12.3968C14.8317 12.4004 14.836 12.3955 14.8531 12.3638C14.8721 12.3285 14.8959 12.2812 14.9374 12.1982C15.3145 11.4439 15.4872 11.0976 15.6335 10.7467C16.1057 9.61433 16.3894 8.41238 16.4735 7.18843C16.4996 6.80913 16.5 6.4221 16.5 5.5788V5.43994C16.5 4.74821 16.4931 4.55479 16.4544 4.41545C16.3371 3.99302 16.007 3.66294 15.5845 3.5456ZM14.6612 1.99995C15.2033 1.99958 15.6223 1.9993 15.986 2.10032C16.9154 2.35847 17.6415 3.08464 17.8997 4.014C18.0007 4.37769 18.0004 4.79668 18 5.33881C18 5.37205 18 5.40576 18 5.43994V5.61067C18 6.41402 18 6.8546 17.97 7.29126C17.8747 8.6784 17.5531 10.0406 17.018 11.3239C16.8496 11.7279 16.6525 12.122 16.2933 12.8405L16.279 12.869C16.2738 12.8795 16.2685 12.8901 16.2632 12.9007C16.2007 13.0262 16.1344 13.1592 16.0486 13.2774C15.7782 13.6502 15.3718 13.9015 14.9174 13.9766C14.7733 14.0004 14.6247 14.0002 14.4844 14C14.4726 14 14.4608 14 14.4491 14H12.5C12.2401 14 11.9987 13.8654 11.862 13.6443C11.7254 13.4232 11.7129 13.1471 11.8292 12.9146L13.2876 9.99775C13.0222 9.99467 12.7852 9.98741 12.5753 9.97026C12.1954 9.93922 11.8388 9.87211 11.5015 9.70027C10.9841 9.43661 10.5634 9.01592 10.2997 8.49847C10.1279 8.16121 10.0608 7.80455 10.0297 7.42467C9.99998 7.06044 9.99999 6.6146 10 6.08045V5.91955C9.99999 5.3854 9.99998 4.93956 10.0297 4.57533C10.0608 4.19544 10.1279 3.83879 10.2997 3.50152C10.5634 2.98408 10.9841 2.56338 11.5015 2.29973C11.8388 2.12789 12.1954 2.06078 12.5753 2.02974C12.9396 1.99998 13.3854 1.99999 13.9196 2L14.5601 2C14.5942 2 14.6279 1.99997 14.6612 1.99995Z" fill="#8040BF"></path></svg>