<svg xmlns:xlink="http://www.w3.org/1999/xlink" xmlns="http://www.w3.org/2000/svg" width="78" height="96" viewBox="0 0 78 96" fill="none">
<path d="M63.4245 30.8484C62.4441 30.5985 61.427 30.5262 60.4212 30.6347C59.3251 30.7237 58.0608 30.8147 57.0914 31.3727C57.0379 31.4024 56.9865 31.436 56.9351 31.4696C56.5809 31.0344 56.114 30.7 55.5125 30.7495C54.549 30.8326 54.092 31.8792 53.8823 32.6587C53.3421 34.6807 53.2887 36.9757 52.62 38.9582C51.7079 41.6271 50.6554 44.3871 49.8066 47.0699C48.1289 46.8404 46.1899 46.5832 44.4212 46.2785C43.7722 44.432 43.1048 42.5854 42.419 40.7388C40.5097 35.6185 38.6183 30.3676 36.2026 25.461C35.2252 23.4825 33.8897 21.6663 31.8499 20.7027C29.9704 19.8184 27.893 19.9588 26.2231 21.2053C24.116 22.7702 22.7707 25.4709 21.4035 27.6373C19.6889 30.3491 18.0401 33.1025 16.4573 35.8975C13.268 41.5361 5.64297 57.3679 5.05734 59.2316C4.4638 60.4187 3.97709 61.6434 4.00083 62.874C4.0404 64.987 5.78147 66.1543 7.68081 66.5481C8.72647 66.7543 9.78355 66.8977 10.8464 66.9774C10.7145 68.1487 10.5898 69.3232 10.4724 70.5011L10.1875 73.4312L8.53551 74.8003C7.84502 75.3741 7.10111 75.8212 6.95273 76.7669C6.87161 77.311 7.34842 77.7819 7.86283 77.8412C8.49392 77.9138 9.13238 77.8898 9.75623 77.77C9.55838 79.6318 9.36054 81.4935 9.4278 83.3651C9.3774 83.529 9.3858 83.7054 9.45155 83.8637C9.49507 84.3564 9.99761 84.6729 10.4724 84.669C11.343 84.9024 12.0829 84.1328 12.5815 83.2445C12.9139 84.2456 13.5707 85.2388 14.7578 85.0013C15.7787 84.8035 16.2476 83.5966 16.5958 82.6074C16.7759 83.3137 17.132 83.9587 17.8383 84.111C17.864 88.163 17.9036 91.0693 17.9036 91.0693C17.9036 91.0693 17.6899 91.0693 17.682 91.0852C16.4415 92.116 15.5215 93.2615 14.5165 94.5337C14.391 94.699 14.338 94.9083 14.3697 95.1134C14.4014 95.3186 14.5151 95.502 14.6846 95.6218C14.7865 95.8574 15.0216 96.007 15.2782 95.9997H39.3978C39.5975 96.0015 39.7874 95.9136 39.9154 95.7603C40.0434 95.6071 40.096 95.4045 40.0586 95.2083C40.0803 95.0132 40.0177 94.8182 39.8865 94.6722L36.8357 91.1109C37.3323 84.022 38.5589 76.4147 39.5146 69.2032C41.6909 69.1458 44.0077 69.0706 46.0791 68.481C48.3129 67.8479 49.7136 66.1781 49.6404 63.8059C49.5682 62.4723 49.3214 61.154 48.9064 59.8845V59.8845C51.52 60.0725 54.0781 60.4227 56.1417 58.4759C57.8412 56.8733 58.6524 54.5189 59.5585 52.4336L63.2959 43.8232C63.8657 42.5043 64.4368 41.1886 65.0092 39.8762C65.5395 38.6555 66.1508 37.4229 66.3942 36.1032C66.8532 33.7429 65.8264 31.5428 63.4245 30.8484Z" fill="#E5E4FF"/>
<path d="M24.1716 77.3075C24.1228 76.9836 23.8209 76.7605 23.497 76.8089L22.9944 76.8861C22.7002 76.5315 22.2407 76.3585 21.7856 76.431C18.1353 77.0246 14.3129 77.7151 11.0345 78.3897C11.0276 78.3322 11.0372 78.2739 11.0622 78.2216C11.2007 77.9525 11.8991 77.4025 15.0192 76.7417C15.3363 76.6706 15.5372 76.3578 15.4701 76.0398C15.4029 75.7219 15.0926 75.5171 14.7739 75.5803C11.8398 76.2035 10.4608 76.8109 10.0136 77.6775C9.86439 77.9731 9.8151 78.3091 9.87317 78.6351L9.39042 78.738C8.94349 78.834 8.57988 79.1578 8.43284 79.5907L7.92437 79.7015C7.62823 79.7666 7.42879 80.0444 7.46182 80.3458C7.49486 80.6472 7.74976 80.8753 8.05297 80.8747C8.09622 80.8749 8.13935 80.8702 8.18157 80.8609L8.60694 80.7679C8.8499 81.1108 9.24322 81.3155 9.66345 81.3179C9.75656 81.3177 9.8494 81.3078 9.94044 81.2882C13.5017 80.5206 17.9671 79.6876 22.207 79.007C22.7183 78.925 23.1328 78.5485 23.2635 78.0475L23.681 77.9822C24.0016 77.9295 24.2204 77.6288 24.1716 77.3075Z" fill="#00203F"/>
<path d="M73.7701 34.8331C73.6217 33.8934 73.2438 29.2637 72.4683 23.7932C71.8312 19.2961 71.0833 16.5085 70.5214 14.6487C69.9595 12.7889 69.5322 11.8432 68.4064 12.0213L51.4034 14.5933C50.8098 14.6883 50.6278 15.1255 50.6357 15.5825C50.6288 15.7158 50.6429 15.8493 50.6773 15.9782C52.0622 21.8682 52.7943 27.7621 53.645 33.6718C53.7123 33.3275 53.7855 32.9892 53.8745 32.6568C54.0842 31.8773 54.5413 30.8307 55.5048 30.7476C56.3595 30.6763 56.9471 31.3827 57.3151 32.0534C58.2925 33.834 58.146 36.2616 57.6593 38.1273C57.6178 38.2915 57.5703 38.43 57.5367 38.5566C57.7682 38.5388 57.9957 38.525 58.2113 38.5032C58.9078 38.432 59.5963 38.3687 60.3026 38.3054C61.6974 38.1867 63.0942 38.0858 64.4891 37.971C67.2491 37.772 69.9957 37.4166 72.7156 36.9066C73.5129 36.7542 73.9165 35.7749 73.7701 34.8331Z" fill="#ACDC79"/>
<path d="M58.7258 16.8572L62.9044 16.228" stroke="#00203F" stroke-width="1.28241" stroke-linecap="round" stroke-linejoin="round"/>
<path d="M54.8618 21.3599C59.1182 20.7004 63.3699 20.0145 67.6171 19.3022" stroke="#00203F" stroke-width="1.28241" stroke-linecap="round" stroke-linejoin="round"/>
<path d="M55.022 23.2731C57.4357 23.0476 59.8099 22.5193 62.1999 22.1157C64.2813 21.7649 66.3758 21.511 68.4835 21.354" stroke="#00203F" stroke-width="1.28241" stroke-linecap="round" stroke-linejoin="round"/>
<path d="M55.4216 24.9351L68.2184 23.1387" stroke="#00203F" stroke-width="1.28241" stroke-linecap="round" stroke-linejoin="round"/>
<path d="M55.8408 26.7689L65.0744 25.5818C66.4949 25.3958 67.9214 25.2118 69.2945 24.8022" stroke="#00203F" stroke-width="1.28241" stroke-linecap="round" stroke-linejoin="round"/>
<path d="M56.1714 28.8284C58.3042 28.3984 60.4555 28.0746 62.6252 27.8569" stroke="#00203F" stroke-width="1.28241" stroke-linecap="round" stroke-linejoin="round"/>
<path d="M63.9448 33.8479L69.443 32.9141" stroke="#00203F" stroke-width="1.28241" stroke-linecap="round" stroke-linejoin="round"/>
<path d="M28.1184 67.6187L27.5071 95.1729" stroke="#00203F" stroke-width="1.28241" stroke-linecap="round" stroke-linejoin="round"/>
<path d="M16.6555 83.0924C17.1462 84.0579 18.4896 84.5465 19.2493 83.773C20.009 82.9994 20.2643 81.8835 20.4582 80.8171C21.8154 73.3919 23.0302 65.9073 23.7959 58.397" stroke="#00203F" stroke-width="1.28241" stroke-linecap="round" stroke-linejoin="round"/>
<path d="M36.6794 40.0784C36.2458 39.5216 35.5712 39.2069 34.8659 39.2324C34.1607 39.2579 33.5105 39.6204 33.1182 40.207" stroke="#00203F" stroke-width="1.28241" stroke-linecap="round" stroke-linejoin="round"/>
<path d="M27.2123 39.9178C26.8735 39.4631 26.323 39.2168 25.7582 39.2672C25.1934 39.3177 24.6952 39.6576 24.4424 40.1651" stroke="#00203F" stroke-width="1.28241" stroke-linecap="round" stroke-linejoin="round"/>
<path d="M32.064 45.7942C31.2429 46.3877 29.0349 46.3165 28.2515 45.7012" stroke="#00203F" stroke-width="1.28241" stroke-linecap="round" stroke-linejoin="round"/>
<path d="M58.0115 38.8296C58.7435 39.249 59.4854 39.6744 60.0928 40.262C60.7002 40.8496 61.1671 41.6272 61.2107 42.47" stroke="#00203F" stroke-width="1.28241" stroke-linecap="round" stroke-linejoin="round"/>
</svg>