<svg xmlns:xlink="http://www.w3.org/1999/xlink" xmlns="http://www.w3.org/2000/svg" width="353" height="425" viewBox="0 0 353 425" fill="none">
<path d="M300.354 95.2673C295.399 94.0045 290.258 93.6387 285.174 94.1873C279.634 94.6373 273.244 95.0973 268.344 97.9173C268.074 98.0673 267.814 98.2373 267.554 98.4073C265.764 96.2073 263.404 94.5173 260.364 94.7673C255.494 95.1873 253.184 100.477 252.124 104.417C249.394 114.637 249.124 126.237 245.744 136.257C241.134 149.747 235.814 163.697 231.524 177.257C223.044 176.097 213.244 174.797 204.304 173.257C201.024 163.924 197.651 154.591 194.184 145.257C184.534 119.377 174.974 92.8373 162.764 68.0373C157.824 58.0373 151.074 48.8573 140.764 43.9873C131.264 39.5173 120.764 40.2273 112.324 46.5273C101.674 54.4373 94.8742 68.0873 87.9642 79.0373C79.2975 92.744 70.9642 106.661 62.9642 120.787C46.8442 149.287 8.30421 229.307 5.34421 238.727C2.34421 244.727 -0.115788 250.917 0.00421207 257.137C0.204212 267.817 9.00421 273.717 18.6042 275.707C23.8894 276.75 29.2323 277.474 34.6042 277.877C33.9375 283.797 33.3075 289.734 32.7142 295.687L31.2742 310.497L22.9242 317.417C19.4342 320.317 15.6742 322.577 14.9242 327.357C14.5142 330.107 16.9242 332.487 19.5242 332.787C22.714 333.154 25.941 333.033 29.0942 332.427C28.0942 341.837 27.0942 351.247 27.4342 360.707C27.1795 361.536 27.2219 362.427 27.5542 363.227C27.7742 365.717 30.3142 367.317 32.7142 367.297C37.1142 368.477 40.8542 364.587 43.3742 360.097C45.0542 365.157 48.3742 370.177 54.3742 368.977C59.5342 367.977 61.9042 361.877 63.6642 356.877C64.5742 360.447 66.3742 363.707 69.9442 364.477C70.0742 384.957 70.2742 399.647 70.2742 399.647C70.2742 399.647 69.1942 399.647 69.1542 399.727C62.8842 404.937 58.2342 410.727 53.1542 417.157C52.52 417.993 52.2524 419.051 52.4126 420.088C52.5729 421.125 53.1473 422.052 54.0042 422.657C54.5193 423.848 55.7076 424.604 57.0042 424.567H178.914C179.923 424.576 180.884 424.132 181.53 423.357C182.177 422.583 182.443 421.559 182.254 420.567C182.364 419.581 182.047 418.595 181.384 417.857L165.964 399.857C168.474 364.027 174.674 325.577 179.504 289.127C190.504 288.837 202.214 288.457 212.684 285.477C223.974 282.277 231.054 273.837 230.684 261.847C230.319 255.107 229.072 248.443 226.974 242.027V242.027C240.184 242.977 253.114 244.747 263.544 234.907C272.134 226.807 276.234 214.907 280.814 204.367L299.704 160.847C302.584 154.181 305.471 147.531 308.364 140.897C311.044 134.727 314.134 128.497 315.364 121.827C317.684 109.897 312.494 98.7773 300.354 95.2673Z" fill="#E5E4FF"/>
<path d="M101.954 330.088C101.708 328.451 100.182 327.323 98.5444 327.568L96.0044 327.958C94.5173 326.165 92.1945 325.291 89.8944 325.658C71.4444 328.658 52.1244 332.148 35.5544 335.558C35.5193 335.267 35.5679 334.972 35.6944 334.708C36.3944 333.348 39.9244 330.568 55.6944 327.228C57.2971 326.868 58.3128 325.287 57.9734 323.68C57.6339 322.073 56.0655 321.038 54.4544 321.358C39.6244 324.508 32.6544 327.578 30.3944 331.958C29.6401 333.452 29.3909 335.15 29.6844 336.798L27.2444 337.318C24.9855 337.803 23.1477 339.44 22.4044 341.628L19.8344 342.188C18.3377 342.517 17.3296 343.921 17.4966 345.445C17.6636 346.968 18.9519 348.121 20.4844 348.118C20.703 348.119 20.9211 348.095 21.1344 348.048L23.2844 347.578C24.5124 349.311 26.5004 350.346 28.6244 350.358C29.0951 350.357 29.5643 350.306 30.0244 350.208C48.0244 346.328 70.5944 342.118 92.0244 338.678C94.6086 338.263 96.7036 336.36 97.3644 333.828L99.4744 333.498C101.095 333.232 102.201 331.712 101.954 330.088Z" fill="#00203F"/>
<path d="M352.645 115.407C351.895 110.657 349.985 87.2575 346.065 59.6075C342.845 36.8775 339.065 22.7875 336.225 13.3875C333.385 3.98749 331.225 -0.792513 325.535 0.107487L239.595 13.1075C236.595 13.5875 235.675 15.7975 235.715 18.1075C235.68 18.781 235.751 19.4559 235.925 20.1075C242.925 49.8775 246.625 79.6675 250.925 109.537C251.265 107.797 251.635 106.087 252.085 104.407C253.145 100.467 255.455 95.1775 260.325 94.7575C264.645 94.3975 267.615 97.9675 269.475 101.357C274.415 110.357 273.675 122.627 271.215 132.057C271.005 132.887 270.765 133.587 270.595 134.227C271.765 134.137 272.915 134.067 274.005 133.957C277.525 133.597 281.005 133.277 284.575 132.957C291.625 132.357 298.685 131.847 305.735 131.267C319.685 130.262 333.568 128.465 347.315 125.887C351.345 125.117 353.385 120.167 352.645 115.407Z" fill="#E3D6BD"/>
<path d="M276.604 24.5477L297.724 21.3677" stroke="#00203F" stroke-width="6" stroke-linecap="round" stroke-linejoin="round"/>
<path d="M257.074 47.3077C278.588 43.9744 300.078 40.5077 321.544 36.9077" stroke="#00203F" stroke-width="6" stroke-linecap="round" stroke-linejoin="round"/>
<path d="M257.884 56.9773C270.084 55.8373 282.084 53.1673 294.164 51.1273C304.684 49.354 315.27 48.0707 325.924 47.2773" stroke="#00203F" stroke-width="6" stroke-linecap="round" stroke-linejoin="round"/>
<path d="M259.904 65.3774L324.584 56.2974" stroke="#00203F" stroke-width="6" stroke-linecap="round" stroke-linejoin="round"/>
<path d="M262.024 74.6475L308.694 68.6475C315.874 67.7075 323.084 66.7775 330.024 64.7075" stroke="#00203F" stroke-width="6" stroke-linecap="round" stroke-linejoin="round"/>
<path d="M263.694 85.0575C274.474 82.8841 285.348 81.2475 296.314 80.1475" stroke="#00203F" stroke-width="6" stroke-linecap="round" stroke-linejoin="round"/>
<path d="M302.984 110.428L330.774 105.708" stroke="#00203F" stroke-width="6" stroke-linecap="round" stroke-linejoin="round"/>
<path d="M121.904 281.118L118.814 420.388" stroke="#00203F" stroke-width="6" stroke-linecap="round" stroke-linejoin="round"/>
<path d="M63.9639 359.327C66.4439 364.207 73.2339 366.677 77.0739 362.767C80.9139 358.857 82.2039 353.217 83.1839 347.827C90.0439 310.297 96.1839 272.467 100.054 234.507" stroke="#00203F" stroke-width="6" stroke-linecap="round" stroke-linejoin="round"/>
<path d="M165.174 141.918C162.982 139.103 159.572 137.513 156.008 137.642C152.443 137.77 149.157 139.603 147.174 142.568" stroke="#00203F" stroke-width="6" stroke-linecap="round" stroke-linejoin="round"/>
<path d="M117.324 141.108C115.612 138.809 112.829 137.565 109.975 137.819C107.12 138.074 104.602 139.792 103.324 142.358" stroke="#00203F" stroke-width="6" stroke-linecap="round" stroke-linejoin="round"/>
<path d="M141.844 170.807C137.694 173.807 126.534 173.447 122.574 170.337" stroke="#00203F" stroke-width="6" stroke-linecap="round" stroke-linejoin="round"/>
<path d="M272.994 135.607C276.694 137.727 280.444 139.877 283.514 142.847C286.584 145.817 288.944 149.747 289.164 154.007" stroke="#00203F" stroke-width="6" stroke-linecap="round" stroke-linejoin="round"/>
</svg>