<svg xmlns:xlink="http://www.w3.org/1999/xlink" xmlns="http://www.w3.org/2000/svg" width="30" height="30" viewBox="0 0 30 30" fill="none">
<circle cx="15" cy="15" r="15" fill="#EBFBFF"/>
<path d="M17.8081 15.7257C17.3934 15.7257 17.0032 15.5131 16.7922 15.1728L15.2143 12.6543L13.6389 15.1728C13.4254 15.5154 13.0352 15.7281 12.6205 15.7281C12.5101 15.7281 12.3996 15.7139 12.2941 15.6832L8.93226 14.757V18.9625C8.93226 19.3098 9.17765 19.6123 9.52611 19.695L14.8315 20.9732C15.0818 21.0322 15.3443 21.0322 15.5922 20.9732L20.9025 19.695C21.2509 19.6099 21.4963 19.3075 21.4963 18.9625V14.757L18.1344 15.6808C18.0289 15.7115 17.9185 15.7257 17.8081 15.7257ZM23.0251 13.0748L21.7613 10.646C21.6853 10.4995 21.5208 10.4145 21.3515 10.4357L15.2143 11.1894L17.4645 14.783C17.5578 14.9319 17.7443 15.0027 17.9185 14.9555L22.7748 13.6206C23.0177 13.5521 23.1355 13.2922 23.0251 13.0748ZM8.66724 10.646L7.40347 13.0748C7.29059 13.2922 7.41083 13.5521 7.65132 13.6182L12.5076 14.9531C12.6818 15.0004 12.8683 14.9295 12.9616 14.7806L15.2143 11.1894L9.07459 10.4357C8.90527 10.4168 8.74331 10.4995 8.66724 10.646Z" fill="#4DDFFD"/>
</svg>