<?xml version="1.0" standalone="no"?>
<!DOCTYPE svg PUBLIC "-//W3C//DTD SVG 20010904//EN"
 "http://www.w3.org/TR/2001/REC-SVG-20010904/DTD/svg10.dtd">
<svg version="1.0" xmlns="http://www.w3.org/2000/svg"
 width="2222.000000pt" height="1340.000000pt" viewBox="0 0 2222.000000 1340.000000"
 preserveAspectRatio="xMidYMid meet">

<g transform="translate(0.000000,1340.000000) scale(0.100000,-0.100000)"
fill="#000000" stroke="none">
<path d="M11005 10093 c-199 -23 -405 -71 -524 -122 l-73 -31 -658 0 -659 0
-21 -27 c-25 -32 -20 -69 12 -95 19 -17 60 -18 541 -18 l520 0 -59 -41 c-82
-58 -208 -166 -276 -237 -60 -62 -70 -92 -47 -131 10 -15 5 -27 -30 -73 -40
-54 -43 -56 -80 -51 -34 5 -41 2 -67 -30 -42 -51 -136 -236 -179 -352 -77
-205 -125 -461 -125 -660 0 -105 23 -311 45 -410 103 -453 383 -872 759 -1134
l59 -41 -520 0 c-481 0 -522 -1 -541 -17 -32 -27 -37 -64 -12 -96 l21 -27 658
0 657 0 85 -34 c597 -241 1326 -127 1844 289 438 351 705 905 705 1465 0 511
-221 1018 -601 1376 -339 320 -827 509 -1296 503 -59 -1 -121 -4 -138 -6z
m460 -597 c245 -62 441 -172 615 -345 222 -220 340 -459 384 -781 12 -85 19
-108 36 -122 12 -10 29 -18 37 -18 11 0 13 -15 11 -72 -3 -71 -4 -73 -30 -76
-14 -2 -32 -9 -38 -16 -6 -8 -26 -74 -44 -147 -67 -265 -178 -462 -358 -635
-181 -174 -353 -271 -594 -335 -113 -31 -129 -32 -309 -33 -149 -1 -209 3
-275 17 -446 96 -813 411 -973 837 -58 155 -72 240 -72 450 0 210 14 295 72
450 159 424 541 752 968 834 44 8 89 17 100 20 11 3 99 3 195 1 148 -2 191 -7
275 -29z"/>
<path d="M11115 9335 c-23 -22 -25 -32 -25 -109 0 -79 2 -86 26 -105 15 -12
34 -21 44 -21 10 0 29 9 44 21 25 19 26 25 26 109 0 84 -1 90 -26 109 -35 27
-59 26 -89 -4z"/>
<path d="M10378 9039 c-36 -14 -53 -61 -34 -98 18 -33 96 -106 123 -115 49
-16 102 38 87 88 -11 37 -123 141 -146 135 -2 0 -15 -5 -30 -10z"/>
<path d="M11875 9032 c-37 -23 -101 -93 -109 -120 -16 -49 38 -101 88 -86 27
8 103 81 123 118 20 38 3 81 -39 95 -17 6 -31 11 -32 11 -1 0 -14 -8 -31 -18z"/>
<path d="M11110 8890 c-19 -19 -20 -33 -20 -360 0 -327 1 -341 20 -360 19 -19
33 -20 210 -20 177 0 191 1 210 20 11 11 20 33 20 50 0 17 -9 39 -20 50 -18
18 -33 20 -160 20 l-140 0 0 290 c0 277 -1 291 -20 310 -11 11 -33 20 -50 20
-17 0 -39 -9 -50 -20z"/>
<path d="M10041 8264 c-12 -15 -21 -34 -21 -44 0 -10 9 -29 21 -44 19 -25 25
-26 109 -26 84 0 90 1 109 26 12 15 21 34 21 44 0 10 -9 29 -21 44 -19 25 -25
26 -109 26 -84 0 -90 -1 -109 -26z"/>
<path d="M12061 8264 c-12 -15 -21 -34 -21 -44 0 -10 9 -29 21 -44 19 -25 25
-26 109 -26 84 0 90 1 109 26 12 15 21 34 21 44 0 10 -9 29 -21 44 -19 25 -25
26 -109 26 -84 0 -90 -1 -109 -26z"/>
<path d="M10455 7609 c-32 -18 -95 -82 -111 -111 -32 -61 33 -126 94 -94 15 8
47 35 72 60 35 37 44 53 44 81 0 19 -7 42 -14 49 -21 21 -62 28 -85 15z"/>
<path d="M11802 7610 c-26 -11 -45 -54 -36 -83 9 -27 82 -105 115 -123 37 -19
83 -2 99 36 15 36 -1 68 -62 127 -47 45 -80 57 -116 43z"/>
<path d="M11116 7319 c-24 -19 -26 -26 -26 -105 0 -77 2 -87 25 -109 30 -30
54 -31 89 -4 25 19 26 25 26 109 0 84 -1 90 -26 109 -15 12 -34 21 -44 21 -10
0 -29 -9 -44 -21z"/>
<path d="M8376 9389 c-31 -25 -34 -66 -7 -100 l19 -24 404 -3 c431 -2 440 -1
464 47 16 32 0 75 -32 90 -17 8 -147 11 -423 11 -388 0 -399 -1 -425 -21z"/>
<path d="M8816 8889 c-31 -25 -34 -66 -7 -100 18 -23 25 -24 178 -27 182 -4
225 4 242 46 14 34 2 76 -28 91 -12 7 -89 11 -189 11 -156 0 -171 -2 -196 -21z"/>
<path d="M8080 8537 c-53 -27 -49 -106 6 -128 17 -6 171 -9 416 -7 l390 3 19
24 c27 34 24 75 -7 100 -26 20 -37 21 -413 21 -290 0 -392 -3 -411 -13z"/>
<path d="M8080 8027 c-53 -27 -49 -106 6 -127 15 -6 182 -10 408 -10 373 0
384 1 410 21 31 25 34 66 7 100 l-19 24 -394 3 c-303 1 -399 -1 -418 -11z"/>
<path d="M8833 7670 c-48 -20 -58 -87 -17 -119 25 -19 40 -21 196 -21 100 0
177 4 189 11 51 27 43 109 -13 128 -37 13 -324 14 -355 1z"/>
<path d="M8393 7170 c-48 -20 -58 -87 -17 -119 26 -20 37 -21 425 -21 276 0
406 3 423 11 53 24 50 99 -4 126 -30 15 -790 18 -827 3z"/>
<path d="M14190 4040 l0 -330 50 0 50 0 0 330 0 330 -50 0 -50 0 0 -330z"/>
<path d="M9247 4339 c-34 -26 -36 -71 -5 -93 31 -22 64 -20 88 4 25 25 25 51
3 78 -28 31 -56 35 -86 11z"/>
<path d="M6923 4061 c-105 -36 -172 -114 -193 -226 -40 -213 91 -385 296 -386
81 -1 151 22 200 66 l39 35 -35 29 -34 29 -34 -30 c-43 -37 -72 -48 -128 -48
-82 0 -147 40 -187 115 -17 31 -22 58 -22 120 0 70 4 86 28 127 29 50 86 91
145 103 49 10 125 -12 161 -47 l31 -30 35 23 c19 13 35 27 35 31 0 3 -19 23
-42 42 -74 64 -192 83 -295 47z"/>
<path d="M7553 4062 c-74 -26 -119 -60 -157 -117 -41 -61 -56 -111 -56 -187 0
-114 65 -224 164 -276 46 -24 61 -27 156 -27 90 0 111 3 147 23 66 35 110 79
140 140 24 49 28 69 28 142 0 71 -4 94 -26 140 -14 30 -41 70 -60 89 -79 79
-228 111 -336 73z m174 -77 c132 -39 193 -203 126 -336 -38 -74 -93 -111 -172
-117 -105 -8 -175 32 -217 123 -63 135 -3 289 130 331 54 17 73 17 133 -1z"/>
<path d="M8350 4071 c-45 -14 -88 -40 -109 -67 l-21 -27 0 42 0 41 -51 0 c-48
0 -51 -1 -45 -22 3 -13 6 -148 6 -300 l0 -278 44 0 45 0 3 204 3 204 30 43
c46 64 77 83 138 83 65 0 100 -22 121 -75 13 -32 16 -81 16 -249 l0 -210 44 0
44 0 4 198 c3 182 5 201 27 245 55 113 207 128 266 27 18 -32 20 -56 23 -252
l4 -218 45 0 44 0 -3 233 c-3 220 -4 234 -26 280 -32 63 -89 97 -177 105 -56
4 -72 1 -119 -22 -31 -15 -65 -41 -77 -57 l-21 -31 -31 38 c-52 62 -146 89
-227 65z"/>
<path d="M9734 4064 c-22 -8 -57 -29 -76 -47 l-36 -33 -6 38 c-6 38 -7 38 -53
38 l-46 0 7 -52 c3 -29 6 -164 6 -300 l0 -248 44 0 45 0 3 204 3 204 30 43
c41 58 86 83 152 83 63 0 99 -22 128 -80 17 -34 20 -66 23 -246 l4 -208 45 0
45 0 -4 228 c-5 253 -13 291 -77 344 -56 48 -155 61 -237 32z"/>
<path d="M10425 4066 c-135 -43 -205 -136 -213 -282 -4 -73 -1 -88 23 -143 51
-114 146 -174 275 -175 95 -1 150 15 196 59 20 19 39 35 42 35 10 0 -10 -166
-24 -200 -34 -81 -101 -120 -209 -120 -80 0 -131 19 -188 70 -42 36 -55 35
-86 -8 l-21 -30 37 -32 c50 -45 106 -68 194 -80 138 -20 258 18 322 102 54 71
57 92 57 459 l0 339 -40 0 -40 0 0 -40 c0 -22 -3 -40 -6 -40 -3 0 -24 16 -47
35 -69 59 -180 80 -272 51z m200 -93 c79 -40 118 -108 119 -203 1 -111 -54
-185 -160 -216 -74 -21 -141 -6 -196 44 -56 51 -80 102 -79 173 0 165 171 275
316 202z"/>
<path d="M11476 4065 c-92 -32 -129 -87 -123 -177 5 -86 55 -130 177 -158 139
-32 183 -71 154 -139 -33 -78 -184 -82 -253 -7 -30 32 -38 32 -76 2 l-30 -24
21 -29 c35 -47 108 -78 194 -81 125 -6 205 29 236 105 18 42 18 117 0 151 -27
51 -68 73 -227 116 -73 21 -100 42 -101 84 -1 41 24 69 74 83 54 14 93 3 138
-38 l39 -34 35 23 c20 13 36 28 36 34 0 5 -15 25 -34 43 -57 56 -175 77 -260
46z"/>
<path d="M12115 4066 c-61 -19 -96 -41 -137 -83 -160 -166 -82 -465 136 -524
66 -18 194 -8 246 19 105 55 161 142 168 264 7 126 -38 223 -133 283 -83 53
-192 69 -280 41z m205 -99 c66 -34 103 -99 108 -189 5 -87 -15 -144 -67 -191
-49 -44 -99 -60 -171 -55 -112 8 -188 90 -197 212 -15 187 161 308 327 223z"/>
<path d="M12863 4062 c-74 -26 -119 -60 -157 -117 -41 -61 -56 -111 -56 -187
0 -114 65 -224 164 -276 46 -24 61 -27 156 -27 90 0 111 3 147 23 66 35 110
79 140 140 24 49 28 69 28 142 0 71 -4 94 -26 140 -14 30 -41 70 -60 89 -79
79 -228 111 -336 73z m174 -77 c132 -39 193 -203 126 -336 -38 -74 -93 -111
-172 -117 -105 -8 -175 32 -217 123 -63 135 -3 289 130 331 54 17 73 17 133
-1z"/>
<path d="M13634 4057 c-28 -14 -63 -38 -78 -53 l-26 -29 0 43 0 42 -51 0 c-48
0 -51 -1 -45 -22 3 -13 6 -148 6 -300 l0 -278 44 0 45 0 3 198 3 199 30 48
c37 60 83 88 144 89 66 1 104 -18 132 -67 23 -40 24 -52 27 -254 l4 -213 45 0
45 0 -4 233 c-3 220 -4 235 -26 280 -33 65 -90 98 -180 104 -56 3 -76 0 -118
-20z"/>
<path d="M9240 3760 l0 -300 45 0 45 0 0 300 0 300 -45 0 -45 0 0 -300z"/>
<path d="M14220 3593 c-43 -16 -66 -74 -42 -109 37 -56 132 -26 132 42 0 42
-52 80 -90 67z"/>
</g>
</svg>
