<svg xmlns:xlink="http://www.w3.org/1999/xlink" viewBox="0 0 20 20" xmlns="http://www.w3.org/2000/svg" width="20" height="20" fill="currentColor"><path fill-rule="evenodd" clip-rule="evenodd" d="M10.2363 4.77235C10.0802 4.74227 9.91967 4.74227 9.7635 4.77235C9.61205 4.80152 9.45447 4.87466 8.87792 5.17167L3.38762 8L8.87792 10.8283C9.45447 11.1254 9.61205 11.1985 9.7635 11.2277C9.91967 11.2577 10.0802 11.2577 10.2363 11.2277C10.3878 11.1985 10.5454 11.1254 11.1219 10.8283L16.6122 8L11.1219 5.17167C10.5454 4.87466 10.3878 4.80152 10.2363 4.77235ZM9.4798 3.29942C9.82338 3.23324 10.1764 3.23324 10.52 3.29942C10.9104 3.37462 11.2706 3.56049 11.7286 3.79684C11.755 3.81047 11.7818 3.82426 11.8088 3.83821L18.5934 7.33327C18.843 7.46188 18.9999 7.71918 18.9999 8C18.9999 8.28083 18.843 8.53813 18.5934 8.66673L11.8088 12.1618C11.7818 12.1757 11.755 12.1895 11.7286 12.2032C11.2706 12.4395 10.9104 12.6254 10.52 12.7006C10.1764 12.7668 9.82338 12.7668 9.4798 12.7006C9.08939 12.6254 8.7292 12.4395 8.27119 12.2032C8.24479 12.1895 8.21806 12.1757 8.19098 12.1618L1.40645 8.66673C1.1568 8.53813 0.999913 8.28083 0.999913 8C0.999913 7.71918 1.1568 7.46188 1.40645 7.33327L8.19099 3.83821C8.21806 3.82426 8.24478 3.81047 8.27118 3.79684C8.7292 3.56049 9.08938 3.37462 9.4798 3.29942ZM1.08318 11.6565C1.27287 11.2883 1.72515 11.1436 2.09338 11.3333L8.87792 14.8283C9.45447 15.1254 9.61205 15.1985 9.7635 15.2277C9.91967 15.2577 10.0802 15.2577 10.2363 15.2277C10.3878 15.1985 10.5454 15.1253 11.1219 14.8283L17.9064 11.3333C18.2747 11.1436 18.727 11.2883 18.9166 11.6565C19.1063 12.0248 18.9616 12.477 18.5934 12.6667L11.8088 16.1618C11.7818 16.1757 11.755 16.1895 11.7286 16.2032C11.2706 16.4395 10.9104 16.6254 10.52 16.7006C10.1764 16.7668 9.82338 16.7668 9.4798 16.7006C9.08938 16.6254 8.7292 16.4395 8.27118 16.2032C8.24478 16.1895 8.21806 16.1757 8.19098 16.1618L1.40645 12.6667C1.03822 12.477 0.89349 12.0248 1.08318 11.6565Z" fill="#3062D4"></path></svg>