<svg xmlns:xlink="http://www.w3.org/1999/xlink" xmlns="http://www.w3.org/2000/svg" width="48" height="48" viewBox="0 0 48 48" fill="none">
<rect width="48" height="48" rx="24" fill="#E0F2FE"/>
<path d="M15 19.8C15 18.1198 15 17.2798 15.327 16.638C15.6146 16.0735 16.0735 15.6146 16.638 15.327C17.2798 15 18.1198 15 19.8 15H28.2C29.8802 15 30.7202 15 31.362 15.327C31.9265 15.6146 32.3854 16.0735 32.673 16.638C33 17.2798 33 18.1198 33 19.8V25.2C33 26.8802 33 27.7202 32.673 28.362C32.3854 28.9265 31.9265 29.3854 31.362 29.673C30.7202 30 29.8802 30 28.2 30H25.6837C25.0597 30 24.7477 30 24.4492 30.0613C24.1844 30.1156 23.9282 30.2055 23.6875 30.3285C23.4162 30.4671 23.1725 30.662 22.6852 31.0518L20.2998 32.9602C19.8837 33.2931 19.6756 33.4595 19.5005 33.4597C19.3483 33.4599 19.2042 33.3906 19.1092 33.2716C19 33.1348 19 32.8684 19 32.3355V30C18.07 30 17.605 30 17.2235 29.8978C16.1883 29.6204 15.3796 28.8117 15.1022 27.7765C15 27.395 15 26.93 15 26V19.8Z" fill="#B9E6FE"/>
<path d="M22 20.0022C22.1762 19.5014 22.524 19.079 22.9817 18.81C23.4395 18.5409 23.9777 18.4426 24.501 18.5324C25.0243 18.6221 25.499 18.8942 25.8409 19.3004C26.1829 19.7066 26.37 20.2207 26.3692 20.7517C26.3692 22.2506 24.1209 23 24.1209 23" fill="#B9E6FE"/>
<path d="M22 20.0022C22.1762 19.5014 22.524 19.079 22.9817 18.81C23.4395 18.5409 23.9777 18.4426 24.501 18.5324C25.0243 18.6221 25.499 18.8942 25.8409 19.3004C26.1829 19.7066 26.37 20.2207 26.3692 20.7517C26.3692 22.2506 24.1209 23 24.1209 23M24.1499 26H24.1599M19 30V32.3355C19 32.8684 19 33.1348 19.1092 33.2716C19.2042 33.3906 19.3483 33.4599 19.5005 33.4597C19.6756 33.4595 19.8837 33.2931 20.2998 32.9602L22.6852 31.0518C23.1725 30.662 23.4162 30.4671 23.6875 30.3285C23.9282 30.2055 24.1844 30.1156 24.4492 30.0613C24.7477 30 25.0597 30 25.6837 30H28.2C29.8802 30 30.7202 30 31.362 29.673C31.9265 29.3854 32.3854 28.9265 32.673 28.362C33 27.7202 33 26.8802 33 25.2V19.8C33 18.1198 33 17.2798 32.673 16.638C32.3854 16.0735 31.9265 15.6146 31.362 15.327C30.7202 15 29.8802 15 28.2 15H19.8C18.1198 15 17.2798 15 16.638 15.327C16.0735 15.6146 15.6146 16.0735 15.327 16.638C15 17.2798 15 18.1198 15 19.8V26C15 26.93 15 27.395 15.1022 27.7765C15.3796 28.8117 16.1883 29.6204 17.2235 29.8978C17.605 30 18.07 30 19 30Z" stroke="#0086C9" stroke-width="2" stroke-linecap="round" stroke-linejoin="round"/>
</svg>