<svg xmlns:xlink="http://www.w3.org/1999/xlink" viewBox="0 0 18 18" xmlns="http://www.w3.org/2000/svg" width="20" height="20" fill="currentColor" class="group-hover:scale-110 transition-all duration-300 ease-out"><path fill-rule="evenodd" clip-rule="evenodd" d="M9 1.5C4.85786 1.5 1.5 4.85786 1.5 9C1.5 13.1421 4.85786 16.5 9 16.5C13.1421 16.5 16.5 13.1421 16.5 9C16.5 4.85786 13.1421 1.5 9 1.5ZM0 9C0 4.02944 4.02944 0 9 0C13.9706 0 18 4.02944 18 9C18 13.9706 13.9706 18 9 18C4.02944 18 0 13.9706 0 9ZM5 7.25C5 6.83579 5.33579 6.5 5.75 6.5H6.75C7.16421 6.5 7.5 6.83579 7.5 7.25C7.5 7.66421 7.16421 8 6.75 8H5.75C5.33579 8 5 7.66421 5 7.25ZM10.5 7.25C10.5 6.83579 10.8358 6.5 11.25 6.5H12.25C12.6642 6.5 13 6.83579 13 7.25C13 7.66421 12.6642 8 12.25 8H11.25C10.8358 8 10.5 7.66421 10.5 7.25ZM5.91459 11.0792C6.28507 10.8939 6.73558 11.0441 6.92082 11.4146C7.25581 12.0846 8.06287 12.5 9 12.5C9.93713 12.5 10.7442 12.0846 11.0792 11.4146C11.2644 11.0441 11.7149 10.8939 12.0854 11.0792C12.4559 11.2644 12.6061 11.7149 12.4208 12.0854C11.7558 13.4154 10.3129 14 9 14C7.68713 14 6.24419 13.4154 5.57918 12.0854C5.39394 11.7149 5.54411 11.2644 5.91459 11.0792Z" fill="#634ECA"></path></svg>