<svg xmlns:xlink="http://www.w3.org/1999/xlink" xmlns="http://www.w3.org/2000/svg" width="116" height="107" viewBox="0 0 116 107" fill="none">
<g id="laptop-button">
<path id="Path" d="M94.0696 38.8877C90.6046 39.038 86.6394 39.2867 83.1717 39.4343C82.8994 39.4354 82.6455 39.5716 82.494 39.7977C82.4502 39.7977 82.4092 39.7977 82.3655 39.7977L79.1327 39.9152C79.376 38.098 80.9008 36.7699 82.6852 36.0895C84.2265 35.4937 85.6611 35.1057 85.3988 33.037C85.3305 32.4905 84.8359 31.7909 84.3057 31.821C81.8244 31.9576 79.2366 32.1462 77.004 33.3431C74.7714 34.54 73.2848 36.6934 71.8255 38.6664C68.8032 42.7654 65.3299 45.3096 61.4413 48.6571C58.96 46.9218 57.1947 46.1102 55.3857 44.3203C55.2982 41.1613 55.1744 38.0023 55.014 34.8434C55.6678 34.8238 56.314 34.6973 56.9269 34.469C58.5665 35.5402 60.7964 35.5047 62.2311 34.0755C64.144 34.469 66.024 33.2557 66.6471 31.3892C67.1936 29.7715 66.6826 28.1592 65.7836 26.7929C66.0842 26.8448 66.3848 26.9022 66.6826 26.9705C68.2403 27.3257 69.6558 28.1401 71.1943 28.4817C72.3092 28.7303 73.4706 28.6402 73.9707 27.9351C74.4708 27.2301 74.4435 26.6098 73.6592 25.9293C68.1473 21.1526 60.9877 21.4368 54.3336 23.3141C54.0275 18.7724 53.6176 14.228 52.9017 9.77367C52.4344 6.86063 51.4397 4.03503 49.2043 1.99371C47.1548 0.127282 44.4577 -0.506702 41.8261 0.425145C38.525 1.59747 35.7486 4.52418 33.1525 6.74312C29.9006 9.5332 26.7198 12.9491 23.61 15.8922C20.3308 19.0102 9.94654 30.1978 2.69125 38.5024C0.822307 40.6399 0.0333281 43.5147 0.54935 46.3067C1.06537 49.0988 2.82974 51.5016 5.33923 52.8299C6.65638 53.5267 7.8779 54.1471 8.8562 54.598C6.4569 71.2564 4.78449 87.9559 3.79253 104.858C3.73241 105.885 3.45094 107 5.1862 107H22.5278C23.4897 107 23.8423 105.36 23.2028 104.797L20.1969 102.188C20.5084 88.4041 21.9786 74.6286 23.1536 60.8749C25.1075 61.6948 27.0696 62.5146 29.0508 63.2852L27.6407 81.2717C26.9985 89.4698 26.8701 96.7715 26.8209 105.019C26.8209 106.087 27.1106 107 28.3676 107H46.0044C47.0182 107 47.2095 105.691 46.4881 105.216C45.1874 104.351 43.9779 103.357 42.8782 102.248C42.859 101.679 42.9547 101.01 42.9574 100.794C42.9574 99.8895 42.9793 98.9823 42.9929 98.0778C43.0221 96.2687 43.0594 94.4597 43.105 92.6507C43.1924 89.0344 43.3108 85.4181 43.4602 81.8019C43.6424 77.1909 43.8838 72.5827 44.1844 67.9772C45.645 68.309 47.1336 68.5021 48.6305 68.5538C51.7293 68.6221 54.1724 67.0399 55.0168 63.9847C55.3739 62.5974 55.5683 61.1732 55.5961 59.7409C56.7525 60.7741 58.102 61.5681 59.5667 62.0773C63.1356 63.2551 66.106 61.8287 68.8852 59.6042C71.8558 57.1987 74.6233 54.5527 77.1597 51.6931C79.1082 49.5234 81.1905 47.1241 83.904 45.9818C86.5638 45.6795 89.201 45.2039 91.7988 44.5581C93.5887 44.1099 97.7424 43.6699 98.0839 41.2788C98.4583 38.7347 95.6218 38.8194 94.0696 38.8877Z" fill="#E5E4FF"/>
<path id="Path_2" d="M113.379 12.7359L90.195 14.8018C88.7767 14.9282 87.6596 16.065 87.5579 17.4853C87.5087 18.1931 87.4623 18.8516 87.4432 19.185L87.1016 24.828L86.4539 35.4855C80.023 36.1632 73.5784 36.7016 67.1202 37.1005C66.7616 37.1062 66.4484 37.3442 66.3468 37.6881C66.2558 37.8127 66.1874 37.9524 66.1446 38.1007C66.0331 38.4894 65.986 38.8937 66.0052 39.2976C65.9744 39.833 66.043 40.3694 66.2074 40.8798C66.1786 41.1628 66.2776 41.4439 66.4775 41.6464C66.6773 41.8489 66.957 41.9516 67.2404 41.9265C80.5759 40.8334 94.8406 39.3741 109.015 37.8629C110.04 37.7509 111.289 37.7946 112.193 37.2262C113.013 36.707 113.251 35.8599 113.396 34.9417C113.606 33.6109 113.729 32.2609 113.896 30.9219C114.398 26.9021 115.199 18.9883 115.595 14.9767C115.657 14.3698 115.445 13.767 115.016 13.3333C114.587 12.8996 113.987 12.6804 113.379 12.7359Z" fill="#E3D6BD"/>
<path id="Path_3" fill-rule="evenodd" clip-rule="evenodd" d="M98.6952 29.5582C97.6951 29.1705 97.1148 28.1236 97.316 27.07C97.5172 26.0165 98.4424 25.2571 99.515 25.2651C98.8537 25.5821 98.1923 24.5792 98.5066 23.9179C98.8209 23.2566 99.5997 22.9779 100.318 22.8249C101.094 22.6445 101.958 22.5215 102.652 22.9068C103.346 23.2921 103.671 24.388 103.059 24.8962L103.557 24.9345C104.279 25.6556 104.533 26.7222 104.215 27.6918C103.896 28.6613 103.058 29.3685 102.048 29.5199C102.048 29.5199 99.5505 29.8916 98.6952 29.5582Z" stroke="#00203F" stroke-width="2.11464" stroke-linecap="round" stroke-linejoin="round"/>
<path id="Path_4" d="M89.9598 40.3333C90.3915 41.0082 90.1264 42.0931 89.6018 42.6998C88.741 43.6863 85.1885 45.233 85.1885 45.233" stroke="#00203F" stroke-width="2.11464" stroke-linecap="round" stroke-linejoin="round"/>
<path id="Path_5" d="M94.2061 39.8551C94.78 40.7323 94.4001 41.9757 93.635 42.6944C92.8698 43.4131 91.8259 43.7328 90.8203 44.0307" stroke="#00203F" stroke-width="2.11464" stroke-linecap="round" stroke-linejoin="round"/>
<path id="Path_6" d="M32.9937 48.3728C39.2788 44.5197 45.5066 39.6582 51.3682 34.5262" stroke="#00203F" stroke-width="2.11464" stroke-linecap="round" stroke-linejoin="round"/>
<path id="Path_7" d="M50.1094 32.3675C50.5193 33.7338 51.309 34.2011 52.6945 34.5263C54.08 34.8515 55.1539 35.0728 56.5203 34.7559C57.3192 34.6185 58.0789 34.3099 58.7474 33.8513C59.3869 33.3567 59.8405 32.5342 59.6629 31.7417" stroke="#00203F" stroke-width="2.11464" stroke-linecap="round" stroke-linejoin="round"/>
<path id="Path_8" d="M62.75 27.9379C64.238 29.6503 64.2658 32.1888 62.8156 33.9334" stroke="#00203F" stroke-width="2.11464" stroke-linecap="round" stroke-linejoin="round"/>
<path id="Path_9" d="M64.21 25.2079C65.0649 25.7597 65.7194 26.5723 66.0764 27.5252" stroke="#00203F" stroke-width="2.11464" stroke-linecap="round" stroke-linejoin="round"/>
<path id="Path_10" d="M31.395 33.9306C34.8382 32.291 38.1147 30.4219 41.6699 28.7194C45.5094 26.8803 49.5947 25.3035 53.5517 23.7568" stroke="#00203F" stroke-width="2.11464" stroke-linecap="round" stroke-linejoin="round"/>
<path id="Path_11" d="M48.8246 17.3488L48.4912 18.8162" stroke="#00203F" stroke-width="2.11464" stroke-linecap="round" stroke-linejoin="round"/>
<path id="Path_12" d="M41.6291 16.343L41.293 17.8077" stroke="#00203F" stroke-width="2.11464" stroke-linecap="round" stroke-linejoin="round"/>
<path id="Oval" fill-rule="evenodd" clip-rule="evenodd" d="M45.7651 25.4669C46.1639 24.2762 45.8086 23.0837 44.9714 22.8032C44.1342 22.5228 43.1323 23.2607 42.7334 24.4513C42.3346 25.642 42.6899 26.8345 43.5271 27.115C44.3642 27.3954 45.3662 26.6575 45.7651 25.4669Z" stroke="#00203F" stroke-width="2.11464" stroke-linecap="round" stroke-linejoin="round"/>
</g>
</svg>