<svg xmlns:xlink="http://www.w3.org/1999/xlink" xmlns="http://www.w3.org/2000/svg" width="48" height="48" viewBox="0 0 48 48" fill="none">
<rect width="48" height="48" rx="24" fill="#E0F2FE"/>
<path d="M16 16H32C33.1 16 34 16.9 34 18L24 25C24 25 14 19.1 14 18C14 16.9 14.9 16 16 16Z" fill="#B9E6FE" stroke="#0086C9" stroke-width="2" stroke-linecap="round" stroke-linejoin="round"/>
<path d="M34 18C34 16.9 33.1 16 32 16H16C14.9 16 14 16.9 14 18M34 18V30C34 31.1 33.1 32 32 32H16C14.9 32 14 31.1 14 30V18M34 18L24 25L14 18" stroke="#0086C9" stroke-width="2" stroke-linecap="round" stroke-linejoin="round"/>
</svg>