<svg xmlns:xlink="http://www.w3.org/1999/xlink" xmlns="http://www.w3.org/2000/svg" width="48" height="48" viewBox="0 0 48 48" fill="none">
<rect width="48" height="48" rx="24" fill="#FFE4E8"/>
<g clip-path="url(#clip0_12619_252975)">
<path d="M37 24C37 21.0185 35.9963 18.2713 34.3083 16.0781C31.9315 12.99 28.1982 11 24 11C16.8203 11 11 16.8203 11 24C11 30.4886 15.7539 35.8668 21.9688 36.8421V27.7578H18.668V24H21.9688V21.1359C21.9688 17.8778 23.9096 16.0781 26.879 16.0781C28.3009 16.0781 29.7891 16.332 29.7891 16.332V19.5312H28.1498C26.535 19.5312 26.0313 20.5334 26.0313 21.5625V24H29.6367L29.0604 27.7578H26.0313V36.8421C32.2461 35.8668 37 30.4886 37 24Z" fill="#1877F2"/>
<path d="M29.0604 27.7578L29.6367 24H26.0313V21.5625C26.0313 20.5344 26.535 19.5313 28.1498 19.5313H29.7891V16.332C29.7891 16.332 28.3014 16.0781 26.879 16.0781C23.9096 16.0781 21.9688 17.8778 21.9688 21.1359V24H18.668V27.7578H21.9688V36.8421C23.3147 37.0526 24.6853 37.0526 26.0313 36.8421V27.7578H29.0604Z" fill="white"/>
</g>
<defs>
<clipPath id="clip0_12619_252975">
<rect width="26" height="26" fill="white" transform="translate(11 11)"/>
</clipPath>
</defs>
</svg>