<svg xmlns:xlink="http://www.w3.org/1999/xlink" viewBox="0 0 18 18" xmlns="http://www.w3.org/2000/svg" width="20" height="20" fill="currentColor" class="group-hover:scale-110 transition-all duration-300 ease-out"><path fill-rule="evenodd" clip-rule="evenodd" d="M9 1.5C4.85786 1.5 1.5 4.85786 1.5 9C1.5 13.1421 4.85786 16.5 9 16.5C13.1421 16.5 16.5 13.1421 16.5 9C16.5 4.85786 13.1421 1.5 9 1.5ZM0 9C0 4.02944 4.02944 0 9 0C13.9706 0 18 4.02944 18 9C18 13.9706 13.9706 18 9 18C4.02944 18 0 13.9706 0 9ZM9 5.5C8.17157 5.5 7.5 6.17157 7.5 7C7.5 7.41421 7.16421 7.75 6.75 7.75C6.33579 7.75 6 7.41421 6 7C6 5.34315 7.34315 4 9 4C10.6569 4 12 5.34315 12 7C12 8.39788 11.0439 9.57246 9.75 9.90549V10.25C9.75 10.6642 9.41421 11 9 11C8.58579 11 8.25 10.6642 8.25 10.25V9.25C8.25 8.83579 8.58579 8.5 9 8.5C9.82843 8.5 10.5 7.82843 10.5 7C10.5 6.17157 9.82843 5.5 9 5.5ZM9 12C9.41421 12 9.75 12.3358 9.75 12.75V13.25C9.75 13.6642 9.41421 14 9 14C8.58579 14 8.25 13.6642 8.25 13.25V12.75C8.25 12.3358 8.58579 12 9 12Z" fill="#0870BA"></path></svg>