<svg xmlns:xlink="http://www.w3.org/1999/xlink" viewBox="0 0 48 48" xmlns="http://www.w3.org/2000/svg" width="40" height="40" fill="currentColor" class="group-hover:scale-110 transition-all duration-300 ease-out"><path d="M26.9116 18.9465C27.9059 17.21 27.3158 14.9896 25.5936 13.987C23.8713 12.9845 21.6691 13.5794 20.6747 15.3159L13.2389 28.3014C12.2445 30.0379 12.8346 32.2583 14.5569 33.2609C16.2791 34.2634 18.4814 33.6685 19.4757 31.932L26.9116 18.9465Z" fill="#F8BB2D"></path><path d="M19.9537 30.1184C19.9537 32.1241 18.3411 33.75 16.3519 33.75C14.3626 33.75 12.75 32.1241 12.75 30.1184C12.75 28.1127 14.3626 26.4868 16.3519 26.4868C18.3411 26.4868 19.9537 28.1127 19.9537 30.1184Z" fill="#3BA757"></path><path d="M20.6847 18.9465C19.6903 17.21 20.2804 14.9896 22.0027 13.987C23.7249 12.9845 25.9272 13.5794 26.9215 15.3159L34.3574 28.3014C35.3517 30.0379 34.7616 32.2583 33.0394 33.2609C31.3171 34.2634 29.1149 33.6685 28.1205 31.932L20.6847 18.9465Z" fill="#4689F2"></path></svg>