<svg xmlns:xlink="http://www.w3.org/1999/xlink" xmlns="http://www.w3.org/2000/svg" width="78" height="96" viewBox="0 0 78 96" fill="none">
<path d="M77.3612 61.434C77.327 60.5024 77.2904 59.5366 77.2904 57.6391C77.2904 55.7417 77.2539 54.7457 77.2196 53.8013C77.1854 52.8569 77.1511 51.9039 77.1511 50.0064C77.1511 48.109 77.1511 47.1302 77.1671 46.1944C77.1831 45.2586 77.1831 44.2819 77.1831 42.3716C77.1831 40.4613 77.2014 39.5018 77.2173 38.566C77.2333 37.6302 77.2539 36.6514 77.2539 34.7389C77.2539 32.8265 77.2059 31.8391 77.1625 30.8925C77.1191 29.946 77.0735 28.9994 77.0735 27.1062C77.0735 25.2131 77.0735 24.2429 77.0735 23.2899V19.4714C77.0735 17.5611 77.0735 16.6059 77.0598 15.6508C77.0461 14.6956 77.0438 13.7448 77.0438 11.8366C77.0438 7.51369 73.5543 4.12879 69.1011 4.12879C67.0618 4.12879 66.025 4.17386 65.0225 4.21679C64.0199 4.25972 63.0128 4.30265 61.0055 4.30265C58.9981 4.30265 58.0367 4.22967 57.0113 4.1524C55.986 4.07512 54.956 4 52.9007 4C50.8454 4 49.8383 4.01932 48.838 4.03649C47.8378 4.05366 46.8215 4.07298 44.8051 4.07298C42.7886 4.07298 41.7198 4.13308 40.715 4.19103C39.7102 4.24899 38.7122 4.30479 36.7094 4.30479C34.7066 4.30479 33.7406 4.2404 32.713 4.16957C31.6853 4.09874 30.6576 4.03005 28.616 4.03005C24.14 4.03005 20.4998 7.53301 20.4998 11.8366C20.4998 13.7555 20.5272 14.73 20.5546 15.6723C20.582 16.6145 20.6094 17.574 20.6094 19.4736C20.6094 21.3732 20.6094 22.339 20.6254 23.2942C20.6414 24.2494 20.6391 25.2024 20.6391 27.1084C20.6391 29.0144 20.6391 29.9696 20.6391 30.9247C20.6391 31.8799 20.6391 32.8329 20.6391 34.7432C20.6391 36.6535 20.6551 37.628 20.6711 38.5703C20.6871 39.5126 20.7008 40.4742 20.7008 42.3781C20.7008 44.2819 20.6802 45.2457 20.6597 46.1815C20.6391 47.1174 20.6186 48.0961 20.6186 50.0107C20.6186 51.9253 20.5889 52.8762 20.5592 53.8099C20.5295 54.7436 20.4998 55.7267 20.4998 57.6456C20.4998 59.5645 20.4793 60.5132 20.4587 61.449C20.4382 62.3849 20.4176 63.3636 20.4176 65.2782C20.4176 67.1929 20.3925 68.1459 20.3674 69.0796C20.3423 70.0133 20.3171 70.9963 20.3171 72.9109C20.3171 74.8255 20.3171 75.7764 20.3286 76.7316C20.34 77.6867 20.3286 78.6397 20.3286 80.5458C20.3286 82.4518 20.3925 83.4542 20.4542 84.4093C20.5158 85.3645 20.5775 86.2982 20.5775 88.187C20.5775 92.4112 24.1834 95.8498 28.6138 95.8498C30.6394 95.8498 31.6716 95.8498 32.6673 95.8326C33.663 95.8154 34.6883 95.8133 36.7094 95.8133C38.7305 95.8133 39.7444 95.8455 40.7332 95.8777C41.7221 95.9098 42.768 95.9421 44.8051 95.9421C46.8421 95.9421 47.8492 95.9571 48.8426 95.97C49.836 95.9828 50.8705 96 52.8984 96C54.9263 96 55.9677 95.9678 56.9679 95.9399C57.9682 95.912 58.9821 95.8798 60.9941 95.8798C63.006 95.8798 64.0565 95.8605 65.0545 95.8433C66.0524 95.8261 67.0709 95.8068 69.0897 95.8068C73.6571 95.8068 77.3658 92.3897 77.3658 88.187C77.3658 86.2552 77.3133 85.2829 77.263 84.3363C77.2128 83.3898 77.1602 82.4432 77.1602 80.55C77.1602 78.6569 77.2196 77.6996 77.2744 76.7702C77.3292 75.8408 77.3909 74.8384 77.3909 72.9066C77.3909 70.9749 77.3909 70.0326 77.4046 69.0946C77.4183 68.1566 77.4206 67.1843 77.4206 65.2718C77.4206 63.3593 77.4023 62.3784 77.3612 61.434Z" fill="#F7B27A"/>
<path d="M24.5472 25.8432C24.6355 25.6709 24.6964 25.4858 24.7277 25.2948C24.8453 24.6571 24.5767 24.0098 24.0422 23.6427C22.8425 22.8338 20.8888 23.549 19.7828 24.198C16.7163 25.9963 16.273 29.1908 16.746 32.3396C16.7117 34.1789 16.788 36.0187 16.9745 37.8488C17.1505 39.59 17.7583 40.6023 18.3273 41.1187C18.9029 41.554 19.6157 41.768 20.3358 41.722C20.3495 40.9314 20.3587 39.9854 20.3587 38.5115C20.3587 37.3393 20.3587 36.5029 20.3587 35.8106C21.2224 35.333 22.0748 34.8371 22.9111 34.3116C23.6926 33.8203 24.6957 33.3084 25.0522 32.399C25.4566 31.3707 24.979 30.6189 24.2296 30.2785L24.7802 29.9197C25.5526 29.4079 26.3387 28.816 26.4712 27.8312C26.6608 26.339 25.7034 25.8729 24.5472 25.8432Z" fill="#E5E4FF"/>
<path d="M25.13 67.3351C24.9032 66.594 24.2116 66.0938 23.4368 66.1103C23.6653 65.9413 23.8435 65.1369 23.7589 64.769C23.3705 63.0758 21.3117 63.398 20.0709 63.855C20.0709 63.5625 20.0709 63.2472 20.0709 62.8999C20.0709 60.8616 20.0914 59.8242 20.112 58.8233C20.1326 57.8225 20.1531 56.7988 20.1531 54.7742C20.1531 52.7497 20.1828 51.694 20.2126 50.6908C20.2423 49.6877 20.272 48.6686 20.272 46.6463C20.272 45.5495 20.272 44.7429 20.288 44.0733C18.4904 43.7214 16.7088 43.2987 14.9432 42.8051C13.2797 42.3481 11.6413 41.8043 10.0121 41.2284C8.45369 40.6755 6.83359 40.0859 5.15408 40.1408C2.52855 40.2185 0.195519 41.8568 0.0127146 44.608C-0.0809724 46.0362 0.360042 47.4506 0.778206 48.7965C1.33576 50.5956 1.91845 52.3863 2.52627 54.1687C4.93499 61.2417 7.69728 68.1894 10.8027 74.9855C10.8027 75.2551 10.7913 75.4996 10.773 75.6984C10.5308 78.3514 10.3754 81.2237 11.1683 83.808C11.8036 85.8829 13.2431 87.5555 15.4916 87.8183C16.8078 87.9737 18.9855 87.7406 20.2423 86.7786C20.2423 85.0945 20.176 84.1599 20.1189 83.2596C20.0572 82.2496 19.9932 81.2031 19.9932 79.1466C19.9932 77.4031 19.9932 76.4045 19.9932 75.5202C21.0786 73.8612 23.3431 73.0272 23.9692 72.1817C24.6912 71.206 24.0263 70.2646 22.9043 69.8967C24.3119 69.3186 25.3539 68.2583 25.13 67.3351Z" fill="#E5E4FF"/>
<path d="M37 91L60.1041 91.2536" stroke="#00203F" stroke-width="1.37103" stroke-linecap="round" stroke-linejoin="round"/>
<path d="M10.4326 54.8727C12.1331 55.4265 13.9998 55.0271 15.3249 53.8262" stroke="#00203F" stroke-width="1.37103" stroke-linecap="round" stroke-linejoin="round"/>
<path d="M10.3184 48.6436L11.8242 49.9575" stroke="#00203F" stroke-width="1.37103" stroke-linecap="round" stroke-linejoin="round"/>
<path d="M14.4363 46.3242L15.9421 47.6381" stroke="#00203F" stroke-width="1.37103" stroke-linecap="round" stroke-linejoin="round"/>
<path d="M13.4399 81.4131L14.7241 70.157C14.7796 69.401 14.923 68.6541 15.1514 67.9313C15.837 66.0233 17.665 64.7049 19.5867 64.0879" stroke="#00203F" stroke-width="1.37103" stroke-linecap="round" stroke-linejoin="round"/>
<path d="M22.749 66.1104C21.2432 66.3754 20.0641 67.1021 18.8347 68.0115" stroke="#00203F" stroke-width="1.37103" stroke-linecap="round" stroke-linejoin="round"/>
<path d="M22.5616 69.6797C21.3446 70.1815 20.2039 70.8515 19.1729 71.67" stroke="#00203F" stroke-width="1.37103" stroke-linecap="round" stroke-linejoin="round"/>
<path d="M18.8323 32.6391C20.1554 31.3717 21.8259 30.5269 23.6309 30.2124" stroke="#00203F" stroke-width="1.37103" stroke-linecap="round" stroke-linejoin="round"/>
<path d="M19.4263 27.8086C20.7067 26.6686 22.2977 25.9359 23.9964 25.7041" stroke="#00203F" stroke-width="1.37103" stroke-linecap="round" stroke-linejoin="round"/>
<path d="M36.1792 67.5335C36.1792 66.3185 37.1642 65.3335 38.3792 65.3335H68.8758C70.0908 65.3335 71.0758 66.3185 71.0758 67.5335V74.8507H38.3792C37.1642 74.8507 36.1792 73.8658 36.1792 72.6507V67.5335Z" fill="#C7D7FE"/>
<rect x="40.4128" y="68.4492" width="27.8776" height="2.9794" rx="1.4897" fill="#8098F9"/>
<path d="M29.8342 31.5794C29.8342 30.3644 30.8192 29.3794 32.0342 29.3794H62.5308C63.7458 29.3794 64.7308 30.3644 64.7308 31.5794V56.7886C64.7308 58.0036 63.7458 58.9886 62.5308 58.9886H29.8342V31.5794Z" fill="#F9DBAF"/>
<rect x="32.468" y="39.4556" width="25.364" height="2.9794" rx="1.4897" fill="#F7B27A"/>
<rect x="32.468" y="45.4146" width="27.8776" height="2.9794" rx="1.4897" fill="#F7B27A"/>
<rect x="32.468" y="51.373" width="19.8799" height="2.9794" rx="1.4897" fill="#F7B27A"/>
<rect x="31.9492" y="33.6094" width="19.8799" height="2.9794" rx="1.4897" fill="#F7B27A"/>
<path d="M61.4962 6C61.6369 7.09569 61.6369 8.48128 60.6436 8.98436C60.2587 9.14416 59.8421 9.21274 59.4264 9.18474L37.9901 9.39791C37.3506 9.39791 36.6962 9.39791 36.127 9.12505C35.5579 8.8522 34.9333 7.82686 35.0058 6.0405" stroke="#00203F" stroke-width="1.49487" stroke-linecap="round" stroke-linejoin="round"/>
<path d="M71.8416 74.8477L71.0733 72.9998V74.8477H71.8416Z" fill="#C7D7FE"/>
<path d="M29.0679 59L29.8361 57.1521V59H29.0679Z" fill="#F9DBAF"/>
</svg>