<svg xmlns:xlink="http://www.w3.org/1999/xlink" xmlns="http://www.w3.org/2000/svg" width="124" height="96" viewBox="0 0 124 96" fill="none">
<path d="M89.5005 50.5948C89.8946 50.7463 90.3228 50.7356 90.7088 50.5649C91.085 50.3985 91.3775 50.0988 91.5359 49.7195C91.9247 48.9584 97.2984 38.4171 99.2326 33.4178C100.886 29.1413 101.878 24.8843 102.161 23.5923C102.912 23.2266 104.486 22.1374 105.247 19.2186C106.089 15.9967 102.266 13.6767 102.102 13.579L100.936 12.8852L101.02 14.2415C101.089 15.3632 100.889 16.7817 100.518 17.0005C99.2274 17.76 98.3974 18.4153 97.9718 19.5155C97.5739 20.5457 97.9795 21.5526 98.2945 22.1104C97.6279 23.2684 95.5063 27.0759 93.8568 31.3404C91.9238 36.339 88.8077 47.7558 88.5833 48.579C88.2949 49.3875 88.6998 50.2852 89.5007 50.5947L89.5005 50.5948Z" fill="#00203F"/>
<path d="M89.5005 50.5948C89.8946 50.7463 90.3228 50.7356 90.7088 50.5649C91.085 50.3985 91.3775 50.0988 91.5359 49.7195C88.5833 46.6012 96.3604 28.5916 98.2945 23.5923C99.9481 19.3158 101.878 24.8843 102.161 23.5923C102.912 23.2266 104.486 22.1374 105.247 19.2186C106.089 15.9967 102.266 13.6767 102.102 13.579L100.936 12.8852L101.02 14.2415C101.089 15.3632 100.889 16.7817 100.518 17.0005C99.2274 17.76 98.3974 18.4153 97.9718 19.5155C97.5739 20.5457 97.9795 21.5526 98.2945 22.1104C97.6279 23.2684 95.5063 27.0759 93.8568 31.3404C91.9238 36.339 88.8077 47.7558 88.5833 48.579C88.2949 49.3875 88.6998 50.2852 89.5007 50.5947L89.5005 50.5948Z" fill="#FD6F8E"/>
<path d="M89.5005 50.5948C89.8946 50.7463 90.3228 50.7356 90.7088 50.5649C91.085 50.3985 91.3775 50.0988 91.5359 49.7195C91.9247 48.9584 97.2984 38.4171 99.2326 33.4178C100.886 29.1413 101.878 24.8843 102.161 23.5923C102.912 23.2266 104.486 22.1374 105.247 19.2186C106.089 15.9967 102.266 13.6767 102.102 13.579L100.936 12.8852L101.02 14.2415C101.089 15.3632 100.889 16.7817 100.518 17.0005C99.2274 17.76 98.3974 18.4153 97.9718 19.5155C97.5739 20.5457 97.9795 21.5526 98.2945 22.1104C97.6279 23.2684 95.5063 27.0759 93.8568 31.3404C91.9238 36.339 88.8077 47.7558 88.5833 48.579C88.2949 49.3875 88.6998 50.2852 89.5007 50.5947L89.5005 50.5948ZM101.581 22.2797L99.6103 21.5178C99.4341 21.2365 99.0951 20.5871 99.3093 20.0326C99.5546 19.3969 100.043 18.9438 101.245 18.2366C102.05 17.7623 102.339 16.616 102.432 15.626C103.254 16.3716 104.199 17.5553 103.86 18.8579C103.251 21.189 102.073 22.0248 101.581 22.2797ZM89.9359 49.0559L89.9591 48.9851C89.9923 48.8643 93.2581 36.8637 95.1945 31.8573C96.7334 27.8773 98.6922 24.3082 99.4329 23.0073L100.712 23.502C100.385 24.9639 99.4318 28.9256 97.8953 32.9016C95.9578 37.9088 90.3012 48.9839 90.2442 49.0953L90.2138 49.1632C90.1752 49.2639 90.1137 49.2942 90.017 49.2572C89.9409 49.228 89.9045 49.1376 89.9357 49.0564L89.9359 49.0559Z" fill="#00203F"/>
<path d="M98.3812 36.9421C98.9087 36.7232 99.1188 35.8477 98.449 35.5194C98.0453 35.3227 97.6782 36.7427 97.6782 35.8914C97.6782 37.7934 94.7275 37.462 94.6275 37.4235C92.3433 36.5171 93.1913 35.0159 93.0819 32.9366C91.8496 32.663 87.4112 32.2013 86.1593 32.0437C85.3385 31.9386 84.4914 31.8358 83.8348 32.4399C83.2592 32.9695 83.106 33.7684 82.9856 34.506C82.7776 35.7755 82.5982 37.0494 82.4231 38.3232C82.1166 40.5543 81.8525 42.7897 81.6307 45.0295C78.6365 45.0405 75.325 44.5239 73.0596 44.0533C72.778 40.2989 72.4329 36.551 72.0243 32.8098C71.3677 26.8017 70.7702 20.6557 69.5117 14.7373C69.0039 12.3472 68.0627 10.0403 66.1301 8.45123C64.3572 6.99134 62.0984 6.57986 59.96 7.45973C57.2766 8.5541 55.101 11.0974 53.0436 13.0476C50.4696 15.4902 47.9555 17.9949 45.5011 20.5615C41.8241 24.4094 38.9349 27.8895 36.0589 31.4571C34.1832 30.7239 31.9003 29.8659 30.3375 29.3975C27.4922 28.5417 24.6796 27.7472 21.6986 27.9704C18.8948 28.1893 17.0387 30.5969 15.789 32.9236C14.5472 35.2086 13.4215 37.5498 12.4117 39.9472C11.7288 40.1986 11.1147 40.6072 10.6191 41.1401C9.62041 40.9846 8.6116 40.9026 7.60086 40.895C6.74725 40.895 6.06874 41.1138 5.52593 41.8077C5.42367 41.9552 5.37855 42.1349 5.39899 42.3133H5.18011C4.74577 42.3015 4.37875 42.6329 4.3462 43.0662C4.31733 43.3128 4.42674 43.5551 4.63074 43.6966C4.38658 43.8015 4.19328 43.9979 4.09231 44.2438C3.93253 44.5961 3.93034 45.279 4.49503 45.5176C6.97488 46.5638 9.56635 47.3211 12.1009 48.2229C13.401 48.6869 15.1411 48.9758 16.2595 48.5381C17.378 48.1003 18.6671 46.3712 19.0743 45.6796C20.5298 43.2719 21.762 40.7264 23.2329 38.3232C24.9138 39.1987 26.6035 40.0545 28.2845 40.9322C27.8467 41.44 27.409 41.9565 26.945 42.4796C25.9819 43.574 25.1327 44.7712 24.8219 46.0976C24.2922 48.3761 25.8484 50.1008 27.7701 51.0376C29.81 52.0335 32.0557 52.6814 34.2226 53.4212L32.1673 57.3434C31.2437 59.1097 30.5433 61.8588 28.9433 62.6883C27.3433 63.5178 24.7847 63.0385 23.0337 62.8218C20.8449 62.5504 19.7637 62.2527 17.5815 61.9682C17.3278 61.9259 17.0724 62.0332 16.9249 62.244C16.7321 62.2761 16.5636 62.3924 16.4653 62.5613C14.3203 65.9437 12.1761 69.326 10.0326 72.7084C9.83545 72.9885 9.84697 73.3651 10.0608 73.6327C10.2747 73.9003 10.6395 73.9945 10.9562 73.864L14.1583 72.6383C15.1389 72.264 16.1785 71.7803 17.2226 72.1874C17.2816 72.2175 17.3441 72.2403 17.4086 72.2553C20.7049 73.0345 22.5762 73.8531 26.249 74.1595C29.9217 74.4659 35.2534 73.365 37.3853 71.6315C39.6069 69.8258 41.406 67.0351 42.7477 64.5487C43.9184 62.3692 44.9563 60.1209 45.8557 57.8162C47.9394 58.5953 50.0318 59.3483 52.144 60.0443C54.3327 63.7148 56.2238 66.8294 58.4476 70.8654C59.0823 72.0167 59.6273 74.223 59.2311 76.0593C58.835 77.8957 56.5105 87.0928 54.6085 92.1444C54.5306 92.3329 54.5447 92.547 54.6468 92.7236C54.7488 92.9003 54.9272 93.0195 55.1294 93.0462C55.2668 93.1898 55.4582 93.2692 55.6569 93.265H68.6318C69.2381 93.265 69.4723 92.6828 69.33 92.2363C69.3634 92.068 69.3403 91.8933 69.2643 91.7395C68.7704 90.792 68.1878 89.8936 67.5243 89.0561C68.2356 86.6266 69.0849 81.5224 69.689 79.0645C70.3171 76.508 70.6914 74.2689 70.2361 72.472C69.8214 70.62 69.13 68.841 68.1853 67.1949C67.4871 65.943 66.8305 64.6997 66.1738 63.4543C66.918 63.536 67.6667 63.5689 68.4151 63.5528C70.9825 63.4784 72.937 62.0689 73.5105 59.508C73.7534 58.3248 73.8555 57.117 73.8147 55.9098L79.5974 56.5664C82.0203 56.84 85.5902 57.223 87.8577 56.0608C90.1252 54.8986 90.7731 52.3771 90.9767 49.9892C91.2459 46.8527 93.0775 45.4803 93.3007 42.3482C93.6735 42.3595 93.9153 42.3916 94.2857 42.3482C94.9226 42.2716 94.2029 40.3303 94.5596 39.7196C94.7327 39.444 94.9635 40.8275 94.8329 40.5295C95.2137 40.5579 95.3253 39.9384 95.7084 39.9406C96.5182 39.9406 97.7683 38.9776 98.4009 38.3385C98.9349 37.7673 98.808 37.3098 98.3812 36.9421Z" fill="#E5E4FF"/>
<path d="M54.6128 31.2407C54.8055 31.8026 55.2745 32.2252 55.8532 32.3588C56.432 32.4924 57.0387 32.3179 57.4582 31.8973" stroke="#00203F" stroke-width="1.3057" stroke-linecap="round" stroke-linejoin="round"/>
<path d="M62.3982 32.7749C62.7287 33.5453 64.2608 33.7949 64.8189 33.1711" stroke="#00203F" stroke-width="1.3057" stroke-linecap="round" stroke-linejoin="round"/>
<path d="M57.7319 36.5005C58.6074 37.8137 60.4394 37.9976 61.4681 36.8594" stroke="#00203F" stroke-width="1.3057" stroke-linecap="round" stroke-linejoin="round"/>
<path d="M12.0835 42.5103L12.5628 40.5273" stroke="#00203F" stroke-width="1.3057" stroke-linecap="round" stroke-linejoin="round"/>
<path d="M8.25317 44.1363C8.62307 43.4797 9.70431 42.057 10.0742 41.4048" stroke="#00203F" stroke-width="1.3057" stroke-linecap="round" stroke-linejoin="round"/>
<path d="M8.29262 43.3993C7.35803 43.4168 6.0032 43.4781 5.0686 43.4934" stroke="#00203F" stroke-width="1.3057" stroke-linecap="round" stroke-linejoin="round"/>
<path d="M92.0973 43.771C91.4775 45.1844 90.295 48.8285 89.6896 50.1183" stroke="#00203F" stroke-width="2.61141" stroke-linecap="round" stroke-linejoin="round"/>
<path d="M90.0444 33.2173C91.332 33.3436 92.4916 34.0503 93.194 35.1368C93.3103 35.3238 93.417 35.5167 93.5136 35.7146C93.9185 36.5289 94.2403 37.4219 94.1702 38.328C94.1002 39.2341 93.5486 40.1512 92.6797 40.4183C91.9705 40.6371 90.0532 40.1994 90.1955 37.7546" stroke="#00203F" stroke-width="1.3057" stroke-linecap="round" stroke-linejoin="round"/>
<path d="M97.9301 35.6465C97.8141 36.209 97.396 36.6621 96.9342 37.0035C96.0215 37.6754 95.2751 38.0235 94.1436 37.9578" stroke="#00203F" stroke-width="1.3057" stroke-linecap="round" stroke-linejoin="round"/>
<path d="M97.5889 40.022C97.1293 40.475 95.3017 40.8406 93.7148 40.1467" stroke="#00203F" stroke-width="1.3057" stroke-linecap="round" stroke-linejoin="round"/>
<path d="M95.6999 42.9899C94.2291 43.1935 91.0641 43.1935 89.9172 41.4009" stroke="#00203F" stroke-width="1.3057" stroke-linecap="round" stroke-linejoin="round"/>
<path d="M89.5387 43.4447C89.0221 42.3941 89.7926 40.5993 90.9001 40.2075" stroke="#00203F" stroke-width="1.3057" stroke-linecap="round" stroke-linejoin="round"/>
</svg>