<svg xmlns:xlink="http://www.w3.org/1999/xlink" xmlns="http://www.w3.org/2000/svg" width="49" height="49" viewBox="0 0 49 49" fill="none">
<circle cx="24.5" cy="24.5" r="24.5" fill="#FEF6FB"/>
<circle cx="24.5" cy="24.5" r="24.5" stroke="#F2F4F7"/>
<g opacity="0.9">
<path d="M18 33H32C33.1046 33 34 32.1046 34 31V17C34 15.8954 33.1046 15 32 15H18C16.8954 15 16 15.8954 16 17V31C16 32.1046 16.8954 33 18 33ZM18 33L29 22L34 27M23 20.5C23 21.3284 22.3284 22 21.5 22C20.6716 22 20 21.3284 20 20.5C20 19.6716 20.6716 19 21.5 19C22.3284 19 23 19.6716 23 20.5Z" stroke="#FAA7E0" stroke-width="2" stroke-linecap="round" stroke-linejoin="round"/>
</g>
</svg>