<svg xmlns:xlink="http://www.w3.org/1999/xlink" xmlns="http://www.w3.org/2000/svg" width="48" height="48" viewBox="0 0 48 48" fill="none">
<rect width="48" height="48" rx="24" fill="#FFE4E8"/>
<mask id="mask0_12405_252211" style="mask-type:alpha" maskUnits="userSpaceOnUse" x="12" y="12" width="24" height="24">
<path d="M32.4 17.4C32.4 18.3941 31.5941 19.2 30.6 19.2C29.6059 19.2 28.8 18.3941 28.8 17.4C28.8 16.4059 29.6059 15.6 30.6 15.6C31.5941 15.6 32.4 16.4059 32.4 17.4Z" fill="white"/>
<path fill-rule="evenodd" clip-rule="evenodd" d="M24 30C27.3137 30 30 27.3137 30 24C30 20.6863 27.3137 18 24 18C20.6863 18 18 20.6863 18 24C18 27.3137 20.6863 30 24 30ZM24 27.6C25.9882 27.6 27.6 25.9882 27.6 24C27.6 22.0118 25.9882 20.4 24 20.4C22.0118 20.4 20.4 22.0118 20.4 24C20.4 25.9882 22.0118 27.6 24 27.6Z" fill="white"/>
<path fill-rule="evenodd" clip-rule="evenodd" d="M12 23.52C12 19.4876 12 17.4714 12.7848 15.9313C13.475 14.5765 14.5765 13.475 15.9313 12.7848C17.4714 12 19.4876 12 23.52 12H24.48C28.5124 12 30.5286 12 32.0687 12.7848C33.4235 13.475 34.525 14.5765 35.2152 15.9313C36 17.4714 36 19.4876 36 23.52V24.48C36 28.5124 36 30.5286 35.2152 32.0687C34.525 33.4235 33.4235 34.525 32.0687 35.2152C30.5286 36 28.5124 36 24.48 36H23.52C19.4876 36 17.4714 36 15.9313 35.2152C14.5765 34.525 13.475 33.4235 12.7848 32.0687C12 30.5286 12 28.5124 12 24.48V23.52ZM23.52 14.4H24.48C26.5358 14.4 27.9333 14.4019 29.0135 14.4901C30.0657 14.5761 30.6038 14.7319 30.9792 14.9232C31.8823 15.3834 32.6166 16.1177 33.0768 17.0208C33.2681 17.3962 33.4239 17.9343 33.5099 18.9865C33.5981 20.0667 33.6 21.4642 33.6 23.52V24.48C33.6 26.5358 33.5981 27.9333 33.5099 29.0135C33.4239 30.0657 33.2681 30.6038 33.0768 30.9792C32.6166 31.8823 31.8823 32.6166 30.9792 33.0768C30.6038 33.2681 30.0657 33.4239 29.0135 33.5099C27.9333 33.5981 26.5358 33.6 24.48 33.6H23.52C21.4642 33.6 20.0667 33.5981 18.9865 33.5099C17.9343 33.4239 17.3962 33.2681 17.0208 33.0768C16.1177 32.6166 15.3834 31.8823 14.9232 30.9792C14.7319 30.6038 14.5761 30.0657 14.4901 29.0135C14.4019 27.9333 14.4 26.5358 14.4 24.48V23.52C14.4 21.4642 14.4019 20.0667 14.4901 18.9865C14.5761 17.9343 14.7319 17.3962 14.9232 17.0208C15.3834 16.1177 16.1177 15.3834 17.0208 14.9232C17.3962 14.7319 17.9343 14.5761 18.9865 14.4901C20.0667 14.4019 21.4642 14.4 23.52 14.4Z" fill="white"/>
</mask>
<g mask="url(#mask0_12405_252211)">
<rect x="10" y="10" width="28" height="28" rx="6" fill="url(#paint0_radial_12405_252211)"/>
<rect x="10" y="10" width="28" height="28" rx="6" fill="url(#paint1_radial_12405_252211)"/>
<rect x="10" y="10" width="28" height="28" rx="6" fill="url(#paint2_radial_12405_252211)"/>
</g>
<defs>
<radialGradient id="paint0_radial_12405_252211" cx="0" cy="0" r="1" gradientUnits="userSpaceOnUse" gradientTransform="translate(20 31) rotate(-55.3758) scale(25.5196)">
<stop stop-color="#B13589"/>
<stop offset="0.79309" stop-color="#C62F94"/>
<stop offset="1" stop-color="#8A3AC8"/>
</radialGradient>
<radialGradient id="paint1_radial_12405_252211" cx="0" cy="0" r="1" gradientUnits="userSpaceOnUse" gradientTransform="translate(19 39) rotate(-65.1363) scale(22.5942)">
<stop stop-color="#E0E8B7"/>
<stop offset="0.444662" stop-color="#FB8A2E"/>
<stop offset="0.71474" stop-color="#E2425C"/>
<stop offset="1" stop-color="#E2425C" stop-opacity="0"/>
</radialGradient>
<radialGradient id="paint2_radial_12405_252211" cx="0" cy="0" r="1" gradientUnits="userSpaceOnUse" gradientTransform="translate(8.5 11) rotate(-8.1301) scale(38.8909 8.31836)">
<stop offset="0.156701" stop-color="#406ADC"/>
<stop offset="0.467799" stop-color="#6A45BE"/>
<stop offset="1" stop-color="#6A45BE" stop-opacity="0"/>
</radialGradient>
</defs>
</svg>