<svg xmlns:xlink="http://www.w3.org/1999/xlink" viewBox="0 0 18 16" xmlns="http://www.w3.org/2000/svg" width="20" height="20" fill="currentColor" class="group-hover:scale-110 transition-all duration-300 ease-out"><path fill-rule="evenodd" clip-rule="evenodd" d="M7.32378 1.24403e-06H10.6762C10.9337 -1.72334e-05 11.1702 -3.41609e-05 11.3679 0.0161174C11.581 0.0335311 11.8142 0.0733937 12.0445 0.190741C12.3738 0.35852 12.6415 0.626236 12.8093 0.955519C12.9266 1.18583 12.9665 1.419 12.9839 1.63213C13 1.82981 13 2.06629 13 2.32377L13 3L15.6762 3C15.9337 2.99998 16.1702 2.99997 16.3679 3.01612C16.581 3.03353 16.8142 3.07339 17.0445 3.19074C17.3738 3.35852 17.6415 3.62624 17.8093 3.95552C17.9266 4.18583 17.9665 4.419 17.9839 4.63213C18 4.82981 18 5.06629 18 5.32377V9.67624C18 9.93372 18 10.1702 17.9839 10.3679C17.9665 10.581 17.9266 10.8142 17.8093 11.0445C17.6415 11.3738 17.3738 11.6415 17.0445 11.8093C17.0297 11.8168 17.0148 11.824 17 11.831V13.6762C17 13.9337 17 14.1702 16.9839 14.3679C16.9665 14.581 16.9266 14.8142 16.8093 15.0445C16.6415 15.3738 16.3738 15.6415 16.0445 15.8093C15.8142 15.9266 15.581 15.9665 15.3679 15.9839C15.1702 16 14.9337 16 14.6762 16H3.32377C3.06629 16 2.82981 16 2.63213 15.9839C2.419 15.9665 2.18583 15.9266 1.95552 15.8093C1.62624 15.6415 1.35852 15.3738 1.19074 15.0445C1.07339 14.8142 1.03353 14.581 1.01612 14.3679C0.999966 14.1702 0.999983 13.9337 1 13.6762L1 11.831C0.985167 11.824 0.970337 11.8168 0.955519 11.8093C0.626236 11.6415 0.35852 11.3738 0.190741 11.0445C0.0733937 10.8142 0.0335311 10.581 0.0161174 10.3679C-3.41609e-05 10.1702 -1.72334e-05 9.93371 1.24403e-06 9.67622V5.32378C-1.72334e-05 5.0663 -3.41609e-05 4.82982 0.0161174 4.63213C0.0335311 4.419 0.0733939 4.18583 0.190741 3.95552C0.358519 3.62624 0.626235 3.35852 0.955519 3.19074C1.18583 3.07339 1.419 3.03353 1.63213 3.01612C1.82982 2.99997 2.0663 2.99998 2.32379 3C2.3325 3 2.34124 3 2.35 3H5L5 2.32379C4.99998 2.0663 4.99997 1.82982 5.01612 1.63213C5.03353 1.419 5.07339 1.18583 5.19074 0.955519C5.35852 0.626235 5.62624 0.358519 5.95552 0.190741C6.18583 0.0733939 6.419 0.0335311 6.63213 0.0161174C6.82982 -3.41609e-05 7.0663 -1.72334e-05 7.32378 1.24403e-06ZM2.35 4.5C2.0576 4.5 1.88341 4.50059 1.75428 4.51114C1.67547 4.51757 1.64234 4.52607 1.63347 4.52883C1.58883 4.55235 1.55235 4.58883 1.52883 4.63347C1.52607 4.64234 1.51757 4.67547 1.51114 4.75428C1.50059 4.88341 1.5 5.0576 1.5 5.35V9.65C1.5 9.9424 1.50059 10.1166 1.51114 10.2457C1.51757 10.3245 1.52607 10.3577 1.52883 10.3665C1.55235 10.4112 1.58883 10.4477 1.63347 10.4712C1.64234 10.4739 1.67547 10.4824 1.75428 10.4889C1.76561 10.4898 1.77729 10.4906 1.78936 10.4914C1.79424 10.4917 1.7991 10.492 1.80395 10.4923C1.92791 10.4996 2.09346 10.5 2.35 10.5H6V9.75C6 9.33579 6.33579 9 6.75 9C7.16422 9 7.5 9.33579 7.5 9.75V10.5H10.5V9.75C10.5 9.33579 10.8358 9 11.25 9C11.6642 9 12 9.33579 12 9.75V10.5H15.65C15.9065 10.5 16.0721 10.4996 16.1961 10.4923C16.2009 10.492 16.2058 10.4917 16.2106 10.4914C16.2227 10.4906 16.2344 10.4898 16.2457 10.4889C16.3245 10.4824 16.3577 10.4739 16.3665 10.4712C16.4112 10.4477 16.4477 10.4112 16.4712 10.3665C16.4739 10.3577 16.4824 10.3245 16.4889 10.2457C16.4994 10.1166 16.5 9.94241 16.5 9.65V5.35C16.5 5.0576 16.4994 4.88341 16.4889 4.75428C16.4824 4.67547 16.4739 4.64234 16.4712 4.63347C16.4477 4.58883 16.4112 4.55235 16.3665 4.52883C16.3577 4.52607 16.3245 4.51758 16.2457 4.51114C16.1166 4.50059 15.9424 4.5 15.65 4.5H2.35ZM11.5 3H6.5V2.35C6.5 2.0576 6.50059 1.88341 6.51114 1.75428C6.51757 1.67547 6.52607 1.64234 6.52883 1.63347C6.55235 1.58883 6.58883 1.55235 6.63346 1.52883C6.64234 1.52607 6.67547 1.51757 6.75428 1.51114C6.88341 1.50059 7.0576 1.5 7.35 1.5H10.65C10.9424 1.5 11.1166 1.50059 11.2457 1.51114C11.3245 1.51757 11.3577 1.52607 11.3665 1.52883C11.4112 1.55235 11.4477 1.58882 11.4712 1.63347C11.4739 1.64234 11.4824 1.67547 11.4889 1.75428C11.4994 1.88341 11.5 2.0576 11.5 2.35V3ZM11.4703 1.63088C11.4703 1.63085 11.4705 1.63132 11.4708 1.63236L11.4703 1.63088ZM11.3691 1.52973C11.3691 1.52974 11.3686 1.52957 11.3676 1.52918L11.3691 1.52973ZM6.63088 1.52973C6.63085 1.52972 6.63132 1.52953 6.63236 1.52918L6.63088 1.52973ZM6.52918 1.63236C6.52953 1.63131 6.52972 1.63085 6.52973 1.63088L6.52918 1.63236ZM16.3691 4.52973C16.3691 4.52974 16.3686 4.52956 16.3676 4.52917L16.3691 4.52973ZM16.4703 4.63088C16.4703 4.63085 16.4705 4.63132 16.4708 4.63236L16.4703 4.63088ZM16.4703 10.3691C16.4703 10.3691 16.4704 10.3686 16.4708 10.3676L16.4703 10.3691ZM16.3691 10.4703C16.3692 10.4703 16.3687 10.4705 16.3676 10.4708L16.3691 10.4703ZM15.5 12H12V12.25C12 12.6642 11.6642 13 11.25 13C10.8358 13 10.5 12.6642 10.5 12.25V12H7.5V12.25C7.5 12.6642 7.16422 13 6.75 13C6.33579 13 6 12.6642 6 12.25V12H2.5V13.65C2.5 13.9424 2.50059 14.1166 2.51114 14.2457C2.51758 14.3245 2.52607 14.3577 2.52883 14.3665C2.55235 14.4112 2.58883 14.4477 2.63347 14.4712C2.64235 14.4739 2.67547 14.4824 2.75428 14.4889C2.88341 14.4994 3.0576 14.5 3.35 14.5H14.65C14.9424 14.5 15.1166 14.4994 15.2457 14.4889C15.3245 14.4824 15.3577 14.4739 15.3665 14.4712C15.4112 14.4477 15.4477 14.4112 15.4712 14.3665C15.4739 14.3577 15.4824 14.3245 15.4889 14.2457C15.4994 14.1166 15.5 13.9424 15.5 13.65V12ZM15.4703 14.3691C15.4703 14.3691 15.4704 14.3686 15.4708 14.3676L15.4703 14.3691ZM15.3691 14.4703C15.3692 14.4703 15.3687 14.4705 15.3676 14.4708L15.3691 14.4703ZM2.63088 14.4703C2.63091 14.4703 2.63143 14.4704 2.63236 14.4708L2.63088 14.4703ZM2.52918 14.3676C2.52957 14.3686 2.52974 14.3691 2.52973 14.3691L2.52918 14.3676ZM1.63088 10.4703C1.63091 10.4703 1.63143 10.4704 1.63236 10.4708L1.63088 10.4703ZM1.52918 10.3676C1.52957 10.3686 1.52974 10.3691 1.52973 10.3691L1.52918 10.3676ZM1.52917 4.63239C1.52952 4.63132 1.52972 4.63085 1.52973 4.63088L1.52917 4.63239ZM1.63239 4.52917C1.63144 4.52956 1.63091 4.52974 1.63088 4.52973L1.63239 4.52917Z" fill="#347434"></path></svg>