<svg xmlns:xlink="http://www.w3.org/1999/xlink" xmlns="http://www.w3.org/2000/svg" width="48" height="48" viewBox="0 0 48 48" fill="none">
<rect width="48" height="48" rx="24" fill="#E6F4D7"/>
<path d="M22 29.6587V32.0001C22 33.1047 22.8954 34.0001 24 34.0001C25.1046 34.0001 26 33.1047 26 32.0001V29.6587H22Z" fill="#CEEAB0" stroke="#4F7A21" stroke-width="2" stroke-linecap="round" stroke-linejoin="round"/>
<path d="M22 29.6586V32C22 33.1046 22.8954 34 24 34C25.1046 34 26 33.1046 26 32V29.6586M24 14V15M15 24H14M17.5 17.5L16.8999 16.8999M30.5 17.5L31.1002 16.8999M34 24H33M30 24C30 27.3137 27.3137 30 24 30C20.6863 30 18 27.3137 18 24C18 20.6863 20.6863 18 24 18C27.3137 18 30 20.6863 30 24Z" stroke="#4F7A21" stroke-width="2" stroke-linecap="round" stroke-linejoin="round"/>
</svg>