<svg xmlns="http://www.w3.org/2000/svg" width="20" height="20" fill="currentColor" class="group-hover:scale-110 transition-all duration-300 ease-out"><path d="M17.65 1H2.35A1.35 1.35 0 0 0 1 2.35v15.3A1.35 1.35 0 0 0 2.35 19h15.3A1.35 1.35 0 0 0 19 17.65V2.35A1.35 1.35 0 0 0 17.65 1zM6.4 16.3H3.7V8.2h2.7v8.1zM5.05 6.625A1.575 1.575 0 1 1 6.67 5.05a1.602 1.602 0 0 1-1.62 1.575zM16.3 16.3h-2.7v-4.266c0-1.278-.54-1.737-1.242-1.737A1.565 1.565 0 0 0 10.9 11.97a.59.59 0 0 0 0 .127V16.3H8.2V8.2h2.61v1.17a2.8 2.8 0 0 1 2.43-1.26c1.395 0 3.024.774 3.024 3.294L16.3 16.3z" fill="#0A66C2"/></svg>