<svg xmlns:xlink="http://www.w3.org/1999/xlink" xmlns="http://www.w3.org/2000/svg" width="48" height="48" viewBox="0 0 48 48" fill="none">
<rect width="48" height="48" rx="24" fill="#FFE4E8"/>
<rect x="10" y="10" width="28" height="28" rx="14" fill="#1275B1"/>
<path d="M20.6186 17.6921C20.6186 18.6267 19.8085 19.3843 18.8093 19.3843C17.81 19.3843 17 18.6267 17 17.6921C17 16.7576 17.81 16 18.8093 16C19.8085 16 20.6186 16.7576 20.6186 17.6921Z" fill="white"/>
<path d="M17.2474 20.6281H20.3402V30H17.2474V20.6281Z" fill="white"/>
<path d="M25.3196 20.6281H22.2268V30H25.3196C25.3196 30 25.3196 27.0496 25.3196 25.2049C25.3196 24.0976 25.6977 22.9855 27.2062 22.9855C28.911 22.9855 28.9008 24.4345 28.8928 25.5571C28.8824 27.0244 28.9072 28.5219 28.9072 30H32V25.0537C31.9738 21.8954 31.1508 20.4401 28.4433 20.4401C26.8354 20.4401 25.8387 21.1701 25.3196 21.8305V20.6281Z" fill="white"/>
</svg>