<svg xmlns:xlink="http://www.w3.org/1999/xlink" xmlns="http://www.w3.org/2000/svg" width="354" height="117" viewBox="0 0 354 117" fill="none">
<g filter="url(#filter0_d_10_114)">
<path d="M51.5 4.04145C55.8316 1.54059 61.1684 1.54059 65.5 4.04145L98.6984 23.2085C103.03 25.7094 105.698 30.3312 105.698 35.3329V73.6671C105.698 78.6688 103.03 83.2906 98.6984 85.7915L65.5 104.959C61.1684 107.459 55.8316 107.459 51.5 104.959L18.3016 85.7915C13.97 83.2906 11.3016 78.6688 11.3016 73.6671V35.3329C11.3016 30.3312 13.97 25.7094 18.3016 23.2085L51.5 4.04145Z" fill="url(#paint0_linear_10_114)"/>
<g filter="url(#filter1_b_10_114)">
<path d="M52.5 9.4641C56.2128 7.32051 60.7872 7.32051 64.5 9.4641L94.5022 26.7859C98.215 28.9295 100.502 32.891 100.502 37.1782V71.8218C100.502 76.109 98.215 80.0705 94.5022 82.2141L64.5 99.5359C60.7872 101.679 56.2128 101.679 52.5 99.5359L22.4978 82.2141C18.785 80.0705 16.4978 76.109 16.4978 71.8218V37.1782C16.4978 32.891 18.785 28.9295 22.4978 26.7859L52.5 9.4641Z" fill="#211A48" fill-opacity="0.8"/>
</g>
<g filter="url(#filter2_b_10_114)">
<path d="M29 39.9263C29 38.8436 29.5833 37.8449 30.5264 37.3131L58.5264 21.5229C60.5262 20.3951 63 21.84 63 24.136V58.8893C63 59.919 62.4719 60.8768 61.6011 61.4263L33.6011 79.0964C31.6034 80.3571 29 78.9215 29 76.5593V39.9263Z" fill="url(#paint1_linear_10_114)"/>
</g>
<g filter="url(#filter3_b_10_114)">
<path d="M43 45.9005C43 44.8316 43.5687 43.8435 44.4929 43.3065L71.4928 27.6188C73.4928 26.4567 76 27.8996 76 30.2127V64.9157C76 65.931 75.4865 66.8774 74.6353 67.4308L47.6353 84.9861C45.6396 86.2838 43 84.8515 43 82.471V45.9005Z" fill="url(#paint2_linear_10_114)"/>
</g>
<g filter="url(#filter4_b_10_114)">
<path d="M60.8087 53.9963C60.9173 53.6396 61.0914 53.3062 61.3221 53.0133L69.2432 42.9565L84.545 34.4706C86.5446 33.3617 89 34.8077 89 37.0942V71.8893C89 72.919 88.4719 73.8768 87.6011 74.4263L59.6011 92.0964C57.6034 93.3571 55 91.9215 55 89.5593V73.087L60.8087 53.9963Z" fill="url(#paint3_linear_10_114)"/>
</g>
<g filter="url(#filter5_d_10_114)">
<path d="M68.1037 57.3433C64.9436 52.2537 67.0437 45.3134 69 43C58.1651 51.1433 54.8544 67.2139 55.0049 74C55.7272 68.4478 60.4291 66.1343 64.0406 65.209C69.4579 63.8209 69.6122 59.7727 68.1037 57.3433Z" fill="white"/>
</g>
<path d="M158.032 50.996C157.475 50.1853 156.689 49.5267 155.676 49.02C154.663 48.4627 153.573 48.184 152.408 48.184C149.52 48.184 147.265 49.0453 145.644 50.768C144.073 52.4907 143.288 54.7453 143.288 57.532C143.288 60.3187 144.073 62.5733 145.644 64.296C147.265 66.0187 149.52 66.88 152.408 66.88C153.675 66.88 154.764 66.6013 155.676 66.044C156.588 65.4867 157.373 64.828 158.032 64.068L165.556 71.972C163.783 73.796 161.68 75.088 159.248 75.848C156.867 76.5573 154.587 76.912 152.408 76.912C149.571 76.912 146.885 76.456 144.352 75.544C141.869 74.632 139.691 73.34 137.816 71.668C135.992 69.9453 134.548 67.8933 133.484 65.512C132.42 63.1307 131.888 60.4707 131.888 57.532C131.888 54.5933 132.42 51.9333 133.484 49.552C134.548 47.1707 135.992 45.144 137.816 43.472C139.691 41.7493 141.869 40.432 144.352 39.52C146.885 38.608 149.571 38.152 152.408 38.152C154.587 38.152 156.867 38.532 159.248 39.292C161.68 40.0013 163.783 41.268 165.556 43.092L158.032 50.996ZM168.324 57.532C168.324 54.5933 168.856 51.9333 169.92 49.552C170.984 47.1707 172.428 45.144 174.252 43.472C176.127 41.7493 178.305 40.432 180.788 39.52C183.321 38.608 186.007 38.152 188.844 38.152C191.681 38.152 194.341 38.608 196.824 39.52C199.357 40.432 201.536 41.7493 203.36 43.472C205.235 45.144 206.704 47.1707 207.768 49.552C208.832 51.9333 209.364 54.5933 209.364 57.532C209.364 60.4707 208.832 63.1307 207.768 65.512C206.704 67.8933 205.235 69.9453 203.36 71.668C201.536 73.34 199.357 74.632 196.824 75.544C194.341 76.456 191.681 76.912 188.844 76.912C186.007 76.912 183.321 76.456 180.788 75.544C178.305 74.632 176.127 73.34 174.252 71.668C172.428 69.9453 170.984 67.8933 169.92 65.512C168.856 63.1307 168.324 60.4707 168.324 57.532ZM179.724 57.532C179.724 60.3187 180.509 62.5733 182.08 64.296C183.701 66.0187 185.956 66.88 188.844 66.88C191.732 66.88 193.961 66.0187 195.532 64.296C197.153 62.5733 197.964 60.3187 197.964 57.532C197.964 54.7453 197.153 52.4907 195.532 50.768C193.961 49.0453 191.732 48.184 188.844 48.184C185.956 48.184 183.701 49.0453 182.08 50.768C180.509 52.4907 179.724 54.7453 179.724 57.532ZM217.143 39.064H227.631V43.928H227.783C228.239 43.2693 228.821 42.6107 229.531 41.952C230.291 41.2427 231.152 40.6093 232.115 40.052C233.128 39.4947 234.217 39.0387 235.383 38.684C236.548 38.3293 237.789 38.152 239.107 38.152C241.843 38.152 244.325 38.6333 246.555 39.596C248.784 40.508 250.684 41.8253 252.255 43.548C253.876 45.22 255.117 47.2213 255.979 49.552C256.84 51.8827 257.271 54.4413 257.271 57.228C257.271 59.812 256.865 62.2947 256.055 64.676C255.295 67.0067 254.18 69.084 252.711 70.908C251.292 72.732 249.544 74.2013 247.467 75.316C245.389 76.38 243.033 76.912 240.399 76.912C238.017 76.912 235.788 76.5573 233.711 75.848C231.684 75.088 230.012 73.8213 228.695 72.048H228.543V93.328H217.143V39.064ZM227.631 57.532C227.631 60.3187 228.416 62.5733 229.987 64.296C231.608 66.0187 233.863 66.88 236.751 66.88C239.639 66.88 241.868 66.0187 243.439 64.296C245.06 62.5733 245.871 60.3187 245.871 57.532C245.871 54.7453 245.06 52.4907 243.439 50.768C241.868 49.0453 239.639 48.184 236.751 48.184C233.863 48.184 231.608 49.0453 229.987 50.768C228.416 52.4907 227.631 54.7453 227.631 57.532ZM264.102 39.064H275.502V76H264.102V39.064ZM263.19 27.436C263.19 25.612 263.823 24.0667 265.09 22.8C266.407 21.4827 267.978 20.824 269.802 20.824C271.626 20.824 273.171 21.4827 274.438 22.8C275.755 24.0667 276.414 25.612 276.414 27.436C276.414 29.26 275.755 30.8307 274.438 32.148C273.171 33.4147 271.626 34.048 269.802 34.048C267.978 34.048 266.407 33.4147 265.09 32.148C263.823 30.8307 263.19 29.26 263.19 27.436ZM287.644 48.184H280.12V39.064H287.644V32.528C287.644 30.5013 287.821 28.6013 288.176 26.828C288.531 25.004 289.215 23.408 290.228 22.04C291.241 20.672 292.685 19.608 294.56 18.848C296.485 18.0373 298.993 17.632 302.084 17.632C303.249 17.632 304.389 17.6827 305.504 17.784C306.619 17.8853 307.708 18.0627 308.772 18.316L308.24 27.968C307.581 27.7147 306.973 27.5373 306.416 27.436C305.859 27.284 305.225 27.208 304.516 27.208C302.692 27.208 301.324 27.6133 300.412 28.424C299.5 29.184 299.044 30.78 299.044 33.212V39.064H307.48V48.184H299.044V76H287.644V48.184ZM333.101 82.004C332.341 83.98 331.606 85.728 330.897 87.248C330.188 88.768 329.276 90.0347 328.161 91.048C327.097 92.112 325.729 92.8973 324.057 93.404C322.385 93.9613 320.181 94.24 317.445 94.24C314.506 94.24 311.669 93.784 308.933 92.872L310.453 83.524C312.176 84.284 313.949 84.664 315.773 84.664C317.04 84.664 318.078 84.512 318.889 84.208C319.7 83.9547 320.358 83.5493 320.865 82.992C321.422 82.4853 321.878 81.852 322.233 81.092C322.588 80.332 322.968 79.4453 323.373 78.432L324.209 76.304L308.021 39.064H320.333L329.833 63.46H329.985L338.117 39.064H349.821L333.101 82.004Z" fill="#171717"/>
</g>
<defs>
<filter id="filter0_d_10_114" x="0" y="0" width="355" height="117" filterUnits="userSpaceOnUse" color-interpolation-filters="sRGB">
<feFlood flood-opacity="0" result="BackgroundImageFix"/>
<feColorMatrix in="SourceAlpha" type="matrix" values="0 0 0 0 0 0 0 0 0 0 0 0 0 0 0 0 0 0 127 0" result="hardAlpha"/>
<feOffset dy="4"/>
<feGaussianBlur stdDeviation="2"/>
<feComposite in2="hardAlpha" operator="out"/>
<feColorMatrix type="matrix" values="0 0 0 0 0 0 0 0 0 0 0 0 0 0 0 0 0 0 0.25 0"/>
<feBlend mode="normal" in2="BackgroundImageFix" result="effect1_dropShadow_10_114"/>
<feBlend mode="normal" in="SourceGraphic" in2="effect1_dropShadow_10_114" result="shape"/>
</filter>
<filter id="filter1_b_10_114" x="10.4976" y="1.8564" width="96.0049" height="105.287" filterUnits="userSpaceOnUse" color-interpolation-filters="sRGB">
<feFlood flood-opacity="0" result="BackgroundImageFix"/>
<feGaussianBlur in="BackgroundImageFix" stdDeviation="3"/>
<feComposite in2="SourceAlpha" operator="in" result="effect1_backgroundBlur_10_114"/>
<feBlend mode="normal" in="SourceGraphic" in2="effect1_backgroundBlur_10_114" result="shape"/>
</filter>
<filter id="filter2_b_10_114" x="15" y="7.13159" width="62" height="86.4326" filterUnits="userSpaceOnUse" color-interpolation-filters="sRGB">
<feFlood flood-opacity="0" result="BackgroundImageFix"/>
<feGaussianBlur in="BackgroundImageFix" stdDeviation="7"/>
<feComposite in2="SourceAlpha" operator="in" result="effect1_backgroundBlur_10_114"/>
<feBlend mode="normal" in="SourceGraphic" in2="effect1_backgroundBlur_10_114" result="shape"/>
</filter>
<filter id="filter3_b_10_114" x="23" y="7.20822" width="73" height="98.2678" filterUnits="userSpaceOnUse" color-interpolation-filters="sRGB">
<feFlood flood-opacity="0" result="BackgroundImageFix"/>
<feGaussianBlur in="BackgroundImageFix" stdDeviation="10"/>
<feComposite in2="SourceAlpha" operator="in" result="effect1_backgroundBlur_10_114"/>
<feBlend mode="normal" in="SourceGraphic" in2="effect1_backgroundBlur_10_114" result="shape"/>
</filter>
<filter id="filter4_b_10_114" x="49" y="28.0898" width="46" height="70.4743" filterUnits="userSpaceOnUse" color-interpolation-filters="sRGB">
<feFlood flood-opacity="0" result="BackgroundImageFix"/>
<feGaussianBlur in="BackgroundImageFix" stdDeviation="3"/>
<feComposite in2="SourceAlpha" operator="in" result="effect1_backgroundBlur_10_114"/>
<feBlend mode="normal" in="SourceGraphic" in2="effect1_backgroundBlur_10_114" result="shape"/>
</filter>
<filter id="filter5_d_10_114" x="51" y="43" width="22" height="39" filterUnits="userSpaceOnUse" color-interpolation-filters="sRGB">
<feFlood flood-opacity="0" result="BackgroundImageFix"/>
<feColorMatrix in="SourceAlpha" type="matrix" values="0 0 0 0 0 0 0 0 0 0 0 0 0 0 0 0 0 0 127 0" result="hardAlpha"/>
<feOffset dy="4"/>
<feGaussianBlur stdDeviation="2"/>
<feComposite in2="hardAlpha" operator="out"/>
<feColorMatrix type="matrix" values="0 0 0 0 0.825 0 0 0 0 0.825 0 0 0 0 0.825 0 0 0 0.25 0"/>
<feBlend mode="normal" in2="BackgroundImageFix" result="effect1_dropShadow_10_114"/>
<feBlend mode="normal" in="SourceGraphic" in2="effect1_dropShadow_10_114" result="shape"/>
</filter>
<linearGradient id="paint0_linear_10_114" x1="14" y1="27" x2="107.5" y2="83.5" gradientUnits="userSpaceOnUse">
<stop stop-color="#0AF8D4"/>
<stop offset="0.379654" stop-color="#48A4E4"/>
<stop offset="0.601672" stop-color="#6D71EE"/>
<stop offset="1" stop-color="#AF18FF"/>
</linearGradient>
<linearGradient id="paint1_linear_10_114" x1="45.5405" y1="25.3913" x2="34.6486" y2="79.2882" gradientUnits="userSpaceOnUse">
<stop stop-color="white"/>
<stop offset="0.447397" stop-color="white" stop-opacity="0.632696"/>
<stop offset="1" stop-color="white" stop-opacity="0"/>
</linearGradient>
<linearGradient id="paint2_linear_10_114" x1="59.0541" y1="31.3913" x2="47.859" y2="85.1584" gradientUnits="userSpaceOnUse">
<stop stop-color="white"/>
<stop offset="0.447397" stop-color="white" stop-opacity="0.632696"/>
<stop offset="1" stop-color="white" stop-opacity="0"/>
</linearGradient>
<linearGradient id="paint3_linear_10_114" x1="71.5405" y1="38.3913" x2="60.6486" y2="92.2882" gradientUnits="userSpaceOnUse">
<stop stop-color="white"/>
<stop offset="0.447397" stop-color="white" stop-opacity="0.632696"/>
<stop offset="1" stop-color="white" stop-opacity="0"/>
</linearGradient>
</defs>
</svg>