<svg xmlns:xlink="http://www.w3.org/1999/xlink" xmlns="http://www.w3.org/2000/svg" width="20" height="20" fill="currentColor" class="group-hover:scale-110 transition-all duration-300 ease-out"><path fill-rule="evenodd" d="M9.92 1h.16c.535 0 .98 0 1.345.03.38.03.736.098 1.073.27A2.75 2.75 0 0 1 13.7 2.502c.172.337.24.693.27 1.073.011.132.018.275.022.428.211.004.403.01.575.024.36.029.696.09 1.02.246.498.24.912.624 1.188 1.103.18.311.265.643.32.999.053.34.084.757.12 1.254l.53 7.16c.043.57.078 1.045.074 1.433-.004.403-.049.784-.211 1.148a2.75 2.75 0 0 1-1.21 1.302c-.35.189-.727.262-1.129.296-.386.032-.861.032-1.433.032H6.164c-.572 0-1.047 0-1.433-.032-.402-.034-.779-.107-1.13-.296a2.75 2.75 0 0 1-1.209-1.302c-.162-.364-.207-.745-.211-1.148-.004-.388.031-.862.073-1.432l.53-7.16c.038-.498.068-.915.12-1.255.056-.356.142-.688.32-.999a2.75 2.75 0 0 1 1.19-1.103c.323-.156.66-.217 1.019-.246.172-.014.364-.02.575-.024a7.58 7.58 0 0 1 .022-.428c.03-.38.098-.736.27-1.073A2.75 2.75 0 0 1 7.502 1.3c.337-.172.693-.24 1.073-.27C8.94 1 9.385 1 9.92 1ZM6 5.504V7.25a.75.75 0 0 0 1.5 0V5.5h5v1.75a.75.75 0 0 0 1.5 0V5.504c.174.003.32.008.449.018.268.022.398.06.486.102.227.11.415.284.54.502.05.084.097.212.138.477.042.275.069.632.109 1.166l.525 7.1c.046.61.076 1.02.072 1.338-.003.309-.038.456-.081.552a1.25 1.25 0 0 1-.55.592c-.092.05-.236.096-.544.122-.316.026-.728.027-1.34.027H6.196c-.612 0-1.024 0-1.34-.027-.308-.026-.452-.072-.544-.122a1.25 1.25 0 0 1-.55-.592c-.043-.096-.078-.243-.081-.552-.003-.317.026-.728.072-1.338l.525-7.1c.04-.534.067-.891.11-1.166.04-.265.088-.393.136-.477a1.25 1.25 0 0 1 .54-.502c.089-.043.22-.08.487-.102A7.42 7.42 0 0 1 6 5.504ZM12.492 4H7.508a6.24 6.24 0 0 1 .017-.303c.023-.287.065-.424.111-.514a1.25 1.25 0 0 1 .547-.547c.09-.046.227-.088.514-.111.296-.024.68-.025 1.253-.025h.1c.572 0 .957 0 1.252.025.288.023.425.065.516.111.235.12.426.311.546.547.046.09.088.227.111.514.008.092.013.192.017.303Z" clip-rule="evenodd" fill="#347434"></path></svg>