<svg xmlns:xlink="http://www.w3.org/1999/xlink" xmlns="http://www.w3.org/2000/svg" width="20" height="20" fill="currentColor" class="group-hover:scale-110 transition-all duration-300 ease-out"><path fill-rule="evenodd" d="M4.92 1h10.16c.535 0 .98 0 1.345.03.38.03.736.098 1.073.27A2.75 2.75 0 0 1 18.7 2.502c.172.337.24.693.27 1.073.03.365.03.81.03 1.345v6.16c0 .535 0 .98-.03 1.345-.03.38-.098.736-.27 1.073a2.751 2.751 0 0 1-1.2 1.202c-.338.172-.694.24-1.074.27-.365.03-.81.03-1.345.03h-4.33v2.5h2.5a.75.75 0 0 1 0 1.5h-6.5a.75.75 0 0 1 0-1.5h2.5V15H4.92c-.535 0-.98 0-1.345-.03-.38-.03-.736-.098-1.073-.27A2.75 2.75 0 0 1 1.3 13.5c-.172-.338-.24-.694-.27-1.074C1 12.06 1 11.615 1 11.08V4.92c0-.535 0-.98.03-1.345.03-.38.098-.736.27-1.073A2.75 2.75 0 0 1 2.502 1.3c.337-.172.693-.24 1.073-.27C3.94 1 4.385 1 4.92 1ZM2.5 11.5c.002.336.008.592.025.803.023.287.065.424.111.514.12.236.311.427.547.547.09.046.227.088.514.111.296.024.68.025 1.253.025h10.1c.572 0 .957 0 1.252-.025.288-.023.425-.065.515-.111a1.25 1.25 0 0 0 .547-.546c.046-.091.088-.228.111-.515.017-.211.023-.467.024-.803H2.501Zm15-1.5h-15V4.95c0-.572 0-.957.025-1.253.023-.287.065-.424.111-.514a1.25 1.25 0 0 1 .547-.547c.09-.046.227-.088.514-.111.296-.024.68-.025 1.253-.025h10.1c.572 0 .957 0 1.252.025.288.023.425.065.515.111.236.12.427.311.547.547.046.09.088.227.111.514.024.296.025.68.025 1.253V10Z" clip-rule="evenodd" fill="#0870BA"></path></svg>