<svg xmlns:xlink="http://www.w3.org/1999/xlink" xmlns="http://www.w3.org/2000/svg" width="48" height="48" viewBox="0 0 48 48" fill="none">
<rect width="48" height="48" rx="24" fill="#E0EAFF"/>
<path d="M23.8 29.6C25.3464 29.6 26.6 28.3464 26.6 26.8C26.6 25.2536 25.3464 24 23.8 24C22.2536 24 21 25.2536 21 26.8C21 28.3464 22.2536 29.6 23.8 29.6Z" fill="#C7D7FE"/>
<path d="M27 30L25.8 28.8M26.6 26.8C26.6 28.3464 25.3464 29.6 23.8 29.6C22.2536 29.6 21 28.3464 21 26.8C21 25.2536 22.2536 24 23.8 24C25.3464 24 26.6 25.2536 26.6 26.8Z" stroke="#444CE7" stroke-width="1.84615" stroke-linecap="round" stroke-linejoin="round"/>
<path d="M34 21H14M27 30L25.8 28.8M14 19.8L14 28.2C14 29.8802 14 30.7202 14.327 31.362C14.6146 31.9265 15.0735 32.3854 15.638 32.673C16.2798 33 17.1198 33 18.8 33H29.2C30.8802 33 31.7202 33 32.362 32.673C32.9265 32.3854 33.3854 31.9265 33.673 31.362C34 30.7202 34 29.8802 34 28.2V19.8C34 18.1198 34 17.2798 33.673 16.638C33.3854 16.0735 32.9265 15.6146 32.362 15.327C31.7202 15 30.8802 15 29.2 15L18.8 15C17.1198 15 16.2798 15 15.638 15.327C15.0735 15.6146 14.6146 16.0735 14.327 16.638C14 17.2798 14 18.1198 14 19.8ZM26.6 26.8C26.6 28.3464 25.3464 29.6 23.8 29.6C22.2536 29.6 21 28.3464 21 26.8C21 25.2536 22.2536 24 23.8 24C25.3464 24 26.6 25.2536 26.6 26.8Z" stroke="#444CE7" stroke-width="1.84615" stroke-linecap="round" stroke-linejoin="round"/>
</svg>