<svg xmlns:xlink="http://www.w3.org/1999/xlink" viewBox="0 0 18 18" xmlns="http://www.w3.org/2000/svg" width="20" height="20" fill="currentColor" class="group-hover:scale-110 transition-all duration-300 ease-out"><path fill-rule="evenodd" clip-rule="evenodd" d="M9 0C9.41421 0 9.75 0.335786 9.75 0.75V2.03971C13.0169 2.38769 15.6123 4.98308 15.9603 8.25H17.25C17.6642 8.25 18 8.58579 18 9C18 9.41421 17.6642 9.75 17.25 9.75H15.9603C15.6123 13.0169 13.0169 15.6123 9.75 15.9603V17.25C9.75 17.6642 9.41421 18 9 18C8.58579 18 8.25 17.6642 8.25 17.25V15.9603C4.98308 15.6123 2.38769 13.0169 2.03971 9.75L0.75 9.75C0.335786 9.75 -1.78814e-07 9.41421 0 9C1.78814e-07 8.58578 0.335787 8.25 0.75 8.25L2.03971 8.25C2.38769 4.98308 4.98308 2.38769 8.25 2.03971V0.75C8.25 0.335786 8.58579 0 9 0ZM9 3.5C5.96243 3.5 3.5 5.96243 3.5 9C3.5 12.0376 5.96243 14.5 9 14.5C12.0376 14.5 14.5 12.0376 14.5 9C14.5 5.96243 12.0376 3.5 9 3.5ZM9 7.5C8.17157 7.5 7.5 8.17157 7.5 9C7.5 9.82843 8.17157 10.5 9 10.5C9.82843 10.5 10.5 9.82843 10.5 9C10.5 8.17157 9.82843 7.5 9 7.5ZM6 9C6 7.34315 7.34315 6 9 6C10.6569 6 12 7.34315 12 9C12 10.6569 10.6569 12 9 12C7.34315 12 6 10.6569 6 9Z" fill="#0870BA"></path></svg>