<svg xmlns:xlink="http://www.w3.org/1999/xlink" viewBox="0 0 20 20" xmlns="http://www.w3.org/2000/svg" width="20" height="20" fill="currentColor"><g fill="#4A545E"><g fill="#4A545E"><path d="M0,8.36c0.06-0.37,0.1-0.75,0.18-1.11c0.4-1.84,1.38-3.34,2.8-4.55c1.68-1.42,3.63-2.2,5.81-2.42
			c2.36-0.24,4.6,0.17,6.67,1.34c2.01,1.14,3.48,2.77,4.19,5c0.22,0.7,0.33,1.42,0.33,2.15c0.01,0.81,0.04,1.62,0,2.42
			c-0.13,2.33-0.98,4.35-2.71,5.94c-1.61,1.49-3.55,2.26-5.71,2.55c-1.86,0.25-3.69,0.08-5.46-0.55c-2.52-0.9-4.42-2.49-5.46-5.01
			c-0.33-0.81-0.52-1.66-0.61-2.53C0.03,11.53,0.01,11.47,0,11.41C0,10.39,0,9.38,0,8.36z M10.12,0.95c-1.33,0-2.48,0.18-3.68,0.61
			C4.55,2.24,3,3.35,1.9,5.03c-0.97,1.49-1.35,3.13-1.06,4.9c0.33,2.01,1.39,3.59,3,4.78c2.72,2,5.75,2.46,8.98,1.62
			c2.17-0.57,3.96-1.75,5.23-3.64c0.93-1.39,1.33-2.93,1.14-4.6c-0.23-1.98-1.19-3.58-2.7-4.85C14.62,1.66,12.41,0.99,10.12,0.95z
		M5.25,16.43c0,0.47,0,0.91,0,1.35c0,0.14,0.04,0.21,0.17,0.27c0.75,0.35,1.52,0.61,2.32,0.77c0.37,0.07,0.74,0.12,1.12,0.18
			c0-0.55,0-1.07,0-1.59C7.61,17.29,6.42,16.97,5.25,16.43z M11.13,18.99c0.16-0.02,0.29-0.03,0.43-0.05
			c1.03-0.14,2.02-0.42,2.96-0.86c0.05-0.02,0.12-0.08,0.12-0.13c0.01-0.48,0.01-0.96,0.01-1.47c-1.14,0.5-2.3,0.8-3.51,0.93
			C11.13,17.94,11.13,18.45,11.13,18.99z M19.02,12.54c-0.02,0.04-0.05,0.07-0.07,0.11c-0.44,0.78-0.98,1.49-1.67,2.07
			c-0.32,0.27-0.45,0.55-0.4,0.95c0.03,0.25,0.01,0.5,0.01,0.8C18.03,15.34,18.72,14.05,19.02,12.54z M3.01,16.37
			c0-0.41-0.01-0.78,0-1.14c0.01-0.17-0.05-0.27-0.18-0.38c-0.67-0.58-1.23-1.26-1.7-2.02c-0.06-0.09-0.11-0.19-0.17-0.29
			C1.26,14,1.93,15.26,3.01,16.37z M9.64,17.47c0,0.53,0,1.05,0,1.57c0.25,0,0.48,0,0.72,0c0-0.53,0-1.05,0-1.57
			C10.12,17.47,9.88,17.47,9.64,17.47z M16.14,15.66c-0.25,0.15-0.47,0.28-0.69,0.42c-0.03,0.02-0.06,0.07-0.06,0.11
			c0,0.47,0,0.93,0,1.45c0.26-0.18,0.48-0.33,0.7-0.49c0.03-0.02,0.05-0.07,0.05-0.1C16.14,16.59,16.14,16.14,16.14,15.66z
		M4.5,17.56c0-0.51,0-0.96,0-1.42c0-0.04-0.01-0.09-0.03-0.11c-0.23-0.15-0.46-0.29-0.72-0.45c0,0.47,0,0.9,0,1.33
			c0,0.06,0.03,0.13,0.07,0.16C4.03,17.24,4.25,17.39,4.5,17.56z" fill="#4A545E"></path><path d="M10.08,1.69c2.13,0.04,4.15,0.64,5.87,2.06c1.37,1.13,2.26,2.55,2.49,4.34c0.19,1.53-0.17,2.93-1.02,4.21
			c-1.14,1.69-2.75,2.75-4.69,3.29c-2.71,0.75-5.31,0.47-7.74-0.98c-1.56-0.93-2.71-2.23-3.23-4C1.12,8.45,1.6,6.5,3.01,4.78
			C4.23,3.28,5.84,2.41,7.7,1.96C8.45,1.78,9.22,1.7,10.08,1.69z M2.24,8.74c0.01,0.67,0.09,1.24,0.28,1.78
			c0.57,1.65,1.7,2.83,3.21,3.64c2.04,1.1,4.2,1.33,6.45,0.8c1.77-0.42,3.28-1.28,4.39-2.75c1.28-1.7,1.56-3.56,0.73-5.53
			c-0.62-1.47-1.73-2.5-3.12-3.23c-1.73-0.91-3.58-1.19-5.5-0.91c-1.76,0.25-3.32,0.94-4.6,2.19C2.91,5.85,2.26,7.21,2.24,8.74z" fill="#4A545E"></path></g><g fill="#4A545E"><path d="M7.27,13.26c0.06-0.47,0.08-0.94,0.08-1.57V5.97c0-0.57-0.02-1.05-0.08-1.54c0.5,0.02,0.88,0.03,1.56,0.03h2.32
			c2.1,0,2.78,1.05,2.78,2.89c0,1.88-0.74,2.96-2.79,2.96H9.46v1.35c0,0.62,0.03,1.14,0.08,1.6H7.27z M11.03,8.51
			c0.74,0,0.7-0.37,0.7-1.1c0-0.73,0.06-1.16-0.7-1.16H9.46v2.25H11.03z" fill="#4A545E"></path></g></g></svg>