<svg xmlns:xlink="http://www.w3.org/1999/xlink" xmlns="http://www.w3.org/2000/svg" width="165" height="137" viewBox="0 0 165 137" fill="none">
<path d="M80.7381 124.052C114.794 124.052 142.422 96.2875 142.422 61.9577C142.422 27.6279 114.794 0 80.7381 0C46.6819 0 19.054 27.7647 19.054 62.0945C19.054 96.4242 46.6819 124.052 80.7381 124.052Z" fill="#EDF2FF"/>
<path d="M111.101 123.231C101.664 123.505 90.4489 123.231 82.3793 123.095C74.4466 123.368 63.0945 123.505 53.6572 123.231C62.9577 117.897 66.2402 108.05 66.6506 101.485H97.8346C98.6552 107.913 101.938 117.897 111.101 123.231Z" fill="url(#paint0_linear_44_219)"/>
<g filter="url(#filter0_d_44_219)">
<path d="M141.328 18.7377V100.391C141.328 102.442 139.687 103.947 137.909 103.947H27.5338C25.619 103.947 24.1145 102.305 24.1145 100.391V18.7377C24.1145 16.8229 25.7558 15.1816 27.5338 15.1816H137.772C139.824 15.1816 141.328 16.8229 141.328 18.7377Z" fill="white"/>
</g>
<path d="M141.328 18.7377V89.0385H24.1145V18.7377C24.1145 16.8229 25.7558 15.1816 27.5338 15.1816H137.772C139.824 15.1816 141.328 16.8229 141.328 18.7377Z" fill="#989FB0"/>
<path d="M136.815 19.6952H28.0808V85.0722H136.951V19.6952H136.815Z" fill="white"/>
<path d="M82.516 99.0755C84.1573 99.0755 85.3882 97.8445 85.3882 96.2033C85.3882 94.562 84.1573 93.3311 82.516 93.3311C80.8747 93.3311 79.6438 94.562 79.6438 96.2033C79.6438 97.8445 80.8747 99.0755 82.516 99.0755Z" fill="#D0D8E6"/>
<path d="M130.523 31.7311V40.0742C130.523 41.3052 129.566 42.2626 128.335 42.2626H36.4239C35.193 42.2626 34.2356 41.3052 34.2356 40.0742V31.7311C34.2356 30.5002 35.193 29.5428 36.4239 29.5428H128.198C129.566 29.406 130.523 30.5002 130.523 31.7311Z" fill="#E5E9F1"/>
<path d="M47.0922 29.4059V42.3993H36.2872C35.0563 42.3993 34.0989 41.4419 34.0989 40.2109V31.8678C34.0989 30.6369 35.0563 29.6795 36.2872 29.6795L47.0922 29.4059Z" fill="#E3EAF2"/>
<path opacity="0.8" d="M130.523 49.2378V57.5809C130.523 58.8119 129.566 59.7693 128.335 59.7693H36.4239C35.193 59.7693 34.2356 58.8119 34.2356 57.5809V49.2378C34.2356 48.0069 35.193 47.0495 36.4239 47.0495H128.198C129.566 46.9127 130.523 48.0069 130.523 49.2378Z" fill="#E5E9F1"/>
<path d="M47.0922 29.4059V42.3993H36.2872C35.0563 42.3993 34.0989 41.4419 34.0989 40.2109V31.8678C34.0989 30.6369 35.0563 29.6795 36.2872 29.6795L47.0922 29.4059Z" fill="#989FB0"/>
<path d="M40.2536 38.7064C39.9801 38.7064 39.7065 38.5696 39.5698 38.4329L37.5182 36.3813C37.1079 35.971 37.1079 35.4239 37.5182 35.0136C37.9285 34.6033 38.4756 34.6033 38.8859 35.0136L40.1169 36.2445L43.1258 33.2355C43.5361 32.8252 44.0832 32.8252 44.4936 33.2355C44.9039 33.6458 44.9039 34.1929 44.4936 34.6033L40.8007 38.2961C40.6639 38.5696 40.3904 38.7064 40.2536 38.7064Z" fill="white"/>
<path opacity="0.5" d="M130.523 66.7448V75.0879C130.523 76.3188 129.566 77.2762 128.335 77.2762H36.4239C35.193 77.2762 34.2356 76.3188 34.2356 75.0879V66.7448C34.2356 65.5139 35.193 64.5565 36.4239 64.5565H128.198C129.566 64.4197 130.523 65.3771 130.523 66.7448Z" fill="#E5E9F1"/>
<path opacity="0.3" d="M130.523 84.1148V85.0722H34.0989V84.1148C34.0989 82.8839 35.0563 81.9265 36.2872 81.9265H128.198C129.566 81.9265 130.523 82.8839 130.523 84.1148Z" fill="#E5E9F1"/>
<path d="M33.0046 118.718C33.0046 121.043 31.0898 122.958 28.7647 122.958H5.23993C2.91481 122.958 1 121.043 1 118.718V63.4623C1 61.1372 2.91481 59.2224 5.23993 59.2224H28.6279C30.9531 59.2224 32.8679 61.1372 32.8679 63.4623L33.0046 118.718Z" fill="white"/>
<path d="M28.7647 59.0854C31.0898 59.0854 33.0046 61.0003 33.0046 63.3254V118.581C33.0046 120.906 31.0898 122.821 28.7647 122.821H5.23993C2.91481 122.821 1 120.906 1 118.581V63.4622C1 61.137 2.91481 59.2222 5.23993 59.2222L28.7647 59.0854Z" fill="#989FB0"/>
<path d="M30.953 63.4622V118.718C30.953 119.812 30.1324 120.906 28.9014 120.906H28.7646H5.23986H5.10309C4.00892 120.906 3.05151 119.949 3.05151 118.718V63.4622C3.05151 62.2312 4.00892 61.2738 5.10309 61.2738H8.52239C9.06948 61.2738 9.34302 61.6841 9.34302 62.0944C9.34302 62.9151 10.0269 63.7357 10.9843 63.7357H22.8834C23.7041 63.7357 24.5247 63.0518 24.5247 62.0944C24.5247 61.5473 24.935 61.2738 25.2086 61.2738H28.4911C29.8588 61.137 30.953 62.2312 30.953 63.4622Z" fill="white"/>
<path d="M19.0539 62.0944H15.9082C15.6346 62.0944 15.3611 61.8209 15.3611 61.5473C15.3611 61.2738 15.6346 61.0002 15.9082 61.0002H19.0539C19.3275 61.0002 19.601 61.2738 19.601 61.5473C19.4642 61.8209 19.1907 62.0944 19.0539 62.0944Z" fill="white"/>
<path d="M14.1302 62.0944H13.8567C13.5831 62.0944 13.3096 61.8209 13.3096 61.5473C13.3096 61.2738 13.5831 61.0002 13.8567 61.0002H14.1302C14.4037 61.0002 14.6773 61.2738 14.6773 61.5473C14.6773 61.8209 14.4037 62.0944 14.1302 62.0944Z" fill="white"/>
<path d="M27.6706 81.7897H6.33417C5.65031 81.7897 5.23999 81.2426 5.23999 80.6955V69.8906C5.23999 69.2067 5.78708 68.7964 6.33417 68.7964H27.8074C28.4912 68.7964 28.9015 69.3435 28.9015 69.8906V80.6955C28.7648 81.2426 28.3545 81.7897 27.6706 81.7897Z" fill="#989FB0"/>
<path d="M16.1816 78.0968C15.9081 78.0968 15.6345 77.96 15.4977 77.8233L13.4462 75.7717C13.0358 75.3614 13.0358 74.8143 13.4462 74.404C13.8565 73.9936 14.4036 73.9936 14.8139 74.404L16.0448 75.6349L19.0538 72.6259C19.4641 72.2156 20.0112 72.2156 20.4215 72.6259C20.8318 73.0362 20.8318 73.5833 20.4215 73.9936L16.8655 77.5497C16.5919 77.96 16.3184 78.0968 16.1816 78.0968Z" fill="white"/>
<path opacity="0.8" d="M27.6706 97.9287H6.33417C5.65031 97.9287 5.23999 97.3816 5.23999 96.8345V86.0295C5.23999 85.3457 5.78708 84.9354 6.33417 84.9354H27.8074C28.4912 84.9354 28.9015 85.4825 28.9015 86.0295V96.8345C28.7648 97.3816 28.3545 97.9287 27.6706 97.9287Z" fill="#E5E9F1"/>
<path opacity="0.5" d="M27.6706 114.068H6.33417C5.65031 114.068 5.23999 113.521 5.23999 112.974V102.169C5.23999 101.485 5.78708 101.075 6.33417 101.075H27.8074C28.4912 101.075 28.9015 101.622 28.9015 102.169V112.974C28.7648 113.658 28.3545 114.068 27.6706 114.068Z" fill="#E5E9F1"/>
<path opacity="0.3" d="M28.7648 118.581V120.77H28.6281H5.24004H5.10327V118.581C5.10327 117.897 5.65036 117.487 6.19745 117.487H27.6706C28.3545 117.487 28.7648 118.034 28.7648 118.581Z" fill="#E5E9F1"/>
<path d="M32.5942 24.7558C33.2781 24.7558 33.8252 24.2087 33.8252 23.5248C33.8252 22.841 33.2781 22.2939 32.5942 22.2939C31.9104 22.2939 31.3633 22.841 31.3633 23.5248C31.3633 24.2087 31.9104 24.7558 32.5942 24.7558Z" fill="#E3EAF2"/>
<path d="M36.5608 24.7558C37.2446 24.7558 37.7917 24.2087 37.7917 23.5248C37.7917 22.841 37.2446 22.2939 36.5608 22.2939C35.8769 22.2939 35.3298 22.841 35.3298 23.5248C35.3298 24.2087 35.8769 24.7558 36.5608 24.7558Z" fill="#E3EAF2"/>
<path d="M40.5271 24.7558C41.2109 24.7558 41.758 24.2087 41.758 23.5248C41.758 22.841 41.2109 22.2939 40.5271 22.2939C39.8432 22.2939 39.2961 22.841 39.2961 23.5248C39.2961 24.2087 39.8432 24.7558 40.5271 24.7558Z" fill="#E3EAF2"/>
<path d="M164.05 101.133C163.503 103.458 162.683 105.92 161.725 107.971C159.127 113.032 155.023 116.998 149.963 119.597C144.766 122.196 138.611 123.29 132.456 121.922C117.958 118.913 108.658 104.689 111.667 90.1911C114.676 75.6933 128.763 66.256 143.261 69.4018C148.458 70.496 152.972 73.0946 156.801 76.6507C163.23 83.2158 165.828 92.3795 164.05 101.133Z" fill="url(#paint1_linear_44_219)"/>
<path d="M146.27 93.3369H140.115V87.1822C140.115 85.9512 139.158 84.8571 137.79 84.8571C136.559 84.8571 135.465 85.8145 135.465 87.1822V93.3369H129.31C128.079 93.3369 126.985 94.2943 126.985 95.662C126.985 97.0298 127.943 97.9872 129.31 97.9872H135.465V104.142C135.465 105.373 136.422 106.467 137.79 106.467C139.021 106.467 140.115 105.51 140.115 104.142V97.9872H146.27C147.501 97.9872 148.595 97.0298 148.595 95.662C148.732 94.2943 147.638 93.3369 146.27 93.3369Z" fill="white"/>
<path d="M1.42554 123.381L159.41 123.381" stroke="#989FB0" stroke-width="2" stroke-miterlimit="10" stroke-linecap="round" stroke-linejoin="round"/>
<path d="M11.6642 53.6272C13.9286 53.6272 15.7642 51.7916 15.7642 49.5272C15.7642 47.2629 13.9286 45.4272 11.6642 45.4272C9.39984 45.4272 7.56421 47.2629 7.56421 49.5272C7.56421 51.7916 9.39984 53.6272 11.6642 53.6272Z" fill="#EDF2FF"/>
<path d="M7.56416 40.3273C9.11056 40.3273 10.3642 39.0737 10.3642 37.5273C10.3642 35.9809 9.11056 34.7273 7.56416 34.7273C6.01777 34.7273 4.76416 35.9809 4.76416 37.5273C4.76416 39.0737 6.01777 40.3273 7.56416 40.3273Z" fill="#EDF2FF"/>
<path d="M124.588 7.51473C126.135 7.51473 127.388 6.26113 127.388 4.71473C127.388 3.16834 126.135 1.91473 124.588 1.91473C123.042 1.91473 121.788 3.16834 121.788 4.71473C121.788 6.26113 123.042 7.51473 124.588 7.51473Z" fill="#EDF2FF"/>
<path d="M154.21 63.9408C157.082 63.9408 159.41 61.6127 159.41 58.7408C159.41 55.8689 157.082 53.5408 154.21 53.5408C151.338 53.5408 149.01 55.8689 149.01 58.7408C149.01 61.6127 151.338 63.9408 154.21 63.9408Z" fill="#EDF2FF"/>
<defs>
<filter id="filter0_d_44_219" x="2.1145" y="4.18164" width="161.214" height="132.765" filterUnits="userSpaceOnUse" color-interpolation-filters="sRGB">
<feFlood flood-opacity="0" result="BackgroundImageFix"/>
<feColorMatrix in="SourceAlpha" type="matrix" values="0 0 0 0 0 0 0 0 0 0 0 0 0 0 0 0 0 0 127 0" result="hardAlpha"/>
<feOffset dy="11"/>
<feGaussianBlur stdDeviation="11"/>
<feColorMatrix type="matrix" values="0 0 0 0 0.397708 0 0 0 0 0.47749 0 0 0 0 0.575 0 0 0 0.27 0"/>
<feBlend mode="normal" in2="BackgroundImageFix" result="effect1_dropShadow_44_219"/>
<feBlend mode="normal" in="SourceGraphic" in2="effect1_dropShadow_44_219" result="shape"/>
</filter>
<linearGradient id="paint0_linear_44_219" x1="82.3906" y1="122.624" x2="82.3906" y2="103.149" gradientUnits="userSpaceOnUse">
<stop stop-color="#E8ECF5"/>
<stop offset="0.9913" stop-color="#BDC4D7"/>
</linearGradient>
<linearGradient id="paint1_linear_44_219" x1="111.077" y1="95.6613" x2="164.607" y2="95.6613" gradientUnits="userSpaceOnUse">
<stop stop-color="#B0BACC"/>
<stop offset="1" stop-color="#969EAE"/>
</linearGradient>
</defs>
</svg>