<svg xmlns:xlink="http://www.w3.org/1999/xlink" xmlns="http://www.w3.org/2000/svg" width="120" height="96" viewBox="0 0 120 96" fill="none">
<path d="M111.602 68.3097C109.702 68.8839 105.444 69.7938 105.359 69.7251C98.6741 64.828 91.9263 60.0131 85.1151 55.2804C85.4366 55.0661 85.75 54.8437 86.0472 54.6091C87.9114 53.1493 88.5847 51.0344 87.6041 48.8102C86.5567 46.4587 84.555 44.4692 82.9274 42.5079C79.3351 38.181 75.6282 33.9531 71.8068 29.8244C67.9914 25.73 64.1659 21.5142 59.9724 17.808C58.2781 16.3159 56.3087 15.1229 54.0017 15.0077C51.8827 14.9046 49.9801 15.8427 48.8801 17.6726C47.4992 19.9695 47.2788 23.0469 46.8299 25.6268C46.2665 28.8619 45.7819 32.1037 45.3761 35.3523C45.1834 36.893 45.0102 38.4357 44.8565 39.9805C36.2209 42.1682 24.2996 45.2213 23.0197 45.47C21.5558 45.7551 20.7491 45.8097 19.542 45.4842C18.577 45.2204 17.6312 44.8907 16.7113 44.4975C15.9025 44.1497 15.0007 43.6887 14.1111 43.5694C12.4551 43.3672 12.3419 44.8351 12.8191 45.7551C13.2235 46.5255 14.5276 47.6901 15.1483 48.2785C13.9574 47.9024 12.1539 46.7924 10.878 46.5315C9.44449 46.2384 8.20101 46.4284 8.35467 48.0844C8.53665 50.0699 11.4604 51.9665 13.2073 52.937C10.6839 52.1606 9.90549 51.3801 8.55687 51.5783C7.66317 51.7097 6.93932 52.2758 7.00403 53.1311C7.06873 53.9864 7.94018 54.8194 8.74895 55.2663C11.4705 56.7726 14.0282 57.5895 17.0955 57.4014C16.336 58.7151 15.7527 60.123 15.3606 61.5888C15.2941 61.9493 15.5146 62.3008 15.8682 62.3976C17.3866 62.9314 18.9496 60.9236 19.9322 60.036C21.1656 58.9239 22.3734 57.7869 23.5555 56.625L44.0477 51.0344C44.0376 51.2507 44.0275 51.4671 44.0194 51.6854C41.9712 53.6609 39.5166 55.7879 38.6411 58.5135C37.0458 63.4733 42.8669 70.182 48.0168 67.9134L48.1725 67.8426C48.4541 67.8248 48.7343 67.7897 49.0116 67.7375C50.203 67.4989 51.3781 67.1849 52.5297 66.7973C51.3263 71.1439 49.8762 75.4185 48.1866 79.6001C46.5691 83.5227 44.806 87.6879 42.8103 91.4689C42.6284 91.8166 42.2219 92.5931 41.7994 93.4079C41.5121 93.9572 41.5328 94.6167 41.8541 95.1468C42.1754 95.677 42.7505 96.0005 43.3704 96H59.653C61.9762 96 61.222 94.154 60.7751 93.6768C60.0531 92.9788 59.2895 92.3252 58.4883 91.7196C58.0419 91.3717 57.8823 90.7688 58.0981 90.2456C58.3003 89.7765 58.5793 89.1254 58.9817 88.2985C63.3753 80.2573 66.5926 71.6274 68.5353 62.6726C68.87 62.4353 69.1672 62.149 69.4169 61.8234L70.0234 61.6394C79.4112 68.3582 95.3218 79.4323 100.441 83.001C101.371 83.6442 102.64 83.4587 103.347 82.5764C104.546 81.0782 106.301 78.8257 107.259 77.3194L112.334 69.3894C112.642 68.9183 112.225 68.1257 111.602 68.3097Z" fill="#E5E4FF"/>
<path d="M44.5149 40.3501C44.4117 43.8682 44.3127 46.982 44.2075 50.5002" stroke="#00203F" stroke-width="1.20842" stroke-linecap="round" stroke-linejoin="round"/>
<path d="M70.418 61.6396C70.418 61.6396 71.3602 61.211 72.0355 60.9885C74.5569 60.1515 77.0519 59.2214 79.4802 58.1396" stroke="#00203F" stroke-width="1.20842" stroke-linecap="round" stroke-linejoin="round"/>
<path d="M61.5212 33.1203C63.5432 34.663 66.6873 34.4447 68.4706 32.6411" stroke="#00203F" stroke-width="1.20842" stroke-linecap="round" stroke-linejoin="round"/>
<path d="M66.2729 28.979L66.8168 29.6624" stroke="#00203F" stroke-width="1.20842" stroke-linecap="round" stroke-linejoin="round"/>
<path d="M59.3982 30.5972L59.9421 31.2806" stroke="#00203F" stroke-width="1.20842" stroke-linecap="round" stroke-linejoin="round"/>
<path d="M70.4563 61.0166C71.6724 64.0535 72.5341 67.2205 73.0241 70.455" stroke="#00203F" stroke-width="1.20842" stroke-linecap="round" stroke-linejoin="round"/>
<path d="M57.4287 71.0512L58.1061 65.2584C58.2112 64.3566 58.3285 63.4225 58.7955 62.644" stroke="#00203F" stroke-width="1.20842" stroke-linecap="round" stroke-linejoin="round"/>
<path d="M57.0182 68.3219C54.7031 68.5079 52.2445 68.6009 50.1032 69.3005C49.4259 69.4238 49.3228 69.9415 49.248 70.4085C49.1051 71.2901 48.9622 72.1716 48.8193 73.0532C48.5133 74.9403 48.2087 76.8275 47.9054 78.7146C47.2988 82.443 46.9187 87.0995 46.391 90.834C46.3101 91.4062 46.4982 91.7297 47.497 91.6772C59.6002 91.0423 71.7055 89.4146 83.7784 88.5351C84.1828 88.5068 84.3163 88.2803 84.2576 88.07C83.9867 82.3682 82.0133 72.2141 81.2247 68.3542C81.0448 67.4707 79.9226 66.8317 78.6306 66.8762C74.4493 67.0076 58.2718 68.2208 57.0182 68.3219Z" fill="#7CD4FD"/>
<path d="M57.1053 89.3014C56.5499 82.8083 56.2312 76.3018 56.1489 69.7817" stroke="#00203F" stroke-width="1.20842" stroke-linecap="round" stroke-linejoin="round"/>
<path d="M52.2002 72.8003C52.0978 77.3496 52.0351 81.9003 52.0122 86.4523" stroke="#00203F" stroke-width="1.20842" stroke-linecap="round" stroke-linejoin="round"/>
<path d="M49.2947 89.0144C49.2947 89.0144 51.078 87.0309 52.0789 86.4526C52.8998 87.2796 54.5396 89.0468 54.5396 89.0468" stroke="#00203F" stroke-width="1.20842" stroke-linecap="round" stroke-linejoin="round"/>
<path d="M64.5642 78.6256C65.5666 80.0583 66.6714 81.4166 67.8701 82.6897L74.4474 75.0347" stroke="#00203F" stroke-width="1.20842" stroke-linecap="round" stroke-linejoin="round"/>
<path d="M65.1487 63.9081C65.9322 61.824 65.7423 59.4987 64.6311 57.5693" stroke="#00203F" stroke-width="1.20842" stroke-linecap="round" stroke-linejoin="round"/>
<path d="M68.2806 63.2204C69.1096 61.3036 68.5394 57.9634 67.4092 56.1982" stroke="#00203F" stroke-width="1.20842" stroke-linecap="round" stroke-linejoin="round"/>
<path d="M61.9256 62.2921C60.2636 62.9149 58.187 61.9989 57.5259 60.3511" stroke="#00203F" stroke-width="1.20842" stroke-linecap="round" stroke-linejoin="round"/>
<path d="M58.4135 62.4561C55.533 64.9905 52.113 66.8354 48.413 67.8506C45.9625 68.5219 43.0853 68.7322 41.122 67.1187C39.83 66.0572 39.1809 64.3689 39.0131 62.7048C38.7179 59.7973 39.7289 56.8796 41.2858 54.4149C42.8426 51.9502 44.9252 49.8474 46.9795 47.7749" stroke="#00203F" stroke-width="1.20842" stroke-linecap="round" stroke-linejoin="round"/>
<path d="M55.906 51.3701C55.1728 52.7005 54.3856 54 53.5444 55.2684" stroke="#00203F" stroke-width="1.20842" stroke-linecap="round" stroke-linejoin="round"/>
<path d="M49.7212 57.3849L58.6905 52.4756C60.8661 51.2847 63.3631 50.0493 65.7207 50.8217C66.6973 51.1391 67.5404 51.7801 68.2643 52.512C69.5543 53.8222 70.5147 55.4984 70.7876 57.3182C71.0606 59.1379 70.7876 61.2811 69.3844 62.4781C68.0358 63.6306 66.0402 64.316 64.827 64.3625C63.4521 65.4281 61.8083 66.433 60.0896 65.6242C58.371 64.8155 58.7026 62.9816 59.0787 62.3608" stroke="#00203F" stroke-width="1.20842" stroke-linecap="round" stroke-linejoin="round"/>
</svg>