<svg xmlns:xlink="http://www.w3.org/1999/xlink" xmlns="http://www.w3.org/2000/svg" width="310" height="154" viewBox="0 0 310 154" fill="none">
<path d="M145.875 81.8778C145.777 79.8864 145.728 77.8949 145.728 75.9035" stroke="#00203F" stroke-width="3.55747" stroke-linecap="round" stroke-linejoin="round"/>
<path d="M149.989 54.0502C146.61 53.0723 143.131 53.7806 139.879 54.9476C136.027 56.3319 132.329 57.8209 128.302 58.5694C120.269 60.0343 111.934 59.4628 103.863 58.7344C99.5129 58.3629 95.1936 57.7365 90.9309 56.8591C89.0554 51.8449 87.1083 46.8535 85.0896 41.8848C80.8608 31.4701 76.6759 20.7897 71.3209 10.8095C69.1605 6.78525 66.1982 3.09098 61.6803 1.15129C57.5216 -0.647555 52.916 -0.361833 49.2175 2.17345C44.5549 5.35664 41.5751 10.8498 38.5426 15.2563C34.7448 20.7749 31.093 26.3754 27.5873 32.0576C20.5321 43.4946 3.64339 75.6927 2.34628 79.4835C1.03164 81.8779 -0.0507468 84.3891 0.00183868 86.8922C0.0938633 91.1941 3.94575 93.5644 8.15697 94.3652C9.69948 94.663 11.2727 94.8683 12.859 95.0332C10.8169 105.529 11.5969 116.277 20.6986 123.968C18.604 133.678 16.4786 143.204 15.0019 149.618C14.5636 151.413 16.5444 152.971 18.547 152.971H64.5593C65 152.984 65.422 152.807 65.6987 152.492C66.3799 152.075 66.6055 151.251 66.2201 150.588C65.3733 148.777 64.1683 147.126 62.6662 145.719C62.6903 145.612 62.7005 145.502 62.6969 145.393C65.9265 130.668 68.4901 115.324 70.725 99.8422C72.8591 99.8704 74.9975 99.8624 77.1316 99.806C82.3902 99.6692 88.1132 99.6209 93.1921 98.2969C98.1352 97.0092 101.238 93.6127 101.08 88.7876C100.997 85.9505 100.23 83.0973 99.2833 80.2884C100.233 80.4332 101.187 80.5674 102.145 80.6908C109.857 81.6928 117.688 81.9866 125.418 81.0087C129.212 80.5544 132.954 79.7853 136.597 78.7109C138.585 78.1125 140.534 77.4098 142.434 76.6062C142.434 76.6062 144.104 75.8496 143.885 75.6162C144.323 75.8577 145.05 76.8235 145.431 77.0529C148.359 78.7229 151.742 76.6706 153.718 74.3043C155.44 72.3193 156.49 69.9141 156.737 67.3866C158.034 61.6923 155.931 55.7645 149.989 54.0502Z" fill="#E5E4FF"/>
<path d="M142.335 75.8312C142.218 73.7577 142.233 71.68 142.38 69.608C142.496 68.002 142.827 66.1912 144.17 65.4404C144.479 66.7011 144.944 68.1506 146.121 68.5641C147.563 69.074 149.013 67.5965 149.398 66.0587C149.935 63.5555 149.006 60.9798 146.936 59.2333C145.017 57.7378 142.498 57.0124 139.967 57.2258" stroke="#00203F" stroke-width="3.55747" stroke-linecap="round" stroke-linejoin="round"/>
<path d="M145.75 57.5911C146.041 56.4308 147.437 56.0775 148.579 55.945" stroke="#00203F" stroke-width="3.55747" stroke-linecap="round" stroke-linejoin="round"/>
<path d="M155.382 62.2967C153.897 63.6329 151.922 64.4415 149.823 64.5732" stroke="#00203F" stroke-width="3.55747" stroke-linecap="round" stroke-linejoin="round"/>
<path d="M154.259 70.5997C153.131 71.7641 152.021 72.4426 148.395 72.4426C144.77 72.4426 143.807 71.9126 142.272 71.4067" stroke="#00203F" stroke-width="3.55747" stroke-linecap="round" stroke-linejoin="round"/>
<path d="M146.811 56.4027C147.831 47.3368 149.429 38.2991 151.032 29.3015" stroke="#00203F" stroke-width="3.55747" stroke-linecap="round" stroke-linejoin="round"/>
<path fill-rule="evenodd" clip-rule="evenodd" d="M143.087 40.676C141.507 39.339 139.336 39.5237 137.752 40.4953C134.645 42.4064 136.771 44.2413 139.967 44.4581C143.163 44.6749 147.706 46.2889 147.706 46.2889C147.706 46.2889 144.125 41.4227 143.087 40.676Z" stroke="#00203F" stroke-width="3.55747" stroke-linecap="round" stroke-linejoin="round"/>
<path d="M160.095 14.2774C155.235 11.2581 149.353 10.5073 143.109 14.3737C136.865 18.2402 137.738 26.6476 141.296 30.6706C146.032 36.0667 157.486 36.4241 162.633 31.4013C167.781 26.3786 166.196 18.0675 160.095 14.2774Z" fill="#F08B7C"/>
<path d="M140.097 20.2236C140.961 19.6267 142.134 19.5388 143.096 19.9987C143.885 20.456 144.501 21.1166 144.864 21.8938C145.488 23.0169 145.94 24.2109 146.207 25.4431C148.109 23.2228 150.812 21.0507 153.91 21.3799C155.011 21.5002 156.039 21.9336 156.846 22.6165C158.256 23.821 158.793 25.6237 159.048 27.3542C160.189 25.1299 161.572 22.7008 164.142 21.8778" stroke="#00203F" stroke-width="3.55747" stroke-linecap="round" stroke-linejoin="round"/>
<path d="M152.813 21.1751C153.041 19.5883 153.449 18.0264 154.03 16.5137" stroke="#00203F" stroke-width="3.55747" stroke-linecap="round" stroke-linejoin="round"/>
<path d="M156.618 22.1668C158.123 20.9164 159.546 19.5878 160.879 18.188" stroke="#00203F" stroke-width="3.55747" stroke-linecap="round" stroke-linejoin="round"/>
<path d="M148.865 22.0303L147.469 17.5295" stroke="#00203F" stroke-width="3.55747" stroke-linecap="round" stroke-linejoin="round"/>
<path d="M145.432 8.11837L144.573 7.60445" stroke="#00203F" stroke-width="3.55747" stroke-linecap="round" stroke-linejoin="round"/>
<path d="M157.137 7.82126L157.844 7.74899" stroke="#00203F" stroke-width="3.55747" stroke-linecap="round" stroke-linejoin="round"/>
<path d="M165.35 13.7675L165.86 13.0849" stroke="#00203F" stroke-width="3.55747" stroke-linecap="round" stroke-linejoin="round"/>
<path d="M49.8933 45.514C50.2827 46.5258 51.8359 47.6661 53.9217 48.1358C56.0075 48.6056 61.0026 48.8585 63.8985 48.1358" stroke="#00203F" stroke-width="3.55747" stroke-linecap="round" stroke-linejoin="round"/>
<path d="M55.0988 36.4281L55.2465 32.9471" stroke="#00203F" stroke-width="3.55747" stroke-linecap="round" stroke-linejoin="round"/>
<path d="M64.6236 37.0785L64.8743 33.9549" stroke="#00203F" stroke-width="3.55747" stroke-linecap="round" stroke-linejoin="round"/>
<path d="M20.0096 123.26C22.2197 114.767 24.5404 105.702 25.5128 97.0814C21.7247 96.8496 17.1718 96.5259 13.4278 95.9584" stroke="#00203F" stroke-width="3.55747" stroke-linecap="round" stroke-linejoin="round"/>
<path d="M18.3513 114.026C19.163 115.381 20.2223 116.602 21.4845 117.639" stroke="#00203F" stroke-width="3.55747" stroke-linecap="round" stroke-linejoin="round"/>
<path d="M49.4994 97.0103C47.2346 114.102 44.84 127.645 41.6889 144.624C41.5734 145.332 41.7114 146.055 42.0828 146.688C42.6468 147.688 43.8732 148.177 44.934 148.804C45.9948 149.43 46.9347 150.538 46.4782 151.582" stroke="#00203F" stroke-width="3.55747" stroke-linecap="round" stroke-linejoin="round"/>
<path d="M166.187 31.2412L161.133 30.2816C160.104 30.0889 158.895 29.9323 158.125 30.5707C157.467 31.1207 157.418 32.0763 157.767 32.8191C158.174 33.5407 158.742 34.1791 159.437 34.6941L164.548 39.0785" stroke="#00203F" stroke-width="3.55747" stroke-linecap="round" stroke-linejoin="round"/>
<path d="M165.952 30.7514C164.296 29.4794 162.937 27.9095 164.513 26.5008C164.783 26.258 165.099 26.0666 165.444 25.9367C164.629 25.1431 164.124 24.1082 164.012 23.0037C164.018 22.454 164.403 21.9734 164.958 21.8228C168.695 20.7365 172.284 22.3869 175.111 24.6611C176.749 25.9787 178.188 27.51 179.867 28.7856C180.423 29.204 181.01 29.5845 181.623 29.9244C182.922 30.3595 184.247 30.7211 185.591 31.0072C189.46 31.8727 193.355 32.6191 197.205 33.5477C199.097 34.0033 200.997 34.4658 202.889 34.9494C205.097 27.1141 207.417 19.0895 210.457 11.4715C212.327 6.78638 214.897 3.57306 218.32 1.65978C222.207 -0.533831 226.592 -0.554856 230.343 1.60722C233.961 3.70972 236.704 7.21389 239.122 10.3466C239.704 11.0965 240.252 11.8008 240.804 12.4807C243.521 15.8236 246.153 19.5591 248.701 23.1754C249.61 24.4649 250.508 25.7439 251.399 26.9809C260.896 40.2092 267.228 50.3712 276.015 64.437L276.751 65.5899C278.061 67.6924 279.353 69.942 279.552 72.444C279.858 76.2986 277.266 79.4523 272.606 80.8996L275.842 85.8895C277.789 88.8891 279.688 91.5628 282.942 93.406C289.429 97.0853 296.865 99.5102 303.848 102.166C304.028 102.237 304.192 102.34 304.33 102.471C304.761 102.569 305.106 102.875 305.239 103.277C308.436 112.209 309.856 121.631 309.425 131.058C309.388 131.882 308.32 132.726 307.488 132.11C304.113 129.632 301.543 126.289 298.363 123.626C292.674 121.437 287.019 119.176 281.396 116.842C275.875 114.54 270.235 112.244 265.302 108.88C256.784 103.074 251.009 94.6289 245.612 86.2399C242.645 86.8497 239.645 87.4524 236.63 88.0165C235.158 92.5836 233.685 97.1496 232.213 101.714C230.582 106.778 228.686 111.901 228.473 117.241C228.255 122.666 229.319 128.171 230.339 133.49C231.359 138.809 232.677 144.157 234.23 149.403C234.285 149.579 234.298 149.764 234.267 149.946C234.657 150.671 234.3 151.785 233.162 151.785H202.996C201.523 151.785 201.357 149.827 202.528 149.413C202.624 149.31 202.737 149.222 202.863 149.154C204.296 148.39 205.601 147.428 206.736 146.298C206.08 141.29 204.232 136.525 202.948 131.647C201.611 126.566 201.206 121.59 202.392 116.446C203.684 110.839 205.539 105.331 207.332 99.8676C208.256 97.0643 209.172 94.2329 210.211 91.4576C210.24 91.3805 210.269 91.3035 210.303 91.2229C209.198 91.2754 208.075 91.3105 206.953 91.3105H206.824C205.248 91.7029 203.67 92.0849 202.09 92.4563C198.72 93.2459 195.34 93.9806 191.948 94.6605C189.14 95.2246 185.889 96.2864 183.036 95.4524C181.509 95.0074 180.202 94.0507 178.906 93.1957C177.61 92.3407 175.858 91.5312 174.813 90.3924C174.125 89.6702 174.068 88.5867 174.677 87.8028C175.011 87.3639 175.511 87.0651 176.072 86.9688C173.826 86.4011 171.095 85.5005 169.652 85.1291C168.209 84.7577 167.704 82.8444 168.242 81.7931C168.779 80.7419 171.603 80.8295 173.495 80.7629C172.431 80.2478 171.179 80.1637 170.16 79.596C169.406 79.2261 168.928 78.4906 168.918 77.6835C168.907 76.8764 169.365 76.1295 170.108 75.7414C173.362 73.7896 177.898 76.5579 180.437 79.0914C184.59 77.858 188.702 76.517 192.773 75.0686C193.053 73.667 193.395 72.2653 193.734 70.8882C193.973 69.914 194.198 68.9959 194.4 68.0848C195.538 62.9477 196.763 57.7896 198.081 52.6665L188.462 48.6192C183.585 46.5692 178.571 44.691 173.8 42.4273C172.064 41.63 170.596 40.3858 169.563 38.8355C169.037 38.0611 168.566 37.1325 167.804 36.5368C167.042 35.9411 166.052 35.8009 165.312 35.1982C164.757 34.7669 164.407 34.1429 164.338 33.4647C164.269 32.7865 164.487 32.11 164.944 31.5854C165.214 31.2423 165.558 30.958 165.952 30.7514Z" fill="#B9E6FE"/>
<path fill-rule="evenodd" clip-rule="evenodd" d="M165.492 26.0839C167.042 26.8589 168.405 27.933 169.494 29.2377L165.492 26.0839Z" fill="#B9E6FE"/>
<path d="M165.492 26.0839C167.042 26.8589 168.405 27.933 169.494 29.2377" stroke="#00203F" stroke-width="3.55747" stroke-linecap="round" stroke-linejoin="round"/>
<path fill-rule="evenodd" clip-rule="evenodd" d="M166.085 32.1567C167.166 32.2846 168.165 32.7753 168.901 33.5408L166.085 32.1567Z" fill="#B9E6FE"/>
<path d="M166.085 32.1567C167.166 32.2846 168.165 32.7753 168.901 33.5408" stroke="#00203F" stroke-width="3.55747" stroke-linecap="round" stroke-linejoin="round"/>
<path fill-rule="evenodd" clip-rule="evenodd" d="M236.855 83.0546L206.559 91.0476L236.855 83.0546Z" fill="#B9E6FE"/>
<path d="M236.855 83.0546L206.559 91.0476" stroke="#00203F" stroke-width="3.55747" stroke-linecap="round" stroke-linejoin="round"/>
<path fill-rule="evenodd" clip-rule="evenodd" d="M199.259 71.4384L194.113 73.3867L199.259 71.4384Z" fill="#B9E6FE"/>
<path d="M199.259 71.4384L194.113 73.3867" stroke="#00203F" stroke-width="3.55747" stroke-linecap="round" stroke-linejoin="round"/>
<path fill-rule="evenodd" clip-rule="evenodd" d="M174.783 80.7419C175.805 80.8549 176.78 81.209 177.621 81.7721L174.783 80.7419Z" fill="#B9E6FE"/>
<path d="M174.783 80.7419C175.805 80.8549 176.78 81.209 177.621 81.7721" stroke="#00203F" stroke-width="3.55747" stroke-linecap="round" stroke-linejoin="round"/>
<path fill-rule="evenodd" clip-rule="evenodd" d="M180.736 86.8916C179.804 86.5708 178.818 86.4175 177.828 86.4395L180.736 86.8916Z" fill="#B9E6FE"/>
<path d="M180.736 86.8916C179.804 86.5708 178.818 86.4175 177.828 86.4395" stroke="#00203F" stroke-width="3.55747" stroke-linecap="round" stroke-linejoin="round"/>
<path fill-rule="evenodd" clip-rule="evenodd" d="M213.878 37.5939C214.685 36.6078 215.94 36.0504 217.253 36.0955C218.565 36.1406 219.774 36.7827 220.504 37.8217" fill="#B9E6FE"/>
<path d="M213.878 37.5939C214.685 36.6078 215.94 36.0504 217.253 36.0955C218.565 36.1406 219.774 36.7827 220.504 37.8217" stroke="#00203F" stroke-width="3.55747" stroke-linecap="round" stroke-linejoin="round"/>
<path fill-rule="evenodd" clip-rule="evenodd" d="M231.493 37.3101C232.123 36.5048 233.147 36.0685 234.198 36.1578C235.249 36.2471 236.176 36.8492 236.646 37.7481" fill="#B9E6FE"/>
<path d="M231.493 37.3101C232.123 36.5048 233.147 36.0685 234.198 36.1578C235.249 36.2471 236.176 36.8492 236.646 37.7481" stroke="#00203F" stroke-width="3.55747" stroke-linecap="round" stroke-linejoin="round"/>
<path fill-rule="evenodd" clip-rule="evenodd" d="M222.466 47.7176C223.994 48.7689 228.102 48.6427 229.56 47.5529L222.466 47.7176Z" fill="#B9E6FE"/>
<path d="M222.466 47.7176C223.994 48.7689 228.102 48.6427 229.56 47.5529" stroke="#00203F" stroke-width="3.55747" stroke-linecap="round" stroke-linejoin="round"/>
</svg>