<svg xmlns:xlink="http://www.w3.org/1999/xlink" viewBox="0 0 14 18" xmlns="http://www.w3.org/2000/svg" width="20" height="20" fill="currentColor" class="group-hover:scale-110 transition-all duration-300 ease-out"><path fill-rule="evenodd" clip-rule="evenodd" d="M7.83565 0.281476C8.0944 0.604922 8.04196 1.07689 7.71852 1.33565L6.88808 2H7C7.94775 2 8.85331 2.18876 9.6797 2.53145C10.5358 2.88647 11.3056 3.40606 11.9498 4.05027C12.5939 4.69445 13.1135 5.46414 13.4685 6.32024C13.8112 7.14665 14 8.05222 14 9C14 9.94777 13.8112 10.8533 13.4685 11.6797C13.3099 12.0624 12.8711 12.2439 12.4884 12.0852C12.1058 11.9266 11.9243 11.4878 12.0829 11.1051C12.3514 10.4577 12.5 9.74714 12.5 9C12.5 8.25285 12.3514 7.54229 12.0829 6.89483C11.8044 6.22322 11.3962 5.61806 10.8891 5.11092C10.3819 4.60377 9.77676 4.19556 9.10512 3.91704C8.45767 3.64856 7.74713 3.5 7 3.5H6.88808L7.71852 4.16435C8.04196 4.4231 8.0944 4.89507 7.83565 5.21852C7.57689 5.54197 7.10492 5.59441 6.78147 5.33565L4.28147 3.33565C4.10356 3.19332 3.99999 2.97783 3.99999 2.75C3.99999 2.52216 4.10356 2.30667 4.28147 2.16435L6.78147 0.164345C7.10492 -0.0944116 7.57689 -0.0419706 7.83565 0.281476ZM1.5115 5.91485C1.89413 6.07351 2.07568 6.51231 1.91702 6.89493C1.64855 7.54236 1.5 8.25289 1.5 9C1.5 9.7471 1.64855 10.4576 1.91701 11.1051C2.19553 11.7767 2.60375 12.3819 3.11093 12.8891C3.61808 13.3962 4.22327 13.8045 4.8949 14.083C5.54235 14.3514 6.25288 14.5 7 14.5H7.11191L6.28147 13.8356C5.95803 13.5769 5.90559 13.1049 6.16434 12.7815C6.4231 12.458 6.89507 12.4056 7.21852 12.6643L9.71852 14.6643C9.89643 14.8067 9.99999 15.0222 9.99999 15.25C9.99999 15.4778 9.89643 15.6933 9.71852 15.8356L7.21852 17.8356C6.89507 18.0944 6.4231 18.042 6.16434 17.7185C5.90559 17.3951 5.95803 16.9231 6.28147 16.6643L7.11191 16H7C6.05226 16 5.14671 15.8112 4.32033 15.4686C3.4642 15.1135 2.69447 14.594 2.05027 13.9498C1.40604 13.3055 0.886441 12.5358 0.531417 11.6796C0.188751 10.8532 0 9.94772 0 9C0 8.05227 0.188754 7.14674 0.531425 6.32036C0.690086 5.93774 1.12888 5.75619 1.5115 5.91485Z" fill="#347434"></path></svg>