<svg xmlns:xlink="http://www.w3.org/1999/xlink" xmlns="http://www.w3.org/2000/svg" width="40" height="40" viewBox="0 0 40 40" fill="none">
<rect width="40" height="40" rx="20" fill="#D0F8AB"/>
<path d="M29.1666 13.3333V18.3333M29.1666 18.3333H24.1666M29.1666 18.3333L25.2999 14.7C24.4043 13.8039 23.2963 13.1493 22.0792 12.7973C20.8622 12.4453 19.5758 12.4073 18.3402 12.6869C17.1045 12.9665 15.9598 13.5545 15.0128 14.3962C14.0659 15.2378 13.3476 16.3056 12.9249 17.5M10.8333 26.6666V21.6666M10.8333 21.6666H15.8333M10.8333 21.6666L14.6999 25.3C15.5955 26.1961 16.7036 26.8506 17.9206 27.2027C19.1376 27.5547 20.424 27.5927 21.6597 27.3131C22.8954 27.0335 24.0401 26.4455 24.987 25.6038C25.934 24.7621 26.6523 23.6943 27.0749 22.5" stroke="#4CA30D" stroke-width="1.66667" stroke-linecap="round" stroke-linejoin="round"/>
</svg>