<svg xmlns:xlink="http://www.w3.org/1999/xlink" xmlns="http://www.w3.org/2000/svg" width="48" height="48" viewBox="0 0 48 48" fill="none">
<rect width="48" height="48" rx="24" fill="#E6F4D7"/>
<path d="M35 16.0001V22.0001M35 22.0001H29M35 22.0001L30.36 17.6401C29.2853 16.5648 27.9556 15.7793 26.4952 15.3568C25.0348 14.9344 23.4911 14.8888 22.0083 15.2243C20.5255 15.5598 19.1518 16.2655 18.0155 17.2755C16.8791 18.2855 16.0172 19.5669 15.51 21.0001M13 32.0001V26.0001M13 26.0001H19M13 26.0001L17.64 30.3601C18.7147 31.4354 20.0444 32.2209 21.5048 32.6433C22.9652 33.0657 24.5089 33.1113 25.9917 32.7758C27.4745 32.4403 28.8482 31.7346 29.9845 30.7247C31.1209 29.7147 31.9828 28.4333 32.49 27.0001" stroke="#4F7A21" stroke-width="2" stroke-linecap="round" stroke-linejoin="round"/>
</svg>