<svg xmlns:xlink="http://www.w3.org/1999/xlink" xmlns="http://www.w3.org/2000/svg" width="36" height="36" viewBox="0 0 36 36" fill="none">
<path d="M34.5 6V15H25.5" stroke="#70F5EE" stroke-width="3" stroke-linecap="round" stroke-linejoin="round"/>
<path d="M1.5 30V21H10.5" stroke="#70F5EE" stroke-width="3" stroke-linecap="round" stroke-linejoin="round"/>
<path d="M1.5 21L8.46 27.54C10.0721 29.1529 12.0666 30.3312 14.2572 30.9648C16.4479 31.5985 18.7633 31.6669 20.9876 31.1636C23.2118 30.6604 25.2723 29.6018 26.9768 28.0869C28.6813 26.5719 29.9742 24.6498 30.735 22.5M5.265 13.5C6.02575 11.3502 7.3187 9.4281 9.0232 7.91313C10.7277 6.39815 12.7882 5.33965 15.0124 4.83639C17.2367 4.33313 19.5521 4.40151 21.7428 5.03516C23.9334 5.66881 25.9279 6.84707 27.54 8.46L34.5 15L5.265 13.5Z" stroke="#70F5EE" stroke-width="3" stroke-linecap="round" stroke-linejoin="round"/>
</svg>