<svg xmlns:xlink="http://www.w3.org/1999/xlink" xmlns="http://www.w3.org/2000/svg" width="20" height="20" fill="currentColor" class="flex-shrink-0"><path fill-rule="evenodd" d="M7.25 3.25A2.25 2.25 0 0 1 9.5 1h1a2.25 2.25 0 0 1 2.25 2.25v.11l.078-.078a2.25 2.25 0 0 1 3.182 0l.707.708a2.25 2.25 0 0 1 0 3.182l-.078.078h.111A2.25 2.25 0 0 1 19 9.5v1a2.25 2.25 0 0 1-2.25 2.25h-.11l.078.078a2.25 2.25 0 0 1 0 3.182l-.708.707a2.25 2.25 0 0 1-3.182 0l-.078-.078v.111A2.25 2.25 0 0 1 10.5 19h-1a2.25 2.25 0 0 1-2.25-2.25v-.111l-.078.079a2.25 2.25 0 0 1-3.182 0l-.708-.708a2.25 2.25 0 0 1 0-3.182l.079-.078H3.25A2.25 2.25 0 0 1 1 10.5v-1a2.25 2.25 0 0 1 2.25-2.25h.11l-.078-.078a2.25 2.25 0 0 1 0-3.182l.708-.708a2.25 2.25 0 0 1 3.182 0l.078.079V3.25ZM9.5 2.5a.75.75 0 0 0-.75.75v.714c0 1.114-1.346 1.672-2.134.884l-.505-.505a.75.75 0 0 0-1.06 0l-.708.707a.75.75 0 0 0 0 1.06l.505.506c.788.788.23 2.134-.884 2.134H3.25a.75.75 0 0 0-.75.75v1c0 .414.336.75.75.75h.714c1.114 0 1.672 1.346.884 2.134l-.505.505a.75.75 0 0 0 0 1.06l.707.708a.75.75 0 0 0 1.06 0l.506-.505c.788-.788 2.134-.23 2.134.883v.715c0 .414.336.75.75.75h1a.75.75 0 0 0 .75-.75v-.715c0-1.113 1.346-1.67 2.134-.883l.505.505a.75.75 0 0 0 1.06 0l.708-.707a.75.75 0 0 0 0-1.06l-.505-.506c-.788-.788-.23-2.134.883-2.134h.715a.75.75 0 0 0 .75-.75v-1a.75.75 0 0 0-.75-.75h-.715c-1.113 0-1.67-1.346-.883-2.134l.505-.505a.75.75 0 0 0 0-1.06l-.707-.708a.75.75 0 0 0-1.06 0l-.506.505c-.788.788-2.134.23-2.134-.884V3.25a.75.75 0 0 0-.75-.75h-1ZM10 8a2 2 0 1 0 0 4 2 2 0 0 0 0-4Zm-3.5 2a3.5 3.5 0 1 1 7 0 3.5 3.5 0 0 1-7 0Z" clip-rule="evenodd" fill="#4A545E"></path></svg>