<svg xmlns:xlink="http://www.w3.org/1999/xlink" xmlns="http://www.w3.org/2000/svg" width="48" height="48" viewBox="0 0 48 48" fill="none">
<rect width="48" height="48" rx="24" fill="#E6F4D7"/>
<path d="M24 34C29.5228 34 34 29.5228 34 24C34 18.4772 29.5228 14 24 14C18.4772 14 14 18.4772 14 24C14 29.5228 18.4772 34 24 34Z" fill="#CEEAB0"/>
<path d="M20 26C20 26 21.5 28 24 28C26.5 28 28 26 28 26" fill="#CEEAB0"/>
<path d="M20 26C20 26 21.5 28 24 28C26.5 28 28 26 28 26M21 21H21.01M27 21H27.01M34 24C34 29.5228 29.5228 34 24 34C18.4772 34 14 29.5228 14 24C14 18.4772 18.4772 14 24 14C29.5228 14 34 18.4772 34 24Z" stroke="#4F7A21" stroke-width="2" stroke-linecap="round" stroke-linejoin="round"/>
</svg>