<svg xmlns:xlink="http://www.w3.org/1999/xlink" xmlns="http://www.w3.org/2000/svg" width="48" height="48" viewBox="0 0 48 48" fill="none">
    <rect width="48" height="48" rx="24" fill="#A5F0FC"/>
    <path d="M33 24L21 24M33 18L21 18M33 30L21 30M17 24C17 24.5523 16.5523 25 16 25C15.4477 25 15 24.5523 15 24C15 23.4477 15.4477 23 16 23C16.5523 23 17 23.4477 17 24ZM17 18C17 18.5523 16.5523 19 16 19C15.4477 19 15 18.5523 15 18C15 17.4477 15.4477 17 16 17C16.5523 17 17 17.4477 17 18ZM17 30C17 30.5523 16.5523 31 16 31C15.4477 31 15 30.5523 15 30C15 29.4477 15.4477 29 16 29C16.5523 29 17 29.4477 17 30Z" stroke="#088AB2" stroke-width="2" stroke-linecap="round" stroke-linejoin="round"/>
</svg>