<svg xmlns:xlink="http://www.w3.org/1999/xlink" xmlns="http://www.w3.org/2000/svg" width="20" height="20" fill="currentColor" class="flex-shrink-0"><path fill-rule="evenodd" d="M4.92 1h.16c.535 0 .98 0 1.345.03.38.03.736.098 1.073.27A2.75 2.75 0 0 1 8.7 2.502c.172.337.24.693.27 1.073.03.365.03.81.03 1.345v.16c0 .535 0 .98-.03 1.345-.03.38-.098.736-.27 1.073A2.75 2.75 0 0 1 7.498 8.7c-.337.172-.693.24-1.073.27C6.06 9 5.615 9 5.08 9h-.16c-.535 0-.98 0-1.345-.03-.38-.03-.736-.098-1.073-.27A2.75 2.75 0 0 1 1.3 7.498c-.172-.337-.24-.693-.27-1.073C1 6.06 1 5.615 1 5.08v-.16c0-.535 0-.98.03-1.345.03-.38.098-.736.27-1.073A2.75 2.75 0 0 1 2.502 1.3c.337-.172.693-.24 1.073-.27C3.94 1 4.385 1 4.92 1ZM3.697 2.525c-.287.023-.424.065-.514.111a1.25 1.25 0 0 0-.547.547c-.046.09-.088.227-.111.514-.024.296-.025.68-.025 1.253v.1c0 .572 0 .957.025 1.253.023.287.065.424.111.514.12.236.311.427.547.547.09.046.227.088.514.111.296.024.68.025 1.253.025h.1c.572 0 .957 0 1.253-.025.287-.023.424-.065.514-.111a1.25 1.25 0 0 0 .547-.547c.046-.09.088-.227.111-.514.024-.296.025-.68.025-1.253v-.1c0-.572 0-.957-.025-1.253-.023-.287-.065-.424-.111-.514a1.25 1.25 0 0 0-.547-.547c-.09-.046-.227-.088-.514-.111C6.007 2.5 5.623 2.5 5.05 2.5h-.1c-.572 0-.957 0-1.253.025ZM14.92 1h.16c.535 0 .98 0 1.345.03.38.03.736.098 1.073.27A2.75 2.75 0 0 1 18.7 2.502c.172.337.24.693.27 1.073.03.365.03.81.03 1.345v.16c0 .535 0 .98-.03 1.345-.03.38-.098.736-.27 1.073A2.75 2.75 0 0 1 17.5 8.7c-.338.172-.694.24-1.074.27-.365.03-.81.03-1.345.03h-.16c-.535 0-.98 0-1.345-.03-.38-.03-.736-.098-1.073-.27A2.75 2.75 0 0 1 11.3 7.498c-.172-.337-.24-.693-.27-1.073C11 6.06 11 5.615 11 5.08v-.16c0-.535 0-.98.03-1.345.03-.38.098-.736.27-1.073A2.75 2.75 0 0 1 12.5 1.3c.338-.172.694-.24 1.074-.27.365-.03.81-.03 1.345-.03Zm-1.223 1.525c-.287.023-.424.065-.514.111a1.25 1.25 0 0 0-.547.547c-.046.09-.088.227-.111.514-.024.296-.025.68-.025 1.253v.1c0 .572 0 .957.025 1.253.023.287.065.424.111.514.12.236.311.427.546.547.091.046.228.088.515.111.296.024.68.025 1.253.025h.1c.572 0 .957 0 1.252-.025.288-.023.425-.065.515-.111a1.25 1.25 0 0 0 .547-.547c.046-.09.088-.227.111-.514.024-.296.025-.68.025-1.253v-.1c0-.572 0-.957-.025-1.253-.023-.287-.065-.424-.111-.514a1.25 1.25 0 0 0-.547-.547c-.09-.046-.227-.088-.515-.111-.295-.024-.68-.025-1.252-.025h-.1c-.572 0-.957 0-1.252.025ZM4.92 11h.16c.535 0 .98 0 1.345.03.38.03.736.098 1.073.27A2.75 2.75 0 0 1 8.7 12.5c.172.338.24.694.27 1.074.03.365.03.81.03 1.345v.16c0 .535 0 .98-.03 1.345-.03.38-.098.736-.27 1.073A2.75 2.75 0 0 1 7.498 18.7c-.337.172-.693.24-1.073.27-.365.03-.81.03-1.345.03h-.16c-.535 0-.98 0-1.345-.03-.38-.03-.736-.098-1.073-.27A2.75 2.75 0 0 1 1.3 17.5c-.172-.338-.24-.694-.27-1.074C1 16.06 1 15.615 1 15.08v-.16c0-.535 0-.98.03-1.345.03-.38.098-.736.27-1.073A2.75 2.75 0 0 1 2.502 11.3c.337-.172.693-.24 1.073-.27.365-.03.81-.03 1.345-.03Zm-1.223 1.525c-.287.023-.424.065-.514.111a1.25 1.25 0 0 0-.547.546c-.046.091-.088.228-.111.515-.024.296-.025.68-.025 1.253v.1c0 .572 0 .957.025 1.252.023.288.065.425.111.515.12.236.311.427.547.547.09.046.227.088.514.111.296.024.68.025 1.253.025h.1c.572 0 .957 0 1.253-.025.287-.023.424-.065.514-.111a1.25 1.25 0 0 0 .547-.547c.046-.09.088-.227.111-.515.024-.295.025-.68.025-1.252v-.1c0-.572 0-.957-.025-1.252-.023-.288-.065-.425-.111-.516a1.25 1.25 0 0 0-.547-.546c-.09-.046-.227-.088-.514-.111-.296-.024-.68-.025-1.253-.025h-.1c-.572 0-.957 0-1.253.025ZM14.92 11h.162c.534 0 .98 0 1.344.03.38.03.736.098 1.073.27.518.263.939.684 1.202 1.201.172.338.24.694.27 1.074.03.365.03.81.03 1.345v.16c0 .535 0 .98-.03 1.345-.03.38-.098.736-.27 1.073A2.751 2.751 0 0 1 17.5 18.7c-.338.172-.694.24-1.074.27-.365.03-.81.03-1.345.03h-.16c-.535 0-.98 0-1.345-.03-.38-.03-.736-.098-1.073-.27a2.751 2.751 0 0 1-1.203-1.2c-.172-.338-.24-.694-.27-1.074-.03-.365-.03-.81-.03-1.345v-.16c0-.535 0-.98.03-1.345.03-.38.098-.736.27-1.073a2.751 2.751 0 0 1 1.2-1.203c.338-.172.694-.24 1.074-.27.365-.03.81-.03 1.345-.03Zm-1.222 1.525c-.287.023-.424.065-.514.111a1.25 1.25 0 0 0-.547.546c-.046.091-.088.228-.111.515-.024.296-.025.68-.025 1.253v.1c0 .572 0 .957.025 1.252.023.288.065.425.111.515.12.236.311.427.546.547.091.046.228.088.515.111.296.024.68.025 1.253.025h.1c.572 0 .957 0 1.252-.025.288-.023.425-.065.515-.111a1.25 1.25 0 0 0 .547-.547c.046-.09.088-.227.111-.515.024-.295.025-.68.025-1.252v-.1c0-.572 0-.957-.025-1.252-.023-.288-.065-.425-.111-.516a1.25 1.25 0 0 0-.547-.546c-.09-.046-.227-.088-.515-.111-.295-.024-.68-.025-1.252-.025h-.1c-.572 0-.957 0-1.252.025Z" clip-rule="evenodd" fill="#4A545E"></path></svg>