<svg xmlns="http://www.w3.org/2000/svg" width="20" height="20" fill="currentColor" class="group-hover:scale-110 transition-all duration-300 ease-out"><svg width="20" height="20" viewBox="0 0 20 20" fill="none"><path d="M17.157 6.641c.011.16.011.319.011.479 0 4.878-3.715 10.506-10.507 10.506v-.003A10.454 10.454 0 0 1 1 15.968a7.415 7.415 0 0 0 5.465-1.53 3.698 3.698 0 0 1-3.45-2.564 3.68 3.68 0 0 0 1.667-.064A3.693 3.693 0 0 1 1.72 8.19v-.048a3.67 3.67 0 0 0 1.676.463 3.698 3.698 0 0 1-1.143-4.931 10.48 10.48 0 0 0 7.611 3.858 3.695 3.695 0 0 1 6.293-3.368 7.41 7.41 0 0 0 2.346-.897 3.707 3.707 0 0 1-1.624 2.043A7.345 7.345 0 0 0 19 4.728a7.502 7.502 0 0 1-1.843 1.913z" fill="#1D9BF0"/></svg></svg>