<svg xmlns:xlink="http://www.w3.org/1999/xlink" viewBox="0 0 18 16" xmlns="http://www.w3.org/2000/svg" width="20" height="20" fill="currentColor" class="group-hover:scale-110 transition-all duration-300 ease-out"><path fill-rule="evenodd" clip-rule="evenodd" d="M0 2.75C0 1.23122 1.23122 0 2.75 0H15.25C16.7688 0 18 1.23122 18 2.75V13.25C18 14.7688 16.7688 16 15.25 16H2.75C1.23122 16 0 14.7688 0 13.25V2.75ZM1.5 5.25V7.25H4V5.25H1.5ZM4 3.75H1.5V2.75C1.5 2.05964 2.05964 1.5 2.75 1.5H4V3.75ZM5.5 14.5H12.5V1.5H5.5V14.5ZM14 1.5V3.75H16.5V2.75C16.5 2.05964 15.9404 1.5 15.25 1.5H14ZM16.5 5.25H14V7.25H16.5V5.25ZM16.5 8.75H14V10.75H16.5V8.75ZM16.5 12.25H14V14.5H15.25C15.9404 14.5 16.5 13.9404 16.5 13.25V12.25ZM4 14.5V12.25H1.5V13.25C1.5 13.9404 2.05964 14.5 2.75 14.5H4ZM1.5 10.75H4V8.75H1.5V10.75Z" fill="#634ECA"></path></svg>