<svg xmlns:xlink="http://www.w3.org/1999/xlink" xmlns="http://www.w3.org/2000/svg" width="48" height="48" viewBox="0 0 48 48" fill="none">
<rect width="48" height="48" rx="24" fill="#FFE4E8"/>
<path d="M26 17H15C13.8954 17 13 17.8954 13 19V29C13 30.1046 13.8954 31 15 31H26C27.1046 31 28 30.1046 28 29V19C28 17.8954 27.1046 17 26 17Z" fill="#FECDD6" stroke="#E31B54" stroke-width="2" stroke-linecap="round" stroke-linejoin="round"/>
<path d="M35 19L28 24L35 29V19Z" stroke="#E31B54" stroke-width="2" stroke-linecap="round" stroke-linejoin="round"/>
<path d="M26 17H15C13.8954 17 13 17.8954 13 19V29C13 30.1046 13.8954 31 15 31H26C27.1046 31 28 30.1046 28 29V19C28 17.8954 27.1046 17 26 17Z" stroke="#E31B54" stroke-width="2" stroke-linecap="round" stroke-linejoin="round"/>
</svg>