<svg xmlns:xlink="http://www.w3.org/1999/xlink" xmlns="http://www.w3.org/2000/svg" width="16" height="16" viewBox="0 0 16 16" fill="none">
<path d="M12.5614 9.37494C11.3987 9.37494 10.4561 10.2984 10.4561 11.4374C10.4561 12.5765 11.3987 13.4999 12.5614 13.4999C13.7241 13.4999 14.6667 12.5765 14.6667 11.4374C14.6667 10.2984 13.7241 9.37494 12.5614 9.37494ZM12.5614 9.37494V4.56245C12.5614 4.19777 12.4135 3.84804 12.1503 3.59017C11.8871 3.33231 11.5301 3.18745 11.1579 3.18745H9.05263M3.43859 6.47222V11.4374C3.43859 11.8021 3.58646 12.1518 3.84967 12.4097C4.11288 12.6676 4.46987 12.8124 4.8421 12.8124H6.94736M3.43859 6.47222C5.54385 6.47222 5.54386 6.62494 5.54386 4.56245C5.54386 2.49995 5.43859 2.50018 3.33333 2.5C1.22807 2.49979 1.33333 2.49995 1.33333 4.56245C1.33331 6.62494 1.33334 6.47222 3.43859 6.47222Z" stroke="#FF692E" stroke-width="1.33333" stroke-linecap="round" stroke-linejoin="round"/>
</svg>