<svg xmlns:xlink="http://www.w3.org/1999/xlink" viewBox="0 0 18 11" xmlns="http://www.w3.org/2000/svg" width="20" height="20" fill="currentColor" class="group-hover:scale-110 transition-all duration-300 ease-out"><path d="M17.6236 1.96773C17.4162 1.19279 16.8072 0.5838 16.0322 0.376358C14.6291 1.12658e-07 8.99997 0 8.99997 0C8.99997 0 3.37092 1.12658e-07 1.96773 0.376358C1.19279 0.5838 0.5838 1.19279 0.376358 1.96773C1.12658e-07 3.37092 0 6.30029 0 6.30029C0 6.30029 1.12658e-07 9.22968 0.376358 10.6329C0.5838 11.4078 1.19279 12.0168 1.96773 12.2242C3.37092 12.6006 8.99997 12.6006 8.99997 12.6006C8.99997 12.6006 14.6291 12.6006 16.0322 12.2242C16.8072 12.0168 17.4162 11.4078 17.6236 10.6329C18 9.22968 18 6.30029 18 6.30029C18 6.30029 17.9985 3.37092 17.6236 1.96773Z" fill="#FF0000"></path><path d="M7.19824 9.00023L11.8746 6.30055L7.19824 3.60083V9.00023Z" fill="#FFFFFF"></path></svg>