<svg xmlns:xlink="http://www.w3.org/1999/xlink" xmlns="http://www.w3.org/2000/svg" width="48" height="48" viewBox="0 0 48 48" fill="none">
<rect width="48" height="48" rx="24" fill="#FFE4E8"/>
<path d="M12.8237 19.0772C12.9281 17.4694 14.2207 16.2094 15.8299 16.1297C18.1601 16.0142 21.4906 15.875 24 15.875C26.5094 15.875 29.8399 16.0142 32.1701 16.1297C33.7793 16.2094 35.0719 17.4694 35.1763 19.0772C35.2764 20.6175 35.375 22.5128 35.375 24C35.375 25.4872 35.2764 27.3825 35.1763 28.9229C35.0719 30.5306 33.7793 31.7906 32.1701 31.8703C29.8399 31.9858 26.5094 32.125 24 32.125C21.4906 32.125 18.1601 31.9858 15.8299 31.8703C14.2207 31.7906 12.9281 30.5306 12.8237 28.9228C12.7236 27.3825 12.625 25.4872 12.625 24C12.625 22.5128 12.7236 20.6175 12.8237 19.0772Z" fill="#FC0D1B"/>
<path d="M21.5625 20.75V27.25L28.0625 24L21.5625 20.75Z" fill="white"/>
</svg>