<svg xmlns:xlink="http://www.w3.org/1999/xlink" viewBox="0 0 20 20" xmlns="http://www.w3.org/2000/svg" width="15" height="15" fill="currentColor" class="text-red-600" viewbox="0 0 15 18"><path fill-rule="evenodd" clip-rule="evenodd" d="M6.81944 0.26192C7.08901 0.576414 7.05259 1.04989 6.73809 1.31946L4.77744 3.00001H7.5C11.6421 3.00001 15 6.35788 15 10.5C15 14.6421 11.6421 18 7.5 18C3.35786 18 0 14.6421 0 10.5C0 9.92825 0.0641168 9.37055 0.185856 8.83405C0.277516 8.4301 0.679282 8.17695 1.08323 8.26861C1.48717 8.36027 1.74033 8.76203 1.64867 9.16598C1.55148 9.59431 1.5 10.0407 1.5 10.5C1.5 13.8137 4.18629 16.5 7.5 16.5C10.8137 16.5 13.5 13.8137 13.5 10.5C13.5 7.1863 10.8137 4.50001 7.5 4.50001H4.77744L6.73809 6.18057C7.05259 6.45014 7.08901 6.92361 6.81944 7.23811C6.54988 7.5526 6.0764 7.58902 5.76191 7.31946L2.26191 4.31946C2.09567 4.17697 2 3.96896 2 3.75001C2 3.53107 2.09567 3.32306 2.26191 3.18057L5.76191 0.180571C6.0764 -0.0889955 6.54988 -0.0525743 6.81944 0.26192Z" fill="#DC2626"></path></svg>