<svg xmlns:xlink="http://www.w3.org/1999/xlink" viewBox="0 0 20 20" xmlns="http://www.w3.org/2000/svg" width="14" height="14" fill="currentColor"><path fill-rule="evenodd" clip-rule="evenodd" d="M6.35759 0.999929C6.40116 0.999971 6.44529 1.00001 6.49 1.00001L15.0804 1.00001C15.6146 1 16.0604 0.999993 16.4247 1.02975C16.8046 1.06079 17.1612 1.1279 17.4985 1.29975C18.0159 1.5634 18.4366 1.98409 18.7003 2.50154C18.8721 2.8388 18.9392 3.19546 18.9703 3.57534C19 3.93957 19 4.38541 19 4.91956V8.08047C19 8.61461 19 9.06045 18.9703 9.42468C18.9392 9.80457 18.8721 10.1612 18.7003 10.4985C18.4366 11.0159 18.0159 11.4366 17.4985 11.7003C17.1612 11.8721 16.8046 11.9392 16.4247 11.9703C16.0604 12 15.6146 12 15.0805 12H14.2069C13.9801 12 13.8488 12.0004 13.7505 12.0074C13.6903 12.0117 13.6651 12.0173 13.6585 12.0191C13.6194 12.0353 13.585 12.0613 13.5586 12.0945C13.555 12.1003 13.5427 12.123 13.5221 12.1797C13.4884 12.2723 13.4519 12.3984 13.3896 12.6165L11.928 17.7319C11.7136 18.4825 11.0275 19 10.2469 19C8.72982 19 7.5 17.7702 7.5 16.2531V13.85C7.5 13.5576 7.49942 13.3834 7.48887 13.2543C7.48243 13.1755 7.47394 13.1424 7.47118 13.1335C7.44766 13.0888 7.41118 13.0524 7.36654 13.0288C7.35767 13.0261 7.32454 13.0176 7.24573 13.0111C7.1166 13.0006 6.94241 13 6.65 13H5.28483C4.59465 13 4.02768 13 3.57465 12.9595C3.10859 12.9179 2.67247 12.8278 2.28495 12.5876C1.70891 12.2307 1.26784 11.6681 1.07847 11.0005C0.952705 10.5572 0.991778 10.1084 1.08275 9.65097C1.16562 9.23424 1.31016 8.72913 1.48319 8.12448C1.49817 8.0721 1.51338 8.01897 1.52877 7.96509L2.69879 3.86509C2.71037 3.82457 2.72184 3.78431 2.7331 3.74477C2.93547 3.03419 3.09346 2.47947 3.4303 2.05083C3.72116 1.68071 4.09994 1.38652 4.54642 1.20417C5.04956 0.99867 5.62341 0.999222 6.35759 0.999929ZM7.36913 13.0297C7.3691 13.0298 7.36858 13.0296 7.36764 13.0292L7.36913 13.0297ZM7.47028 13.1309C7.47029 13.1309 7.47048 13.1313 7.47083 13.1324L7.47028 13.1309ZM13.5597 12.0928C13.5597 12.0928 13.5592 12.0936 13.5586 12.0945L13.5597 12.0928ZM13.6566 12.0197C13.6566 12.0197 13.6573 12.0194 13.6585 12.0191L13.6566 12.0197ZM6.49 2.50001C5.55778 2.50001 5.30764 2.51355 5.11358 2.59281C4.91833 2.67256 4.74716 2.80274 4.6097 2.97766C4.48004 3.14265 4.39697 3.38157 4.14121 4.27672C4.14119 4.27679 4.14123 4.27664 4.14121 4.27672L2.97119 8.37672C2.95855 8.42094 2.9461 8.4645 2.93395 8.50698C2.75142 9.1454 2.62414 9.59056 2.55394 9.94354C2.47998 10.3154 2.49189 10.4867 2.52153 10.5912C2.60442 10.8834 2.80307 11.1441 3.07501 11.3126C3.17151 11.3724 3.33529 11.4322 3.70818 11.4655C4.08643 11.4993 4.5859 11.5 5.31998 11.5L6.67624 11.5C6.93372 11.5 7.17019 11.5 7.36788 11.5161C7.58101 11.5335 7.81418 11.5734 8.04449 11.6908C8.37377 11.8585 8.64149 12.1262 8.80927 12.4555C8.92661 12.6858 8.96648 12.919 8.98389 13.1321C9.00004 13.3298 9.00002 13.5663 9.00001 13.8238L9 16.2531C9 16.9418 9.55825 17.5 10.2469 17.5C10.3578 17.5 10.4553 17.4265 10.4858 17.3198L11.9473 12.2044C11.9552 12.1767 11.9631 12.1487 11.9711 12.1206C12.0638 11.7926 12.1624 11.4435 12.3783 11.1687C12.5657 10.9303 12.8119 10.7446 13.0926 10.6299C13.2234 10.5765 13.3605 10.5449 13.5 10.5262V2.50001H6.49ZM15 2.50001V10.5H15.05C15.6224 10.5 16.0066 10.4994 16.3025 10.4753C16.5896 10.4518 16.7269 10.4099 16.8175 10.3638C17.0527 10.2439 17.2439 10.0527 17.3638 9.8175C17.4099 9.72694 17.4518 9.58966 17.4752 9.30254C17.4994 9.00666 17.5 8.62244 17.5 8.05001V4.95001C17.5 4.37758 17.4994 3.99337 17.4752 3.69749C17.4518 3.41037 17.4099 3.27309 17.3638 3.18252C17.2439 2.94732 17.0527 2.7561 16.8175 2.63625C16.7269 2.59011 16.5896 2.54823 16.3025 2.52477C16.0066 2.5006 15.6224 2.50001 15.05 2.50001H15Z" fill="#272E35"></path></svg>